{"glyphs":{"0":{"ha":764,"x_min":56,"x_max":708,"o":"m 141 812 q 184 875 141 812 q 382 939 226 939 q 623 812 538 939 q 708 461 708 685 q 623 110 708 238 q 382 -17 538 -17 q 141 110 226 -17 q 56 461 56 238 q 141 812 56 685 m 525 729 q 500 774 525 729 q 382 819 475 819 q 239 729 289 819 q 189 461 189 639 q 239 193 189 283 q 382 103 289 103 q 525 193 475 103 q 575 461 575 283 q 525 729 575 639 z "},"1":{"ha":478,"x_min":76,"x_max":346,"o":"m 346 0 l 215 0 l 215 764 q 76 703 197 754 l 76 825 q 261 922 190 882 l 346 922 l 346 0 z "},"2":{"ha":707,"x_min":64,"x_max":667,"o":"m 667 0 l 81 0 l 81 118 q 406 499 311 360 q 490 694 490 621 q 444 788 490 753 q 339 822 399 822 q 238 782 281 822 q 193 679 194 742 l 64 706 q 157 873 72 807 q 344 939 242 939 q 541 870 457 939 q 625 694 625 801 q 526 440 625 581 q 256 117 424 296 l 667 117 l 667 0 z "},"3":{"ha":721,"x_min":49,"x_max":650,"o":"m 214 406 l 214 539 q 346 553 301 542 q 435 605 401 568 q 469 690 469 642 q 426 785 469 747 q 315 822 383 822 q 222 796 263 822 q 164 722 181 769 l 53 768 q 151 892 81 844 q 318 939 222 939 q 524 872 446 939 q 603 692 603 804 q 572 576 603 629 q 488 496 540 524 q 605 409 560 471 q 650 268 650 347 q 561 60 650 138 q 342 -17 472 -17 q 169 23 250 -17 q 49 138 89 63 l 151 194 q 332 100 207 100 q 463 140 410 100 q 517 257 517 181 q 460 371 517 326 q 321 415 403 415 q 214 406 257 415 z "},"4":{"ha":747,"x_min":36,"x_max":718,"o":"m 581 0 l 453 0 l 453 232 l 36 232 l 36 372 q 446 922 181 560 l 581 922 l 581 349 l 718 349 l 718 232 l 581 232 l 581 0 m 175 349 l 453 349 l 453 739 q 175 349 344 581 z "},"5":{"ha":693,"x_min":51,"x_max":651,"o":"m 601 922 l 601 806 l 250 806 q 233 547 240 608 q 369 574 290 574 q 568 492 485 574 q 651 290 651 410 q 565 71 651 158 q 344 -17 478 -17 q 173 26 257 -17 q 51 138 89 68 l 156 196 q 328 100 208 100 q 467 153 415 100 q 518 286 518 207 q 465 410 518 363 q 332 457 413 457 q 189 399 246 457 l 94 450 q 126 922 110 597 l 601 922 z "},"6":{"ha":742,"x_min":56,"x_max":686,"o":"m 510 974 l 563 857 q 332 709 422 793 q 207 499 242 625 q 415 583 292 583 q 610 497 535 583 q 686 286 686 411 q 603 70 686 157 q 393 -17 519 -17 q 148 92 240 -17 q 56 351 56 200 q 184 728 56 563 q 510 974 313 893 m 388 467 q 271 435 325 467 q 188 350 217 404 q 235 172 188 244 q 382 100 283 100 q 506 154 460 100 q 553 289 553 208 q 508 417 553 368 q 388 467 464 467 z "},"7":{"ha":628,"x_min":14,"x_max":600,"o":"m 600 922 l 600 826 q 217 -31 399 406 l 96 24 q 217 297 151 154 q 367 617 282 440 q 456 803 451 793 l 14 803 l 14 922 l 600 922 z "},"8":{"ha":781,"x_min":78,"x_max":703,"o":"m 615 61 q 572 22 615 61 q 390 -17 528 -17 q 165 61 253 -17 q 78 254 78 139 q 221 486 78 408 q 106 686 106 554 q 185 866 106 793 q 390 939 264 939 q 596 866 517 939 q 675 686 675 793 q 560 486 675 554 q 703 254 703 408 q 615 61 703 139 m 517 374 q 490 397 517 374 q 390 421 464 421 q 264 374 317 421 q 211 260 211 326 q 263 145 211 190 q 390 100 315 100 q 517 145 465 100 q 569 260 569 190 q 517 374 569 326 m 500 782 q 478 802 500 782 q 390 822 456 822 q 281 782 325 822 q 236 681 236 742 q 281 579 236 621 q 390 538 326 538 q 499 579 454 538 q 544 681 544 621 q 500 782 544 742 z "},"9":{"ha":742,"x_min":56,"x_max":686,"o":"m 232 -51 l 179 65 q 410 213 319 129 q 535 424 500 297 q 326 339 450 339 q 131 425 207 339 q 56 636 56 511 q 139 852 56 765 q 349 939 222 939 q 594 831 501 939 q 686 571 686 722 q 558 194 686 360 q 232 -51 429 29 m 354 456 q 471 487 417 456 q 554 572 525 518 q 506 750 554 678 q 360 822 458 822 q 235 768 282 822 q 189 633 189 714 q 233 505 189 554 q 354 456 278 456 z "},"\r":{"ha":694,"x_min":0,"x_max":0,"o":""}," ":{"ha":347,"x_min":0,"x_max":0,"o":""},"!":{"ha":440,"x_min":146,"x_max":294,"o":"m 294 972 l 294 818 l 282 292 l 158 292 l 146 818 l 146 972 l 294 972 m 293 0 l 147 0 l 147 161 l 293 161 l 293 0 z "},"\"":{"ha":663,"x_min":111,"x_max":551,"o":"m 236 604 l 124 604 l 111 972 l 249 972 l 236 604 m 539 604 l 426 604 l 414 972 l 551 972 l 539 604 z "},"#":{"ha":1000,"x_min":90,"x_max":910,"o":"m 90 365 l 276 365 l 310 557 l 185 557 l 185 660 l 326 660 l 372 922 l 485 922 l 439 660 l 619 660 l 665 922 l 778 922 l 732 660 l 910 660 l 910 557 l 715 557 l 682 365 l 815 365 l 815 263 l 665 263 l 621 0 l 508 0 l 553 263 l 372 263 l 328 0 l 215 0 l 260 263 l 90 263 l 90 365 m 422 557 l 389 365 l 569 365 l 603 557 l 422 557 z "},"$":{"ha":764,"x_min":42,"x_max":699,"o":"m 42 122 l 132 207 q 369 96 240 96 q 509 136 450 96 q 568 257 568 176 q 555 313 568 288 q 526 354 542 339 q 476 387 511 369 q 422 412 442 404 q 357 436 403 419 q 281 465 308 454 q 215 499 254 476 q 153 547 175 522 q 116 610 132 571 q 100 697 100 649 q 169 863 100 797 q 349 938 239 929 l 349 1069 l 438 1069 l 438 935 q 665 844 556 922 l 586 751 q 386 825 504 825 q 274 792 322 825 q 225 697 225 760 q 237 653 225 674 q 263 619 249 632 q 308 590 276 606 q 358 567 339 575 q 419 546 378 560 q 500 517 472 528 q 572 481 528 506 q 640 430 617 456 q 681 363 663 404 q 699 271 699 322 q 624 78 699 151 q 431 -12 549 4 l 431 -147 l 342 -147 l 342 -17 q 42 122 181 -11 z "},"%":{"ha":1181,"x_min":81,"x_max":1100,"o":"m 145 916 q 177 948 145 916 q 303 981 210 981 q 460 916 396 981 q 524 758 524 851 q 460 602 524 667 q 303 538 396 538 q 145 602 210 538 q 81 758 81 667 q 145 916 81 851 m 304 882 q 219 847 253 882 q 185 760 185 813 q 219 672 185 707 q 304 636 253 636 q 386 672 353 636 q 419 760 419 707 q 386 847 419 811 q 304 882 353 882 m 722 370 q 754 402 722 370 q 879 435 786 435 q 1036 370 972 435 q 1100 213 1100 306 q 1036 56 1100 121 q 879 -8 972 -8 q 722 56 786 -8 q 657 213 657 121 q 722 370 657 306 m 881 336 q 795 301 829 336 q 761 214 761 267 q 795 126 761 161 q 881 90 829 90 q 963 126 929 90 q 996 214 996 161 q 963 301 996 265 q 881 336 929 336 m 900 989 l 976 933 l 286 -17 l 210 39 l 900 989 z "},"&":{"ha":944,"x_min":89,"x_max":965,"o":"m 965 63 l 888 -25 l 715 128 q 410 -17 608 -17 q 185 74 282 -17 q 89 285 89 165 q 133 440 89 371 q 253 549 178 508 q 160 751 160 649 q 244 921 160 853 q 435 989 328 989 q 593 942 524 989 q 685 814 663 894 l 568 781 q 429 872 543 872 q 327 837 368 872 q 286 744 286 801 q 320 649 286 693 q 435 535 354 606 l 360 446 l 335 468 q 248 394 281 442 q 215 286 215 347 q 277 154 215 208 q 425 100 339 100 q 631 203 558 100 l 518 304 l 594 392 l 965 63 z "},"'":{"ha":360,"x_min":111,"x_max":249,"o":"m 236 604 l 124 604 l 111 972 l 249 972 l 236 604 z "},"(":{"ha":479,"x_min":69,"x_max":490,"o":"m 438 1085 l 490 994 q 200 422 200 804 q 490 -150 200 40 l 438 -240 q 69 422 69 -11 q 438 1085 69 856 z "},")":{"ha":479,"x_min":-11,"x_max":410,"o":"m -11 994 l 42 1085 q 410 422 410 856 q 42 -240 410 -11 l -11 -150 q 279 422 279 40 q -11 994 279 804 z "},"*":{"ha":681,"x_min":97,"x_max":583,"o":"m 583 768 l 418 728 l 535 593 l 438 524 l 340 681 l 243 524 l 146 593 l 261 728 l 97 768 l 133 882 l 294 815 l 281 989 l 400 989 l 388 815 l 547 882 l 583 768 z "},"+":{"ha":764,"x_min":35,"x_max":729,"o":"m 436 779 l 436 486 l 729 486 l 729 378 l 436 378 l 436 86 l 328 86 l 328 378 l 35 378 l 35 486 l 328 486 l 328 779 l 436 779 z "},",":{"ha":347,"x_min":51,"x_max":264,"o":"m 264 161 l 172 -186 l 51 -186 l 122 161 l 264 161 z "},"-":{"ha":639,"x_min":139,"x_max":500,"o":"m 500 331 l 139 331 l 139 444 l 500 444 l 500 331 z "},".":{"ha":347,"x_min":100,"x_max":246,"o":"m 246 0 l 100 0 l 100 161 l 246 161 l 246 0 z "},"/":{"ha":504,"x_min":0,"x_max":504,"o":"m 504 1021 l 99 -74 l 0 -36 l 406 1058 l 504 1021 z "},":":{"ha":347,"x_min":100,"x_max":246,"o":"m 246 533 l 100 533 l 100 694 l 246 694 l 246 533 m 246 0 l 100 0 l 100 161 l 246 161 l 246 0 z "},";":{"ha":347,"x_min":51,"x_max":267,"o":"m 264 161 l 172 -186 l 51 -186 l 122 161 l 264 161 m 267 533 l 121 533 l 121 694 l 267 694 l 267 533 z "},"<":{"ha":764,"x_min":33,"x_max":729,"o":"m 33 378 l 33 486 l 729 764 l 729 656 l 168 432 l 729 208 l 729 100 l 33 378 z "},"=":{"ha":764,"x_min":75,"x_max":688,"o":"m 75 594 l 688 594 l 688 486 l 75 486 l 75 594 m 75 378 l 688 378 l 688 269 l 75 269 l 75 378 z "},">":{"ha":764,"x_min":35,"x_max":731,"o":"m 731 486 l 731 378 l 35 100 l 35 208 l 596 432 l 35 656 l 35 764 l 731 486 z "},"?":{"ha":751,"x_min":103,"x_max":650,"o":"m 436 292 l 301 292 l 301 522 q 384 553 351 539 q 452 593 417 568 q 506 653 488 618 q 524 733 524 688 q 482 833 524 792 q 378 875 440 875 q 269 833 310 875 q 229 719 229 792 l 229 708 l 103 708 l 103 714 q 184 911 103 833 q 378 989 265 989 q 572 911 493 989 q 650 738 650 833 q 593 558 650 621 q 436 450 536 496 l 436 292 m 442 0 l 296 0 l 296 161 l 442 161 l 442 0 z "},"@":{"ha":1111,"x_min":76,"x_max":1036,"o":"m 758 -143 q 549 -193 660 -193 q 214 -53 351 -193 q 76 285 76 88 q 214 624 76 485 q 549 764 351 764 q 901 638 765 764 q 1036 313 1036 511 q 982 103 1036 189 q 824 18 928 18 q 689 131 724 18 q 622 63 665 86 q 528 39 578 39 q 365 107 429 39 q 301 278 301 175 q 364 447 301 375 q 531 518 426 518 q 674 458 610 518 l 674 503 l 772 503 l 772 289 q 781 176 772 217 q 803 125 790 136 q 835 114 815 114 q 904 172 881 114 q 928 314 928 231 q 825 565 928 471 q 550 658 722 658 q 290 551 396 658 q 185 286 185 443 q 290 21 185 129 q 550 -87 396 -87 q 724 -46 638 -87 l 758 -143 m 674 243 l 674 343 q 611 403 647 381 q 542 425 575 425 q 438 381 472 425 q 403 276 403 338 q 440 174 403 217 q 539 131 476 131 q 615 161 575 131 q 674 243 654 192 z "},"A":{"ha":907,"x_min":21,"x_max":886,"o":"m 886 0 l 732 0 l 656 207 l 242 207 l 167 0 l 21 0 l 397 972 l 514 972 l 886 0 m 449 769 l 286 326 l 613 326 l 450 769 l 449 769 z "},"B":{"ha":849,"x_min":132,"x_max":765,"o":"m 132 0 l 132 972 l 364 972 q 622 911 528 972 q 725 710 725 844 q 576 508 725 567 q 765 276 765 451 q 723 133 765 194 q 607 39 681 71 q 351 0 514 0 l 132 0 m 624 275 q 571 394 624 350 q 421 439 518 439 l 265 439 l 265 117 l 339 117 q 544 146 481 117 q 624 275 624 183 m 592 703 q 536 819 592 783 q 332 856 479 856 l 265 856 l 265 556 l 358 556 q 592 703 592 556 z "},"C":{"ha":936,"x_min":83,"x_max":892,"o":"m 892 72 q 606 -17 761 -17 q 233 122 383 -17 q 83 486 83 261 q 235 844 83 700 q 606 989 388 989 q 867 914 746 989 l 804 811 q 606 869 710 869 q 333 761 440 869 q 225 486 225 653 q 331 207 225 311 q 606 103 436 103 q 821 171 719 103 l 892 72 z "},"D":{"ha":1000,"x_min":132,"x_max":917,"o":"m 132 0 l 132 972 l 394 972 q 544 956 471 972 q 685 903 617 940 q 804 813 753 867 q 886 675 856 758 q 917 490 917 592 q 871 263 917 361 q 747 110 825 165 q 576 27 668 54 q 381 0 485 0 l 132 0 m 775 478 q 669 756 775 660 q 369 853 563 853 l 265 853 l 265 119 l 311 119 q 655 202 535 119 q 775 478 775 285 z "},"E":{"ha":806,"x_min":132,"x_max":715,"o":"m 715 0 l 132 0 l 132 972 l 715 972 l 715 853 l 265 853 l 265 561 l 715 561 l 715 442 l 265 442 l 265 119 l 715 119 l 715 0 z "},"F":{"ha":688,"x_min":132,"x_max":625,"o":"m 625 415 l 265 415 l 265 0 l 132 0 l 132 972 l 625 972 l 625 853 l 265 853 l 265 535 l 625 535 l 625 415 z "},"G":{"ha":1115,"x_min":83,"x_max":1004,"o":"m 871 419 l 624 419 l 624 539 l 1004 539 l 1004 169 q 830 32 935 81 q 606 -17 725 -17 q 231 123 379 -17 q 83 486 83 263 q 235 844 83 700 q 606 989 388 989 q 813 943 715 989 q 982 817 911 897 l 888 739 q 760 834 835 799 q 606 869 686 869 q 333 761 440 869 q 225 486 225 653 q 331 207 225 311 q 606 103 436 103 q 871 204 765 103 l 871 419 z "},"H":{"ha":1044,"x_min":132,"x_max":913,"o":"m 913 0 l 779 0 l 779 442 l 265 442 l 265 0 l 132 0 l 132 972 l 265 972 l 265 561 l 779 561 l 779 972 l 913 972 l 913 0 z "},"I":{"ha":397,"x_min":132,"x_max":265,"o":"m 265 0 l 132 0 l 132 972 l 265 972 l 265 0 z "},"J":{"ha":474,"x_min":-22,"x_max":349,"o":"m 349 972 l 349 246 q 304 61 349 126 q 118 -17 250 -17 q -22 14 51 -17 l 14 122 q 99 103 56 103 q 192 136 168 103 q 215 264 215 167 l 215 972 l 349 972 z "},"K":{"ha":863,"x_min":132,"x_max":856,"o":"m 836 972 l 513 589 l 856 0 l 700 0 l 422 481 l 265 293 l 265 0 l 132 0 l 132 972 l 265 972 l 265 476 l 674 972 l 836 972 z "},"L":{"ha":694,"x_min":132,"x_max":688,"o":"m 688 0 l 132 0 l 132 972 l 265 972 l 265 119 l 688 119 l 688 0 z "},"M":{"ha":1282,"x_min":132,"x_max":1150,"o":"m 1017 821 l 685 0 l 592 0 l 265 821 l 265 0 l 132 0 l 132 972 l 343 972 l 639 213 l 939 972 l 1150 972 l 1150 0 l 1017 0 l 1017 821 z "},"N":{"ha":1049,"x_min":132,"x_max":917,"o":"m 917 0 l 799 0 l 265 725 l 265 0 l 132 0 l 132 972 l 249 972 l 783 247 l 783 972 l 917 972 l 917 0 z "},"O":{"ha":1167,"x_min":83,"x_max":1083,"o":"m 840 213 q 891 268 840 213 q 942 486 942 324 q 840 759 942 649 q 583 869 738 869 q 327 759 429 869 q 225 486 225 649 q 327 213 225 324 q 583 103 429 103 q 840 213 738 103 m 939 842 q 1011 769 939 842 q 1083 486 1083 696 q 939 130 1083 276 q 583 -17 794 -17 q 228 130 372 -17 q 83 486 83 276 q 228 842 83 696 q 583 989 372 989 q 939 842 794 989 z "},"P":{"ha":807,"x_min":132,"x_max":765,"o":"m 765 682 q 735 546 765 604 q 653 454 704 488 q 543 405 601 421 q 422 389 485 389 l 265 389 l 265 0 l 132 0 l 132 972 l 422 972 q 543 956 485 972 q 652 908 601 940 q 734 817 703 875 q 765 682 765 758 m 624 678 q 567 806 624 758 q 415 853 510 853 l 265 853 l 265 508 l 388 508 q 624 678 624 508 z "},"Q":{"ha":1167,"x_min":83,"x_max":1083,"o":"m 1083 486 q 935 126 1083 271 l 1067 -4 l 982 -89 l 839 51 q 583 -17 722 -17 q 228 130 372 -17 q 83 486 83 276 q 228 842 83 696 q 583 989 372 989 q 939 842 794 989 q 1083 486 1083 696 m 942 486 q 840 759 942 649 q 583 869 738 869 q 327 759 429 869 q 225 486 225 649 q 327 213 225 324 q 583 103 429 103 q 749 143 675 103 l 613 279 l 697 364 l 843 218 q 942 486 942 325 z "},"R":{"ha":851,"x_min":132,"x_max":824,"o":"m 824 0 l 657 0 l 365 411 l 265 411 l 265 0 l 132 0 l 132 972 l 421 972 q 574 946 501 972 q 699 853 646 919 q 753 693 753 788 q 684 509 753 578 q 515 419 615 440 l 824 0 m 611 689 q 557 808 611 763 q 414 853 503 853 l 265 853 l 265 531 l 386 531 q 550 570 489 531 q 611 689 611 610 z "},"S":{"ha":846,"x_min":63,"x_max":756,"o":"m 636 792 q 544 847 600 825 q 432 869 488 869 q 306 834 353 869 q 258 735 258 799 q 271 689 258 710 q 297 655 283 668 q 344 626 311 642 q 397 603 378 611 q 461 581 417 596 q 567 538 526 557 q 658 485 608 519 q 731 401 707 450 q 756 286 756 351 q 724 147 756 208 q 640 52 692 86 q 531 1 589 18 q 414 -17 472 -17 q 63 129 210 -17 l 157 218 q 282 128 224 153 q 415 103 340 103 q 556 145 499 103 q 614 271 614 188 q 598 338 614 310 q 546 389 582 367 q 481 423 510 411 q 397 454 451 435 q 297 494 339 475 q 213 545 256 514 q 147 621 169 576 q 124 721 124 665 q 207 920 124 851 q 417 989 290 989 q 718 889 586 989 l 636 792 z "},"T":{"ha":678,"x_min":28,"x_max":650,"o":"m 650 853 l 406 853 l 406 0 l 272 0 l 272 853 l 28 853 l 28 972 l 650 972 l 650 853 z "},"U":{"ha":1003,"x_min":125,"x_max":878,"o":"m 878 972 l 878 457 q 786 103 878 222 q 499 -17 694 -17 q 125 457 125 -17 l 125 972 l 258 972 l 258 422 q 322 183 258 264 q 501 103 386 103 q 681 183 617 103 q 744 422 744 264 l 744 972 l 878 972 z "},"V":{"ha":879,"x_min":7,"x_max":872,"o":"m 872 972 l 496 0 l 379 0 l 7 972 l 161 972 l 443 203 l 444 203 l 726 972 l 872 972 z "},"W":{"ha":1231,"x_min":7,"x_max":1224,"o":"m 681 972 l 875 239 l 878 239 l 1082 972 l 1224 972 l 946 0 l 813 0 l 618 740 l 615 740 l 404 0 l 274 0 l 7 972 l 154 972 l 349 239 l 351 239 l 556 972 l 681 972 z "},"X":{"ha":904,"x_min":7,"x_max":897,"o":"m 892 972 l 539 492 l 897 0 l 729 0 l 447 385 l 175 0 l 7 0 l 364 494 l 18 972 l 189 972 l 458 599 l 726 972 l 892 972 z "},"Y":{"ha":771,"x_min":7,"x_max":764,"o":"m 450 0 l 317 0 l 317 422 l 7 972 l 172 972 l 389 564 l 393 564 l 608 972 l 764 972 l 450 415 l 450 0 z "},"Z":{"ha":760,"x_min":56,"x_max":732,"o":"m 697 900 l 240 119 l 732 119 l 732 0 l 56 0 l 56 71 l 515 853 l 67 853 l 67 972 l 697 972 l 697 900 z "},"[":{"ha":432,"x_min":125,"x_max":418,"o":"m 418 -236 l 125 -236 l 125 1042 l 418 1042 l 418 935 l 239 935 l 239 -129 l 418 -129 l 418 -236 z "},"\\":{"ha":504,"x_min":0,"x_max":504,"o":"m 504 -36 l 406 -74 l 0 1021 l 99 1058 l 504 -36 z "},"]":{"ha":432,"x_min":14,"x_max":307,"o":"m 307 -236 l 14 -236 l 14 -129 l 193 -129 l 193 935 l 14 935 l 14 1042 l 307 1042 l 307 -236 z "},"^":{"ha":764,"x_min":106,"x_max":658,"o":"m 658 486 l 550 486 l 382 839 l 214 486 l 106 486 l 315 946 l 449 946 l 658 486 z "},"_":{"ha":764,"x_min":0,"x_max":764,"o":"m 764 -326 l 0 -326 l 0 -239 l 764 -239 l 764 -326 z "},"`":{"ha":500,"x_min":79,"x_max":342,"o":"m 265 786 l 79 1008 l 171 1079 l 342 844 l 265 786 z "},"a":{"ha":758,"x_min":75,"x_max":650,"o":"m 650 0 l 529 0 l 529 74 q 321 -17 449 -17 q 146 36 217 -17 q 75 194 75 89 q 122 332 75 278 q 235 406 169 386 q 385 425 301 425 q 524 410 450 425 l 524 435 q 360 601 524 601 q 139 540 250 601 l 101 646 q 375 711 238 711 q 585 637 521 711 q 650 422 650 563 l 650 0 m 524 172 l 524 315 q 399 329 460 329 q 199 204 199 329 q 237 117 199 144 q 336 89 275 89 q 524 172 425 89 z "},"b":{"ha":869,"x_min":117,"x_max":811,"o":"m 117 1042 l 243 1042 l 243 601 q 339 683 279 654 q 464 711 399 711 q 712 606 613 711 q 811 346 811 500 q 713 92 811 201 q 461 -17 614 -17 q 243 75 332 -17 l 243 0 l 117 0 l 117 1042 m 243 463 l 243 206 q 333 128 278 156 q 444 100 389 100 q 619 175 557 100 q 682 349 682 250 q 617 522 682 450 q 447 594 551 594 q 327 559 386 594 q 243 463 268 524 z "},"c":{"ha":660,"x_min":58,"x_max":626,"o":"m 564 149 l 626 51 q 414 -17 543 -17 q 160 85 263 -17 q 58 347 58 186 q 164 606 58 500 q 421 711 269 711 q 617 651 528 711 l 557 547 q 415 594 494 594 q 254 522 321 594 q 188 347 188 450 q 255 169 188 238 q 417 100 322 100 q 564 149 499 100 z "},"d":{"ha":869,"x_min":58,"x_max":753,"o":"m 406 -17 q 158 89 257 -17 q 58 347 58 194 q 156 601 58 492 q 408 711 254 711 q 626 618 536 711 l 626 1042 l 753 1042 l 753 0 l 626 0 l 626 93 q 531 12 590 40 q 406 -17 471 -17 m 422 100 q 541 135 482 100 q 626 231 600 171 l 626 489 q 536 567 592 539 q 425 594 481 594 q 249 519 311 594 q 188 344 188 444 q 253 172 188 244 q 422 100 318 100 z "},"e":{"ha":778,"x_min":58,"x_max":719,"o":"m 714 315 l 185 315 q 252 156 192 221 q 408 92 313 92 q 615 204 556 92 l 707 146 q 403 -17 606 -17 q 150 86 242 -17 q 58 347 58 189 q 158 606 58 501 q 403 711 257 711 q 630 619 540 711 q 719 388 719 528 q 714 315 719 351 m 404 603 q 269 551 324 603 q 194 417 214 499 l 589 417 q 533 548 585 493 q 404 603 481 603 z "},"f":{"ha":468,"x_min":64,"x_max":508,"o":"m 508 1028 l 472 922 q 386 942 431 942 q 306 919 335 942 q 269 782 269 890 l 269 694 l 457 694 l 457 583 l 269 583 l 269 0 l 143 0 l 143 583 l 64 583 l 64 694 l 143 694 l 143 794 q 186 976 143 911 q 371 1058 242 1058 q 508 1028 435 1058 z "},"g":{"ha":861,"x_min":58,"x_max":753,"o":"m 753 694 l 753 39 q 717 -143 753 -72 q 403 -308 631 -308 q 96 -217 221 -308 l 144 -108 q 265 -168 194 -144 q 400 -192 336 -192 q 563 -141 499 -192 q 626 14 626 -90 l 626 110 q 530 28 590 57 q 404 0 469 0 q 158 103 257 0 q 58 356 58 206 q 156 605 58 499 q 408 711 254 711 q 626 618 536 711 l 626 694 l 753 694 m 626 246 l 626 489 q 536 567 592 539 q 425 594 481 594 q 249 522 311 594 q 188 353 188 450 q 253 186 188 256 q 421 117 318 117 q 540 151 481 117 q 626 246 600 186 z "},"h":{"ha":842,"x_min":117,"x_max":733,"o":"m 243 1042 l 243 581 q 469 711 325 711 q 671 624 606 711 q 733 361 733 539 l 733 0 l 607 0 l 607 347 q 571 539 607 485 q 450 594 533 594 q 337 558 392 594 q 243 461 282 521 l 243 0 l 117 0 l 117 1042 l 243 1042 z "},"i":{"ha":360,"x_min":117,"x_max":243,"o":"m 243 0 l 117 0 l 117 694 l 243 694 l 243 0 m 243 831 l 117 831 l 117 972 l 243 972 l 243 831 z "},"j":{"ha":371,"x_min":-83,"x_max":254,"o":"m 254 831 l 128 831 l 128 972 l 254 972 l 254 831 m 254 694 l 254 -61 q 235 -193 254 -143 q 50 -308 190 -308 q -83 -278 -28 -308 l -47 -175 q 31 -194 -11 -194 q 110 -156 92 -194 q 128 -36 128 -117 l 128 694 l 254 694 z "},"k":{"ha":714,"x_min":117,"x_max":706,"o":"m 706 0 l 551 0 l 353 311 l 243 183 l 243 0 l 117 0 l 117 1042 l 243 1042 l 243 347 l 246 346 l 526 694 l 682 694 l 439 411 l 706 0 z "},"l":{"ha":360,"x_min":117,"x_max":243,"o":"m 243 1042 l 243 0 l 117 0 l 117 1042 l 243 1042 z "},"m":{"ha":1276,"x_min":117,"x_max":1168,"o":"m 1168 0 l 1042 0 l 1042 347 q 1008 539 1042 486 q 889 594 971 594 q 788 563 840 594 q 697 479 736 531 q 706 361 706 428 l 706 0 l 579 0 l 579 347 q 542 546 579 493 q 435 594 507 594 q 333 557 385 594 q 243 467 281 519 l 243 0 l 117 0 l 117 694 l 243 694 l 243 589 q 342 678 282 644 q 461 711 401 711 q 654 615 592 711 q 671 583 661 606 q 913 711 761 711 q 1104 629 1042 711 q 1168 361 1168 546 l 1168 0 z "},"n":{"ha":842,"x_min":117,"x_max":733,"o":"m 117 694 l 243 694 l 243 581 q 469 711 325 711 q 671 624 606 711 q 733 361 733 539 l 733 0 l 607 0 l 607 347 q 571 539 607 485 q 450 594 533 594 q 337 558 392 594 q 243 461 282 521 l 243 0 l 117 0 l 117 694 z "},"o":{"ha":825,"x_min":58,"x_max":767,"o":"m 160 606 q 210 658 160 606 q 413 711 261 711 q 665 606 564 711 q 767 347 767 500 q 665 89 767 194 q 413 -17 564 -17 q 160 89 261 -17 q 58 347 58 194 q 160 606 58 500 m 574 172 q 606 208 574 172 q 638 347 638 244 q 574 522 638 450 q 413 594 510 594 q 251 522 315 594 q 188 347 188 450 q 251 172 188 244 q 413 100 315 100 q 574 172 510 100 z "},"p":{"ha":869,"x_min":117,"x_max":811,"o":"m 117 694 l 243 694 l 243 601 q 339 683 279 654 q 464 711 399 711 q 712 606 613 711 q 811 346 811 500 q 713 92 811 201 q 461 -17 614 -17 q 243 75 332 -17 l 243 -347 l 117 -347 l 117 694 m 243 463 l 243 206 q 333 128 278 156 q 444 100 389 100 q 619 175 557 100 q 682 349 682 250 q 617 522 682 450 q 447 594 551 594 q 327 559 386 594 q 243 463 268 524 z "},"q":{"ha":869,"x_min":58,"x_max":753,"o":"m 753 694 l 753 -347 l 626 -347 l 626 93 q 531 12 590 40 q 406 -17 471 -17 q 158 89 257 -17 q 58 347 58 194 q 156 601 58 492 q 408 711 254 711 q 626 618 536 711 l 626 694 l 753 694 m 626 231 l 626 489 q 536 567 592 539 q 425 594 481 594 q 249 519 311 594 q 188 344 188 444 q 253 172 188 244 q 422 100 318 100 q 541 135 482 100 q 626 231 600 171 z "},"r":{"ha":496,"x_min":117,"x_max":497,"o":"m 243 694 l 243 579 q 422 711 317 711 q 497 703 458 711 l 474 568 q 408 582 444 582 q 243 465 310 582 l 243 0 l 117 0 l 117 694 l 243 694 z "},"s":{"ha":626,"x_min":60,"x_max":550,"o":"m 531 635 l 456 554 q 318 606 396 606 q 242 581 271 606 q 214 514 214 556 q 236 468 214 489 q 281 437 258 447 q 347 408 303 426 q 418 377 389 392 q 481 338 447 363 q 533 279 515 314 q 550 201 550 244 q 478 38 550 92 q 299 -17 406 -17 q 60 92 143 -17 l 149 163 q 300 89 218 89 q 390 117 354 89 q 425 196 425 144 q 403 242 425 221 q 360 274 382 264 q 292 303 338 285 q 219 333 243 322 q 160 369 196 344 q 109 426 125 393 q 93 504 93 460 q 158 658 93 604 q 317 711 224 711 q 531 635 446 711 z "},"t":{"ha":481,"x_min":31,"x_max":461,"o":"m 444 583 l 250 583 l 250 269 q 251 215 250 236 q 276 128 254 157 q 349 99 299 99 q 426 118 388 99 l 461 17 q 332 -14 403 -14 q 146 94 194 -14 q 124 239 124 146 l 124 583 l 31 583 l 31 694 l 124 694 l 124 861 l 250 861 l 250 694 l 444 694 l 444 583 z "},"u":{"ha":842,"x_min":108,"x_max":725,"o":"m 599 0 l 599 114 q 372 -17 517 -17 q 171 71 236 -17 q 108 333 108 156 l 108 694 l 235 694 l 235 347 q 271 156 235 210 q 392 100 308 100 q 505 137 450 100 q 599 233 560 174 l 599 694 l 725 694 l 725 0 l 599 0 z "},"v":{"ha":665,"x_min":11,"x_max":657,"o":"m 522 694 l 657 694 l 388 0 l 274 0 l 11 694 l 151 694 l 336 157 l 339 157 l 522 694 z "},"w":{"ha":1018,"x_min":22,"x_max":996,"o":"m 582 694 l 722 160 l 726 160 l 868 694 l 996 694 l 796 0 l 660 0 l 511 540 l 508 540 l 356 0 l 214 0 l 22 694 l 158 694 l 289 160 l 292 160 l 446 694 l 582 694 z "},"x":{"ha":681,"x_min":8,"x_max":672,"o":"m 667 694 l 421 357 l 672 0 l 511 0 l 338 258 l 164 0 l 8 0 l 264 346 l 22 694 l 182 694 l 349 447 l 514 694 l 667 694 z "},"y":{"ha":663,"x_min":8,"x_max":654,"o":"m 8 694 l 149 694 l 329 168 l 332 168 l 517 694 l 654 694 l 264 -312 l 153 -269 l 263 21 l 8 694 z "},"z":{"ha":631,"x_min":67,"x_max":581,"o":"m 82 57 l 389 583 l 67 583 l 67 694 l 557 694 l 557 639 l 250 111 l 581 111 l 581 0 l 82 0 l 82 57 z "},"{":{"ha":432,"x_min":13,"x_max":417,"o":"m 13 361 l 15 475 q 125 678 125 500 l 125 782 q 194 981 125 904 q 376 1058 264 1058 q 417 1057 403 1058 l 417 947 q 382 950 392 950 q 273 893 307 950 q 239 744 239 836 l 239 640 q 146 418 239 496 q 239 196 239 339 l 239 61 q 273 -87 239 -31 q 382 -144 307 -144 q 417 -142 394 -144 l 417 -251 q 376 -253 403 -253 q 194 -176 264 -253 q 125 24 125 -99 l 125 175 q 97 299 125 249 q 13 361 68 350 z "},"|":{"ha":442,"x_min":167,"x_max":275,"o":"m 275 -236 l 167 -236 l 167 1192 l 275 1192 l 275 -236 z "},"}":{"ha":432,"x_min":14,"x_max":418,"o":"m 415 475 l 418 361 q 334 299 363 350 q 306 175 306 249 l 306 24 q 236 -176 306 -99 q 54 -253 167 -253 q 14 -251 28 -253 l 14 -142 q 49 -144 36 -144 q 158 -87 124 -144 q 192 61 192 -31 l 192 196 q 285 418 192 339 q 192 640 192 496 l 192 744 q 158 893 192 836 q 49 950 124 950 q 14 947 39 950 l 14 1057 q 54 1058 28 1058 q 236 981 167 1058 q 306 782 306 904 l 306 678 q 415 475 306 500 z "},"~":{"ha":764,"x_min":44,"x_max":721,"o":"m 613 540 l 718 551 q 721 507 721 529 q 668 383 721 429 q 532 338 615 338 q 415 369 472 338 q 311 431 358 400 q 226 463 264 463 q 174 444 197 463 q 150 399 150 426 q 153 375 150 383 l 47 364 q 44 408 44 386 q 97 532 44 486 q 233 578 150 578 q 328 558 281 578 q 406 515 375 539 q 472 472 436 492 q 539 453 508 453 q 591 472 567 453 q 615 517 615 490 q 613 540 615 532 z "}," ":{"ha":347,"x_min":0,"x_max":0,"o":""},"¡":{"ha":440,"x_min":144,"x_max":296,"o":"m 144 -278 l 144 -124 l 158 403 l 282 403 l 296 -124 l 296 -278 l 144 -278 m 147 694 l 293 694 l 293 533 l 147 533 l 147 694 z "},"¢":{"ha":764,"x_min":106,"x_max":674,"o":"m 611 240 l 674 143 q 493 76 600 85 l 493 -44 l 404 -44 l 404 79 q 190 196 274 99 q 106 439 106 293 q 190 674 106 574 q 404 797 274 774 l 404 922 l 493 922 l 493 801 q 664 743 586 796 l 604 639 q 463 686 542 686 q 301 614 368 686 q 235 439 235 542 q 302 260 235 329 q 464 192 369 192 q 611 240 546 192 z "},"£":{"ha":764,"x_min":111,"x_max":675,"o":"m 675 0 l 111 0 l 111 119 l 190 119 l 190 439 l 111 439 l 111 556 l 190 556 l 190 631 q 269 852 190 765 q 471 939 349 939 q 675 888 592 939 l 621 779 q 476 822 572 822 q 317 593 317 822 l 317 556 l 504 556 l 504 439 l 317 439 l 317 119 l 675 119 l 675 0 z "},"¤":{"ha":764,"x_min":65,"x_max":699,"o":"m 82 451 q 138 625 82 544 l 65 697 l 136 768 l 208 696 q 382 751 286 751 q 556 696 475 751 l 628 768 l 699 697 l 626 625 q 682 451 682 544 q 626 278 682 356 l 699 206 l 628 135 l 556 207 q 382 151 475 151 q 208 207 286 151 l 136 135 l 65 206 l 138 278 q 82 451 82 356 m 247 587 q 218 559 247 587 q 190 451 190 531 q 247 316 190 372 q 382 260 303 260 q 517 316 461 260 q 574 451 574 372 q 517 587 574 531 q 382 643 461 643 q 247 587 303 643 z "},"¥":{"ha":764,"x_min":24,"x_max":739,"o":"m 76 356 l 76 458 l 283 458 l 24 922 l 174 922 l 385 535 l 388 535 l 592 922 l 739 922 l 475 458 l 681 458 l 681 356 l 444 356 l 444 267 l 681 267 l 681 164 l 442 164 l 442 0 l 315 0 l 315 164 l 76 164 l 76 267 l 313 267 l 313 356 l 76 356 z "},"¦":{"ha":442,"x_min":167,"x_max":275,"o":"m 275 -278 l 167 -278 l 167 243 l 275 243 l 275 -278 m 275 521 l 167 521 l 167 1042 l 275 1042 l 275 521 z "},"§":{"ha":764,"x_min":71,"x_max":693,"o":"m 619 919 l 551 832 q 368 883 467 883 q 269 858 313 883 q 225 782 225 832 q 231 751 225 765 q 253 724 238 736 q 280 703 268 713 q 319 684 292 694 q 362 668 347 674 q 411 651 376 663 q 460 636 446 640 q 547 603 511 619 q 619 560 582 586 q 674 494 656 533 q 693 407 693 456 q 656 296 693 347 q 558 215 618 244 q 667 47 667 157 q 583 -134 667 -74 q 368 -194 500 -194 q 71 -90 183 -194 l 146 -1 q 368 -89 243 -89 q 488 -56 439 -89 q 538 33 538 -24 q 500 101 538 75 q 390 149 463 126 q 339 164 378 153 q 283 181 300 175 q 231 199 265 186 q 179 223 196 213 q 138 251 163 233 q 102 288 114 269 q 81 333 90 307 q 72 390 72 360 q 109 515 72 461 q 210 594 146 568 q 104 765 104 657 q 183 931 104 874 q 374 989 261 989 q 619 919 515 989 m 453 258 q 531 313 499 276 q 564 392 564 349 q 558 427 564 411 q 535 457 551 443 q 506 480 519 471 q 465 500 493 489 q 422 517 438 511 q 370 533 406 522 q 319 549 335 544 q 234 495 267 532 q 201 417 201 458 q 208 379 201 396 q 231 349 215 363 q 261 325 247 335 q 303 305 275 315 q 349 289 332 294 q 401 274 365 283 q 453 258 438 264 z "},"¨":{"ha":500,"x_min":44,"x_max":456,"o":"m 174 831 l 44 831 l 44 972 l 174 972 l 174 831 m 456 831 l 326 831 l 326 972 l 456 972 l 456 831 z "},"©":{"ha":1110,"x_min":76,"x_max":1035,"o":"m 217 124 q 147 194 217 124 q 76 463 76 264 q 217 801 76 661 q 556 942 357 942 q 894 801 754 942 q 1035 463 1035 661 q 894 124 1035 264 q 556 -17 754 -17 q 217 124 357 -17 m 291 728 q 236 673 291 728 q 182 463 182 618 q 291 197 182 307 q 556 86 400 86 q 820 197 711 86 q 929 463 929 307 q 820 728 929 618 q 556 839 711 839 q 291 728 400 839 m 407 463 q 451 341 407 385 q 565 297 494 297 q 667 332 619 297 l 719 251 q 569 203 646 203 q 377 274 456 203 q 299 463 299 346 q 377 647 299 572 q 569 721 456 721 q 710 679 644 721 l 661 599 q 565 626 608 626 q 451 581 496 626 q 407 463 407 535 z "},"ª":{"ha":529,"x_min":53,"x_max":453,"o":"m 353 815 l 353 829 q 249 935 353 935 q 101 894 176 935 l 72 974 q 264 1019 172 1019 q 453 821 453 1019 l 453 536 l 363 536 l 357 583 q 222 525 308 525 q 102 563 151 525 q 53 671 53 601 q 113 790 53 753 q 263 826 174 826 q 353 815 303 826 m 353 747 q 276 757 310 757 q 151 676 151 757 q 176 622 151 640 q 239 604 200 604 q 353 654 293 604 l 353 747 z "},"«":{"ha":736,"x_min":83,"x_max":653,"o":"m 390 461 l 592 669 l 653 547 l 476 378 l 653 210 l 592 88 l 390 296 l 390 461 m 83 461 l 285 669 l 346 547 l 169 378 l 346 210 l 285 88 l 83 296 l 83 461 z "},"¬":{"ha":764,"x_min":33,"x_max":729,"o":"m 33 583 l 729 583 l 729 181 l 621 181 l 621 475 l 33 475 l 33 583 z "},"­":{"ha":639,"x_min":139,"x_max":500,"o":"m 500 331 l 139 331 l 139 444 l 500 444 l 500 331 z "},"®":{"ha":799,"x_min":76,"x_max":722,"o":"m 76 672 q 171 901 76 807 q 399 996 265 996 q 628 901 533 996 q 722 672 722 807 q 628 444 722 539 q 399 350 533 350 q 171 444 265 350 q 76 672 76 539 m 160 672 q 230 502 160 574 q 399 431 300 431 q 569 501 499 431 q 639 672 639 572 q 569 844 639 774 q 399 915 499 915 q 230 844 300 915 q 160 672 160 774 m 554 504 l 463 504 l 372 631 l 354 631 l 354 504 l 279 504 l 279 839 l 361 839 q 482 815 444 839 q 519 738 519 790 q 453 642 519 667 l 554 504 m 421 700 q 431 704 421 700 q 442 735 442 708 q 424 769 442 761 q 354 778 407 778 l 354 692 q 421 700 400 692 z "},"¯":{"ha":500,"x_min":44,"x_max":456,"o":"m 456 844 l 44 844 l 44 942 l 456 942 l 456 844 z "},"°":{"ha":642,"x_min":111,"x_max":531,"o":"m 239 838 q 222 820 239 838 q 206 754 206 803 q 239 672 206 706 q 319 638 272 638 q 401 672 367 638 q 436 754 436 706 q 401 838 436 803 q 319 874 367 874 q 239 838 272 874 m 111 754 q 172 901 111 839 q 319 963 233 963 q 467 901 404 963 q 531 754 531 839 q 467 608 531 668 q 319 549 404 549 q 172 608 233 549 q 111 754 111 668 z "},"±":{"ha":764,"x_min":35,"x_max":729,"o":"m 35 108 l 729 108 l 729 0 l 35 0 l 35 108 m 436 876 l 436 583 l 729 583 l 729 475 l 436 475 l 436 183 l 328 183 l 328 475 l 35 475 l 35 583 l 328 583 l 328 876 l 436 876 z "},"²":{"ha":443,"x_min":40,"x_max":415,"o":"m 53 590 q 243 818 163 704 q 288 925 288 879 q 266 972 288 954 q 214 990 244 990 q 161 968 182 990 q 140 910 140 946 l 40 926 q 98 1035 46 993 q 217 1076 150 1076 q 338 1035 286 1076 q 390 926 390 993 q 333 772 390 854 q 186 596 283 701 l 415 596 l 415 510 l 53 510 l 53 590 z "},"³":{"ha":443,"x_min":24,"x_max":400,"o":"m 136 750 l 136 839 q 207 847 188 842 q 254 874 236 854 q 272 919 272 893 q 250 970 272 950 q 193 990 228 990 q 114 932 129 990 l 31 968 q 91 1047 47 1018 q 193 1076 135 1076 q 322 1035 269 1076 q 374 928 374 994 q 355 859 374 892 q 306 810 336 826 q 374 758 347 794 q 400 674 400 721 q 344 549 400 594 q 207 503 289 503 q 98 530 149 503 q 24 608 47 557 l 106 649 q 206 589 136 589 q 270 610 243 589 q 297 669 297 631 q 267 733 297 710 q 189 756 236 756 q 136 750 157 756 z "},"´":{"ha":500,"x_min":158,"x_max":421,"o":"m 421 1008 l 235 786 l 158 844 l 329 1079 l 421 1008 z "},"µ":{"ha":764,"x_min":74,"x_max":690,"o":"m 564 0 l 564 114 q 338 -17 482 -17 q 200 14 257 -17 l 200 -347 l 74 -347 l 74 694 l 200 694 l 200 347 q 201 277 200 304 q 212 213 203 250 q 236 153 221 175 q 283 116 251 132 q 357 100 314 100 q 470 137 415 100 q 564 233 525 174 l 564 694 l 690 694 l 690 0 l 564 0 z "},"¶":{"ha":764,"x_min":58,"x_max":692,"o":"m 692 -243 l 558 -243 l 558 972 l 692 972 l 692 -243 m 479 -243 l 346 -243 l 346 392 q 142 478 225 406 q 58 682 58 550 q 90 817 58 758 q 172 908 121 875 q 281 956 222 940 q 401 972 339 972 l 479 972 l 479 -243 m 236 799 q 214 778 236 799 q 192 682 192 757 q 236 565 192 607 q 346 515 281 522 l 346 850 q 236 799 281 842 z "},"·":{"ha":347,"x_min":100,"x_max":246,"o":"m 246 360 l 100 360 l 100 521 l 246 521 l 246 360 z "},"¸":{"ha":500,"x_min":103,"x_max":397,"o":"m 242 -1 l 208 -90 l 210 -92 q 276 -69 240 -69 q 361 -106 325 -69 q 397 -199 397 -143 q 353 -298 397 -256 q 246 -340 310 -340 q 103 -258 149 -340 l 182 -219 q 246 -264 199 -264 q 289 -246 272 -264 q 306 -203 306 -228 q 288 -156 306 -175 q 243 -137 271 -137 q 189 -171 203 -137 l 104 -126 l 163 14 l 242 -1 z "},"¹":{"ha":300,"x_min":44,"x_max":225,"o":"m 225 510 l 125 510 l 125 953 q 44 917 111 946 l 44 1008 q 160 1069 103 1040 l 225 1069 l 225 510 z "},"º":{"ha":569,"x_min":42,"x_max":528,"o":"m 111 948 q 146 984 111 948 q 285 1019 181 1019 q 458 948 389 1019 q 528 772 528 876 q 458 597 528 668 q 285 525 389 525 q 111 597 181 525 q 42 772 42 668 q 111 948 42 876 m 385 660 q 405 683 385 660 q 425 772 425 706 q 385 884 425 839 q 285 929 346 929 q 184 884 224 929 q 144 772 144 839 q 184 660 144 706 q 285 615 224 615 q 385 660 346 615 z "},"»":{"ha":736,"x_min":83,"x_max":653,"o":"m 144 654 l 346 460 l 346 294 l 144 100 l 83 208 l 260 376 l 83 546 l 144 654 m 451 654 l 653 460 l 653 294 l 451 100 l 390 208 l 567 376 l 390 546 l 451 654 z "},"¼":{"ha":1035,"x_min":111,"x_max":924,"o":"m 801 989 l 878 933 l 188 -17 l 111 39 l 801 989 m 311 469 l 215 469 l 215 863 q 142 831 179 846 l 142 917 q 186 940 144 918 q 249 972 228 961 l 311 972 l 311 469 m 540 208 q 754 499 649 350 l 851 499 l 851 203 l 924 203 l 924 124 l 851 124 l 851 0 l 757 0 l 757 124 l 540 124 l 540 208 m 757 203 l 757 372 q 642 203 647 211 l 757 203 z "},"½":{"ha":1069,"x_min":111,"x_max":958,"o":"m 801 989 l 878 933 l 188 -17 l 111 39 l 801 989 m 311 469 l 215 469 l 215 863 q 142 831 179 846 l 142 917 q 186 940 144 918 q 249 972 228 961 l 311 972 l 311 469 m 625 74 q 799 278 725 176 q 838 371 838 331 q 819 411 838 396 q 774 426 801 426 q 728 407 746 426 q 710 354 710 388 l 614 371 q 666 470 618 432 q 778 508 714 508 q 890 470 842 508 q 938 371 938 432 q 883 233 938 311 q 754 81 839 169 l 958 81 l 958 0 l 625 0 l 625 74 z "},"¾":{"ha":1128,"x_min":111,"x_max":1017,"o":"m 894 989 l 971 933 l 281 -17 l 204 39 l 894 989 m 218 686 l 218 769 q 281 775 260 769 q 338 840 338 790 q 318 883 338 867 q 267 900 299 900 q 200 847 213 900 l 118 883 q 176 956 135 929 q 268 982 217 982 q 386 944 338 982 q 435 847 435 907 q 417 786 435 815 q 372 742 400 757 q 435 694 411 728 q 458 618 458 661 q 407 507 458 549 q 281 465 356 465 q 181 490 226 465 q 111 564 135 515 l 192 601 q 281 546 217 546 q 337 565 314 546 q 360 617 360 583 q 333 671 360 651 q 263 690 306 690 q 218 686 235 690 m 633 208 q 847 499 742 350 l 944 499 l 944 203 l 1017 203 l 1017 124 l 944 124 l 944 0 l 850 0 l 850 124 l 633 124 l 633 208 m 850 203 l 850 372 q 735 203 740 211 l 850 203 z "},"¿":{"ha":751,"x_min":101,"x_max":649,"o":"m 315 404 l 450 404 l 450 174 q 367 142 400 157 q 299 103 335 128 q 246 43 264 78 q 228 -37 228 8 q 269 -137 228 -96 q 374 -179 311 -179 q 482 -137 442 -179 q 522 -24 522 -96 l 522 -12 l 649 -12 l 649 -18 q 567 -215 649 -137 q 374 -293 486 -293 q 180 -215 258 -293 q 101 -42 101 -137 q 158 138 101 75 q 315 246 215 200 l 315 404 m 310 696 l 456 696 l 456 535 l 310 535 l 310 696 z "},"À":{"ha":907,"x_min":21,"x_max":886,"o":"m 886 0 l 732 0 l 656 207 l 242 207 l 167 0 l 21 0 l 397 972 l 514 972 l 886 0 m 449 769 l 286 326 l 613 326 l 450 769 l 449 769 m 488 1028 l 244 1203 l 317 1294 l 546 1103 l 488 1028 z "},"Á":{"ha":907,"x_min":21,"x_max":886,"o":"m 886 0 l 732 0 l 656 207 l 242 207 l 167 0 l 21 0 l 397 972 l 514 972 l 886 0 m 449 769 l 286 326 l 613 326 l 450 769 l 449 769 m 667 1203 l 424 1028 l 365 1103 l 594 1294 l 667 1203 z "},"Â":{"ha":907,"x_min":21,"x_max":886,"o":"m 886 0 l 732 0 l 656 207 l 242 207 l 167 0 l 21 0 l 397 972 l 514 972 l 886 0 m 449 769 l 286 326 l 613 326 l 450 769 l 449 769 m 389 1281 l 521 1281 l 669 1094 l 594 1036 l 453 1197 l 313 1036 l 236 1094 l 389 1281 z "},"Ã":{"ha":907,"x_min":21,"x_max":886,"o":"m 886 0 l 732 0 l 656 207 l 242 207 l 167 0 l 21 0 l 397 972 l 514 972 l 886 0 m 449 769 l 286 326 l 613 326 l 450 769 l 449 769 m 622 1203 l 713 1213 q 715 1175 715 1196 q 677 1079 715 1115 q 579 1043 639 1043 q 499 1065 538 1043 q 430 1110 461 1088 q 374 1132 399 1132 q 328 1090 331 1132 q 329 1076 328 1081 l 239 1067 q 236 1104 236 1083 q 274 1200 236 1164 q 372 1236 313 1236 q 488 1192 424 1236 q 578 1147 551 1147 q 624 1189 621 1147 q 622 1203 624 1199 z "},"Ä":{"ha":907,"x_min":21,"x_max":886,"o":"m 886 0 l 732 0 l 656 207 l 242 207 l 167 0 l 21 0 l 397 972 l 514 972 l 886 0 m 449 769 l 286 326 l 613 326 l 450 769 l 449 769 m 338 1061 l 196 1061 l 196 1215 l 338 1215 l 338 1061 m 713 1061 l 571 1061 l 571 1215 l 713 1215 l 713 1061 z "},"Å":{"ha":907,"x_min":21,"x_max":886,"o":"m 886 0 l 732 0 l 656 207 l 242 207 l 167 0 l 21 0 l 397 972 l 514 972 l 886 0 m 449 769 l 286 326 l 613 326 l 450 769 l 449 769 m 366 1047 q 347 1066 366 1047 q 328 1138 328 1085 q 366 1228 328 1190 q 457 1267 404 1267 q 548 1228 510 1267 q 586 1138 586 1190 q 548 1047 586 1085 q 457 1008 510 1008 q 366 1047 404 1008 m 414 1181 q 405 1172 414 1181 q 396 1138 396 1163 q 414 1094 396 1113 q 457 1076 432 1076 q 500 1094 482 1076 q 518 1138 518 1113 q 500 1181 518 1163 q 457 1199 482 1199 q 414 1181 432 1199 z "},"Æ":{"ha":1369,"x_min":-14,"x_max":1279,"o":"m 1279 0 l 696 0 l 696 207 l 299 207 l 153 0 l -14 0 l 697 972 l 1279 972 l 1279 853 l 829 853 l 829 561 l 1279 561 l 1279 442 l 829 442 l 829 119 l 1279 119 l 1279 0 m 382 326 l 696 326 l 696 772 l 382 326 z "},"Ç":{"ha":936,"x_min":83,"x_max":892,"o":"m 867 914 l 804 811 q 606 869 710 869 q 333 761 440 869 q 225 486 225 653 q 331 207 225 311 q 606 103 436 103 q 821 171 719 103 l 892 72 q 606 -17 761 -17 q 525 -11 560 -17 l 492 -90 l 494 -92 q 561 -69 519 -69 q 649 -107 615 -69 q 682 -199 682 -144 q 638 -298 682 -256 q 531 -340 594 -340 q 388 -258 433 -340 l 467 -219 q 531 -264 483 -264 q 574 -246 557 -264 q 590 -203 590 -228 q 574 -157 590 -176 q 531 -137 558 -137 q 474 -171 492 -137 l 388 -125 l 447 4 q 183 176 283 49 q 83 486 83 304 q 235 844 83 700 q 606 989 388 989 q 867 914 746 989 z "},"È":{"ha":806,"x_min":132,"x_max":715,"o":"m 715 0 l 132 0 l 132 972 l 715 972 l 715 853 l 265 853 l 265 561 l 715 561 l 715 442 l 265 442 l 265 119 l 715 119 l 715 0 m 478 1028 l 235 1203 l 307 1294 l 536 1103 l 478 1028 z "},"É":{"ha":806,"x_min":132,"x_max":715,"o":"m 715 0 l 132 0 l 132 972 l 715 972 l 715 853 l 265 853 l 265 561 l 715 561 l 715 442 l 265 442 l 265 119 l 715 119 l 715 0 m 621 1203 l 378 1028 l 319 1103 l 549 1294 l 621 1203 z "},"Ê":{"ha":806,"x_min":132,"x_max":715,"o":"m 715 0 l 132 0 l 132 972 l 715 972 l 715 853 l 265 853 l 265 561 l 715 561 l 715 442 l 265 442 l 265 119 l 715 119 l 715 0 m 367 1281 l 499 1281 l 647 1094 l 572 1036 l 431 1197 l 290 1036 l 214 1094 l 367 1281 z "},"Ë":{"ha":806,"x_min":132,"x_max":715,"o":"m 344 1061 l 206 1061 l 206 1215 l 344 1215 l 344 1061 m 664 1061 l 525 1061 l 525 1215 l 664 1215 l 664 1061 m 715 0 l 132 0 l 132 972 l 715 972 l 715 853 l 265 853 l 265 561 l 715 561 l 715 442 l 265 442 l 265 119 l 715 119 l 715 0 z "},"Ì":{"ha":397,"x_min":-10,"x_max":292,"o":"m 265 0 l 132 0 l 132 972 l 265 972 l 265 0 m 233 1028 l -10 1203 l 63 1294 l 292 1103 l 233 1028 z "},"Í":{"ha":397,"x_min":111,"x_max":413,"o":"m 265 0 l 132 0 l 132 972 l 265 972 l 265 0 m 413 1203 l 169 1028 l 111 1103 l 340 1294 l 413 1203 z "},"Î":{"ha":397,"x_min":-18,"x_max":415,"o":"m 265 0 l 132 0 l 132 972 l 265 972 l 265 0 m 135 1281 l 267 1281 l 415 1094 l 340 1036 l 199 1197 l 58 1036 l -18 1094 l 135 1281 z "},"Ï":{"ha":397,"x_min":-31,"x_max":428,"o":"m 111 1061 l -31 1061 l -31 1215 l 111 1215 l 111 1061 m 428 1061 l 286 1061 l 286 1215 l 428 1215 l 428 1061 m 265 0 l 132 0 l 132 972 l 265 972 l 265 0 z "},"Ð":{"ha":1000,"x_min":35,"x_max":917,"o":"m 917 490 q 871 263 917 361 q 747 110 825 165 q 576 27 668 54 q 381 0 485 0 l 132 0 l 132 446 l 35 446 l 35 556 l 132 556 l 132 972 l 394 972 q 544 956 471 972 q 685 903 617 940 q 804 813 753 867 q 886 675 856 758 q 917 490 917 592 m 775 478 q 669 756 775 660 q 369 853 563 853 l 265 853 l 265 556 l 432 556 l 432 446 l 265 446 l 265 119 l 311 119 q 655 202 535 119 q 775 478 775 285 z "},"Ñ":{"ha":1049,"x_min":132,"x_max":917,"o":"m 917 0 l 799 0 l 265 725 l 265 0 l 132 0 l 132 972 l 249 972 l 783 247 l 783 972 l 917 972 l 917 0 m 682 1203 l 772 1213 q 775 1175 775 1196 q 737 1079 775 1115 q 639 1043 699 1043 q 559 1065 597 1043 q 490 1110 521 1088 q 433 1132 458 1132 q 388 1090 390 1132 q 389 1076 388 1081 l 299 1067 q 296 1104 296 1083 q 334 1200 296 1164 q 432 1236 372 1236 q 547 1192 483 1236 q 638 1147 611 1147 q 683 1189 681 1147 q 682 1203 683 1199 z "},"Ò":{"ha":1167,"x_min":83,"x_max":1083,"o":"m 840 213 q 891 268 840 213 q 942 486 942 324 q 840 759 942 649 q 583 869 738 869 q 327 759 429 869 q 225 486 225 649 q 327 213 225 324 q 583 103 429 103 q 840 213 738 103 m 939 842 q 1011 769 939 842 q 1083 486 1083 696 q 939 130 1083 276 q 583 -17 794 -17 q 228 130 372 -17 q 83 486 83 276 q 228 842 83 696 q 583 989 372 989 q 939 842 794 989 m 618 1028 l 375 1203 l 447 1294 l 676 1103 l 618 1028 z "},"Ó":{"ha":1167,"x_min":83,"x_max":1083,"o":"m 840 213 q 891 268 840 213 q 942 486 942 324 q 840 759 942 649 q 583 869 738 869 q 327 759 429 869 q 225 486 225 649 q 327 213 225 324 q 583 103 429 103 q 840 213 738 103 m 939 842 q 1011 769 939 842 q 1083 486 1083 696 q 939 130 1083 276 q 583 -17 794 -17 q 228 130 372 -17 q 83 486 83 276 q 228 842 83 696 q 583 989 372 989 q 939 842 794 989 m 797 1203 l 554 1028 l 496 1103 l 725 1294 l 797 1203 z "},"Ô":{"ha":1167,"x_min":83,"x_max":1083,"o":"m 840 213 q 891 268 840 213 q 942 486 942 324 q 840 759 942 649 q 583 869 738 869 q 327 759 429 869 q 225 486 225 649 q 327 213 225 324 q 583 103 429 103 q 840 213 738 103 m 939 842 q 1011 769 939 842 q 1083 486 1083 696 q 939 130 1083 276 q 583 -17 794 -17 q 228 130 372 -17 q 83 486 83 276 q 228 842 83 696 q 583 989 372 989 q 939 842 794 989 m 517 1281 l 649 1281 l 797 1094 l 722 1036 l 581 1197 l 440 1036 l 364 1094 l 517 1281 z "},"Õ":{"ha":1167,"x_min":83,"x_max":1083,"o":"m 840 213 q 891 268 840 213 q 942 486 942 324 q 840 759 942 649 q 583 869 738 869 q 327 759 429 869 q 225 486 225 649 q 327 213 225 324 q 583 103 429 103 q 840 213 738 103 m 939 842 q 1011 769 939 842 q 1083 486 1083 696 q 939 130 1083 276 q 583 -17 794 -17 q 228 130 372 -17 q 83 486 83 276 q 228 842 83 696 q 583 989 372 989 q 939 842 794 989 m 758 1203 l 849 1213 q 851 1175 851 1196 q 813 1079 851 1115 q 715 1043 775 1043 q 635 1065 674 1043 q 566 1110 597 1088 q 510 1132 535 1132 q 464 1090 467 1132 q 465 1076 464 1081 l 375 1067 q 372 1104 372 1083 q 410 1200 372 1164 q 508 1236 449 1236 q 624 1192 560 1236 q 714 1147 688 1147 q 760 1189 757 1147 q 758 1203 760 1199 z "},"Ö":{"ha":1167,"x_min":83,"x_max":1083,"o":"m 840 213 q 891 268 840 213 q 942 486 942 324 q 840 759 942 649 q 583 869 738 869 q 327 759 429 869 q 225 486 225 649 q 327 213 225 324 q 583 103 429 103 q 840 213 738 103 m 939 842 q 1011 769 939 842 q 1083 486 1083 696 q 939 130 1083 276 q 583 -17 794 -17 q 228 130 372 -17 q 83 486 83 276 q 228 842 83 696 q 583 989 372 989 q 939 842 794 989 m 467 1061 l 325 1061 l 325 1215 l 467 1215 l 467 1061 m 842 1061 l 700 1061 l 700 1215 l 842 1215 l 842 1061 z "},"×":{"ha":764,"x_min":99,"x_max":667,"o":"m 175 717 l 382 508 l 590 717 l 667 639 l 460 432 l 665 226 l 589 149 l 382 356 l 175 149 l 99 225 l 306 432 l 99 639 l 175 717 z "},"Ø":{"ha":1167,"x_min":83,"x_max":1083,"o":"m 944 933 l 904 874 q 1035 703 988 804 q 1083 486 1083 601 q 939 130 1083 276 q 583 -17 794 -17 q 343 43 451 -17 l 297 -25 l 204 33 l 253 106 q 128 274 172 175 q 83 486 83 372 q 228 842 83 696 q 583 989 372 989 q 813 933 704 989 l 851 992 l 944 933 m 942 486 q 832 767 942 654 l 413 146 q 583 103 490 103 q 840 213 738 103 q 942 486 942 324 m 225 486 q 326 214 225 322 l 743 832 q 583 869 668 869 q 327 759 429 869 q 225 486 225 649 z "},"Ù":{"ha":1003,"x_min":125,"x_max":878,"o":"m 878 972 l 878 457 q 786 103 878 222 q 499 -17 694 -17 q 125 457 125 -17 l 125 972 l 258 972 l 258 422 q 322 183 258 264 q 501 103 386 103 q 681 183 617 103 q 744 422 744 264 l 744 972 l 878 972 m 536 1028 l 293 1203 l 365 1294 l 594 1103 l 536 1028 z "},"Ú":{"ha":1003,"x_min":125,"x_max":878,"o":"m 878 972 l 878 457 q 786 103 878 222 q 499 -17 694 -17 q 125 457 125 -17 l 125 972 l 258 972 l 258 422 q 322 183 258 264 q 501 103 386 103 q 681 183 617 103 q 744 422 744 264 l 744 972 l 878 972 m 715 1203 l 472 1028 l 414 1103 l 643 1294 l 715 1203 z "},"Û":{"ha":1003,"x_min":125,"x_max":878,"o":"m 878 972 l 878 457 q 786 103 878 222 q 499 -17 694 -17 q 125 457 125 -17 l 125 972 l 258 972 l 258 422 q 322 183 258 264 q 501 103 386 103 q 681 183 617 103 q 744 422 744 264 l 744 972 l 878 972 m 449 1281 l 581 1281 l 729 1094 l 654 1036 l 513 1197 l 372 1036 l 296 1094 l 449 1281 z "},"Ü":{"ha":1003,"x_min":125,"x_max":878,"o":"m 878 972 l 878 457 q 786 103 878 222 q 499 -17 694 -17 q 125 457 125 -17 l 125 972 l 258 972 l 258 422 q 322 183 258 264 q 501 103 386 103 q 681 183 617 103 q 744 422 744 264 l 744 972 l 878 972 m 385 1061 l 243 1061 l 243 1215 l 385 1215 l 385 1061 m 760 1061 l 618 1061 l 618 1215 l 760 1215 l 760 1061 z "},"Ý":{"ha":771,"x_min":7,"x_max":764,"o":"m 450 0 l 317 0 l 317 422 l 7 972 l 172 972 l 389 564 l 393 564 l 608 972 l 764 972 l 450 415 l 450 0 m 586 1203 l 343 1028 l 285 1103 l 514 1294 l 586 1203 z "},"Þ":{"ha":835,"x_min":132,"x_max":765,"o":"m 132 974 l 265 974 l 265 783 l 422 783 q 543 767 485 783 q 652 719 601 751 q 734 628 703 686 q 765 493 765 569 q 735 357 765 415 q 653 265 704 299 q 543 216 601 232 q 422 200 485 200 l 265 200 l 265 0 l 132 0 l 132 974 m 624 489 q 567 617 624 569 q 415 664 510 664 l 265 664 l 265 319 l 388 319 q 624 489 624 319 z "},"ß":{"ha":868,"x_min":111,"x_max":806,"o":"m 238 0 l 111 0 l 111 751 q 199 974 111 889 q 418 1058 288 1058 q 633 981 549 1058 q 718 776 718 904 q 689 669 718 719 q 613 588 660 619 q 754 486 703 558 q 806 304 806 414 q 711 71 806 158 q 475 -17 617 -17 q 328 19 394 -17 l 375 128 q 479 100 421 100 q 627 155 578 100 q 676 304 676 210 q 610 464 676 410 q 440 518 544 518 q 379 515 399 518 l 379 615 l 407 615 q 534 660 476 615 q 592 774 592 704 q 545 896 592 850 q 421 942 499 942 q 284 884 331 942 q 238 724 238 826 l 238 0 z "},"à":{"ha":758,"x_min":75,"x_max":650,"o":"m 650 0 l 529 0 l 529 74 q 321 -17 449 -17 q 146 36 217 -17 q 75 194 75 89 q 122 332 75 278 q 235 406 169 386 q 385 425 301 425 q 524 410 450 425 l 524 435 q 360 601 524 601 q 139 540 250 601 l 101 646 q 375 711 238 711 q 585 637 521 711 q 650 422 650 563 l 650 0 m 524 172 l 524 315 q 399 329 460 329 q 199 204 199 329 q 237 117 199 144 q 336 89 275 89 q 524 172 425 89 m 375 786 l 189 1008 l 281 1079 l 451 844 l 375 786 z "},"á":{"ha":758,"x_min":75,"x_max":650,"o":"m 650 0 l 529 0 l 529 74 q 321 -17 449 -17 q 146 36 217 -17 q 75 194 75 89 q 122 332 75 278 q 235 406 169 386 q 385 425 301 425 q 524 410 450 425 l 524 435 q 360 601 524 601 q 139 540 250 601 l 101 646 q 375 711 238 711 q 585 637 521 711 q 650 422 650 563 l 650 0 m 524 172 l 524 315 q 399 329 460 329 q 199 204 199 329 q 237 117 199 144 q 336 89 275 89 q 524 172 425 89 m 549 1008 l 363 786 l 286 844 l 457 1079 l 549 1008 z "},"â":{"ha":758,"x_min":75,"x_max":650,"o":"m 650 0 l 529 0 l 529 74 q 321 -17 449 -17 q 146 36 217 -17 q 75 194 75 89 q 122 332 75 278 q 235 406 169 386 q 385 425 301 425 q 524 410 450 425 l 524 435 q 360 601 524 601 q 139 540 250 601 l 101 646 q 375 711 238 711 q 585 637 521 711 q 650 422 650 563 l 650 0 m 524 172 l 524 315 q 399 329 460 329 q 199 204 199 329 q 237 117 199 144 q 336 89 275 89 q 524 172 425 89 m 565 836 l 492 786 l 363 965 l 233 786 l 157 836 l 301 1054 l 424 1054 l 565 836 z "},"ã":{"ha":758,"x_min":75,"x_max":650,"o":"m 650 0 l 529 0 l 529 74 q 321 -17 449 -17 q 146 36 217 -17 q 75 194 75 89 q 122 332 75 278 q 235 406 169 386 q 385 425 301 425 q 524 410 450 425 l 524 435 q 360 601 524 601 q 139 540 250 601 l 101 646 q 375 711 238 711 q 585 637 521 711 q 650 422 650 563 l 650 0 m 524 172 l 524 315 q 399 329 460 329 q 199 204 199 329 q 237 117 199 144 q 336 89 275 89 q 524 172 425 89 m 603 972 q 606 940 606 956 q 567 844 606 881 q 469 808 529 808 q 352 853 414 808 q 264 897 290 897 q 218 856 221 897 q 219 842 218 846 l 129 832 q 126 864 126 849 q 165 960 126 924 q 263 996 203 996 q 378 951 315 996 q 468 907 442 907 q 514 949 511 907 q 513 963 514 958 l 603 972 z "},"ä":{"ha":758,"x_min":75,"x_max":650,"o":"m 650 0 l 529 0 l 529 74 q 321 -17 449 -17 q 146 36 217 -17 q 75 194 75 89 q 122 332 75 278 q 235 406 169 386 q 385 425 301 425 q 524 410 450 425 l 524 435 q 360 601 524 601 q 139 540 250 601 l 101 646 q 375 711 238 711 q 585 637 521 711 q 650 422 650 563 l 650 0 m 524 172 l 524 315 q 399 329 460 329 q 199 204 199 329 q 237 117 199 144 q 336 89 275 89 q 524 172 425 89 m 288 831 l 158 831 l 158 972 l 288 972 l 288 831 m 569 831 l 440 831 l 440 972 l 569 972 l 569 831 z "},"å":{"ha":758,"x_min":75,"x_max":650,"o":"m 650 0 l 529 0 l 529 74 q 321 -17 449 -17 q 146 36 217 -17 q 75 194 75 89 q 122 332 75 278 q 235 406 169 386 q 385 425 301 425 q 524 410 450 425 l 524 435 q 360 601 524 601 q 139 540 250 601 l 101 646 q 375 711 238 711 q 585 637 521 711 q 650 422 650 563 l 650 0 m 524 172 l 524 315 q 399 329 460 329 q 199 204 199 329 q 237 117 199 144 q 336 89 275 89 q 524 172 425 89 m 277 823 q 258 842 277 823 q 239 914 239 861 q 277 1005 239 967 q 368 1043 315 1043 q 459 1005 421 1043 q 497 914 497 967 q 459 823 497 861 q 368 785 421 785 q 277 823 315 785 m 325 957 q 316 948 325 957 q 307 914 307 939 q 325 871 307 889 q 368 853 343 853 q 411 871 393 853 q 429 914 429 889 q 411 957 429 939 q 368 975 393 975 q 325 957 343 975 z "},"æ":{"ha":1238,"x_min":75,"x_max":1179,"o":"m 1049 417 q 992 548 1044 493 q 864 603 940 603 q 728 551 783 603 q 654 417 674 499 l 1049 417 m 544 194 q 518 317 522 256 q 399 329 456 329 q 199 204 199 329 q 237 117 199 144 q 336 89 275 89 q 544 194 449 89 m 1075 204 l 1167 146 q 863 -17 1065 -17 q 594 103 689 -17 q 321 -17 493 -17 q 146 36 217 -17 q 75 194 75 89 q 122 332 75 278 q 235 406 169 386 q 385 425 301 425 q 524 410 450 425 l 524 435 q 360 601 524 601 q 139 540 250 601 l 101 646 q 375 711 238 711 q 613 594 553 711 q 863 711 711 711 q 1090 619 1000 711 q 1179 388 1179 528 q 1174 315 1179 351 l 644 315 q 712 156 651 221 q 868 92 772 92 q 1075 204 1015 92 z "},"ç":{"ha":660,"x_min":58,"x_max":626,"o":"m 564 149 l 626 51 q 414 -17 543 -17 q 392 -15 399 -17 l 364 -90 l 365 -92 q 432 -69 396 -69 q 517 -106 481 -69 q 553 -199 553 -143 q 509 -298 553 -256 q 401 -340 465 -340 q 258 -258 304 -340 l 338 -219 q 401 -264 354 -264 q 444 -246 428 -264 q 461 -203 461 -228 q 444 -156 461 -175 q 399 -137 426 -137 q 344 -171 358 -137 l 260 -126 l 311 -3 q 128 122 197 28 q 58 347 58 215 q 164 606 58 500 q 421 711 269 711 q 617 651 528 711 l 557 547 q 415 594 494 594 q 254 522 321 594 q 188 347 188 450 q 255 169 188 238 q 417 100 322 100 q 564 149 499 100 z "},"è":{"ha":778,"x_min":58,"x_max":719,"o":"m 714 315 l 185 315 q 252 156 192 221 q 408 92 313 92 q 615 204 556 92 l 707 146 q 403 -17 606 -17 q 150 86 242 -17 q 58 347 58 189 q 158 606 58 501 q 403 711 257 711 q 630 619 540 711 q 719 388 719 528 q 714 315 719 351 m 404 603 q 269 551 324 603 q 194 417 214 499 l 589 417 q 533 548 585 493 q 404 603 481 603 m 399 786 l 213 1008 l 304 1079 l 475 844 l 399 786 z "},"é":{"ha":778,"x_min":58,"x_max":719,"o":"m 714 315 l 185 315 q 252 156 192 221 q 408 92 313 92 q 615 204 556 92 l 707 146 q 403 -17 606 -17 q 150 86 242 -17 q 58 347 58 189 q 158 606 58 501 q 403 711 257 711 q 630 619 540 711 q 719 388 719 528 q 714 315 719 351 m 404 603 q 269 551 324 603 q 194 417 214 499 l 589 417 q 533 548 585 493 q 404 603 481 603 m 593 1008 l 407 786 l 331 844 l 501 1079 l 593 1008 z "},"ê":{"ha":778,"x_min":58,"x_max":719,"o":"m 714 315 l 185 315 q 252 156 192 221 q 408 92 313 92 q 615 204 556 92 l 707 146 q 403 -17 606 -17 q 150 86 242 -17 q 58 347 58 189 q 158 606 58 501 q 403 711 257 711 q 630 619 540 711 q 719 388 719 528 q 714 315 719 351 m 404 603 q 269 551 324 603 q 194 417 214 499 l 589 417 q 533 548 585 493 q 404 603 481 603 m 606 836 l 532 786 l 403 965 l 274 786 l 197 836 l 342 1054 l 464 1054 l 606 836 z "},"ë":{"ha":778,"x_min":58,"x_max":719,"o":"m 714 315 l 185 315 q 252 156 192 221 q 408 92 313 92 q 615 204 556 92 l 707 146 q 403 -17 606 -17 q 150 86 242 -17 q 58 347 58 189 q 158 606 58 501 q 403 711 257 711 q 630 619 540 711 q 719 388 719 528 q 714 315 719 351 m 404 603 q 269 551 324 603 q 194 417 214 499 l 589 417 q 533 548 585 493 q 404 603 481 603 m 326 831 l 197 831 l 197 972 l 326 972 l 326 831 m 608 831 l 479 831 l 479 972 l 608 972 l 608 831 z "},"ì":{"ha":360,"x_min":-14,"x_max":249,"o":"m 243 0 l 117 0 l 117 694 l 243 694 l 243 0 m 172 786 l -14 1008 l 78 1079 l 249 844 l 172 786 z "},"í":{"ha":360,"x_min":108,"x_max":371,"o":"m 243 0 l 117 0 l 117 694 l 243 694 l 243 0 m 371 1008 l 185 786 l 108 844 l 279 1079 l 371 1008 z "},"î":{"ha":360,"x_min":-25,"x_max":383,"o":"m 243 0 l 117 0 l 117 694 l 243 694 l 243 0 m 383 836 l 310 786 l 181 965 l 51 786 l -25 836 l 119 1054 l 242 1054 l 383 836 z "},"ï":{"ha":360,"x_min":-25,"x_max":386,"o":"m 104 831 l -25 831 l -25 972 l 104 972 l 104 831 m 386 831 l 257 831 l 257 972 l 386 972 l 386 831 m 243 0 l 117 0 l 117 694 l 243 694 l 243 0 z "},"ð":{"ha":797,"x_min":58,"x_max":739,"o":"m 456 1065 l 379 933 q 739 322 739 700 q 644 82 739 181 q 388 -17 549 -17 q 149 85 240 -17 q 58 328 58 188 q 148 553 58 458 q 363 649 238 649 q 539 601 458 649 q 318 829 465 729 l 239 693 l 151 746 l 231 882 q 93 947 181 910 l 140 1057 q 290 985 228 1018 l 367 1117 l 456 1065 m 588 489 q 406 533 506 533 q 249 478 311 533 q 188 325 188 424 q 247 165 188 231 q 399 100 306 100 q 557 167 506 100 q 608 340 608 235 q 588 489 608 413 z "},"ñ":{"ha":842,"x_min":117,"x_max":733,"o":"m 117 694 l 243 694 l 243 581 q 469 711 325 711 q 671 624 606 711 q 733 361 733 539 l 733 0 l 607 0 l 607 347 q 571 539 607 485 q 450 594 533 594 q 337 558 392 594 q 243 461 282 521 l 243 0 l 117 0 l 117 694 m 683 972 q 686 940 686 956 q 648 844 686 881 q 550 808 610 808 q 469 831 507 808 q 400 875 431 853 q 344 897 369 897 q 299 856 301 897 q 300 842 299 846 l 210 832 q 207 864 207 849 q 245 960 207 924 q 343 996 283 996 q 459 951 396 996 q 549 907 522 907 q 594 949 592 907 q 593 963 594 958 l 683 972 z "},"ò":{"ha":825,"x_min":58,"x_max":767,"o":"m 160 606 q 210 658 160 606 q 413 711 261 711 q 665 606 564 711 q 767 347 767 500 q 665 89 767 194 q 413 -17 564 -17 q 160 89 261 -17 q 58 347 58 194 q 160 606 58 500 m 574 172 q 606 208 574 172 q 638 347 638 244 q 574 522 638 450 q 413 594 510 594 q 251 522 315 594 q 188 347 188 450 q 251 172 188 244 q 413 100 315 100 q 574 172 510 100 m 399 786 l 213 1008 l 304 1079 l 475 844 l 399 786 z "},"ó":{"ha":825,"x_min":58,"x_max":767,"o":"m 160 606 q 210 658 160 606 q 413 711 261 711 q 665 606 564 711 q 767 347 767 500 q 665 89 767 194 q 413 -17 564 -17 q 160 89 261 -17 q 58 347 58 194 q 160 606 58 500 m 574 172 q 606 208 574 172 q 638 347 638 244 q 574 522 638 450 q 413 594 510 594 q 251 522 315 594 q 188 347 188 450 q 251 172 188 244 q 413 100 315 100 q 574 172 510 100 m 608 1008 l 422 786 l 346 844 l 517 1079 l 608 1008 z "},"ô":{"ha":825,"x_min":58,"x_max":767,"o":"m 160 606 q 210 658 160 606 q 413 711 261 711 q 665 606 564 711 q 767 347 767 500 q 665 89 767 194 q 413 -17 564 -17 q 160 89 261 -17 q 58 347 58 194 q 160 606 58 500 m 574 172 q 606 208 574 172 q 638 347 638 244 q 574 522 638 450 q 413 594 510 594 q 251 522 315 594 q 188 347 188 450 q 251 172 188 244 q 413 100 315 100 q 574 172 510 100 m 615 836 l 542 786 l 413 965 l 283 786 l 207 836 l 351 1054 l 474 1054 l 615 836 z "},"õ":{"ha":825,"x_min":58,"x_max":767,"o":"m 160 606 q 210 658 160 606 q 413 711 261 711 q 665 606 564 711 q 767 347 767 500 q 665 89 767 194 q 413 -17 564 -17 q 160 89 261 -17 q 58 347 58 194 q 160 606 58 500 m 574 172 q 606 208 574 172 q 638 347 638 244 q 574 522 638 450 q 413 594 510 594 q 251 522 315 594 q 188 347 188 450 q 251 172 188 244 q 413 100 315 100 q 574 172 510 100 m 658 972 q 661 940 661 956 q 623 844 661 881 q 525 808 585 808 q 444 831 482 808 q 375 875 406 853 q 319 897 344 897 q 274 856 276 897 q 275 842 274 846 l 185 832 q 182 864 182 849 q 220 960 182 924 q 318 996 258 996 q 434 951 371 996 q 524 907 497 907 q 569 949 567 907 q 568 963 569 958 l 658 972 z "},"ö":{"ha":825,"x_min":58,"x_max":767,"o":"m 160 606 q 210 658 160 606 q 413 711 261 711 q 665 606 564 711 q 767 347 767 500 q 665 89 767 194 q 413 -17 564 -17 q 160 89 261 -17 q 58 347 58 194 q 160 606 58 500 m 574 172 q 606 208 574 172 q 638 347 638 244 q 574 522 638 450 q 413 594 510 594 q 251 522 315 594 q 188 347 188 450 q 251 172 188 244 q 413 100 315 100 q 574 172 510 100 m 336 831 l 207 831 l 207 972 l 336 972 l 336 831 m 618 831 l 489 831 l 489 972 l 618 972 l 618 831 z "},"÷":{"ha":764,"x_min":33,"x_max":729,"o":"m 33 378 l 33 486 l 729 486 l 729 378 l 33 378 m 454 85 l 308 85 l 308 246 l 454 246 l 454 85 m 454 618 l 308 618 l 308 779 l 454 779 l 454 618 z "},"ø":{"ha":825,"x_min":58,"x_max":767,"o":"m 683 675 l 647 622 q 767 347 767 514 q 665 89 767 194 q 413 -17 564 -17 q 243 25 322 -17 l 207 -29 l 132 19 l 171 78 q 58 347 58 183 q 160 606 58 500 q 413 711 261 711 q 574 672 500 711 l 608 724 l 683 675 m 638 347 q 576 518 638 449 l 311 125 q 413 100 354 100 q 574 172 510 100 q 638 347 638 244 m 188 347 q 242 182 188 251 l 506 572 q 413 594 461 594 q 251 522 315 594 q 188 347 188 450 z "},"ù":{"ha":842,"x_min":108,"x_max":725,"o":"m 599 0 l 599 114 q 372 -17 517 -17 q 171 71 236 -17 q 108 333 108 156 l 108 694 l 235 694 l 235 347 q 271 156 235 210 q 392 100 308 100 q 505 137 450 100 q 599 233 560 174 l 599 694 l 725 694 l 725 0 l 599 0 m 428 786 l 242 1008 l 333 1079 l 504 844 l 428 786 z "},"ú":{"ha":842,"x_min":108,"x_max":725,"o":"m 599 0 l 599 114 q 372 -17 517 -17 q 171 71 236 -17 q 108 333 108 156 l 108 694 l 235 694 l 235 347 q 271 156 235 210 q 392 100 308 100 q 505 137 450 100 q 599 233 560 174 l 599 694 l 725 694 l 725 0 l 599 0 m 613 1008 l 426 786 l 350 844 l 521 1079 l 613 1008 z "},"û":{"ha":842,"x_min":108,"x_max":725,"o":"m 599 0 l 599 114 q 372 -17 517 -17 q 171 71 236 -17 q 108 333 108 156 l 108 694 l 235 694 l 235 347 q 271 156 235 210 q 392 100 308 100 q 505 137 450 100 q 599 233 560 174 l 599 694 l 725 694 l 725 0 l 599 0 m 631 836 l 557 786 l 428 965 l 299 786 l 222 836 l 367 1054 l 489 1054 l 631 836 z "},"ü":{"ha":842,"x_min":108,"x_max":725,"o":"m 599 0 l 599 114 q 372 -17 517 -17 q 171 71 236 -17 q 108 333 108 156 l 108 694 l 235 694 l 235 347 q 271 156 235 210 q 392 100 308 100 q 505 137 450 100 q 599 233 560 174 l 599 694 l 725 694 l 725 0 l 599 0 m 342 831 l 213 831 l 213 972 l 342 972 l 342 831 m 624 831 l 494 831 l 494 972 l 624 972 l 624 831 z "},"ý":{"ha":663,"x_min":8,"x_max":654,"o":"m 8 694 l 149 694 l 329 168 l 332 168 l 517 694 l 654 694 l 264 -312 l 153 -269 l 263 21 l 8 694 m 507 1008 l 321 786 l 244 844 l 415 1079 l 507 1008 z "},"þ":{"ha":869,"x_min":117,"x_max":811,"o":"m 117 1042 l 243 1042 l 243 601 q 339 683 279 654 q 464 711 399 711 q 712 606 613 711 q 811 346 811 500 q 713 92 811 201 q 461 -17 614 -17 q 243 75 332 -17 l 243 -347 l 117 -347 l 117 1042 m 243 463 l 243 206 q 333 128 278 156 q 444 100 389 100 q 619 175 557 100 q 682 349 682 250 q 617 522 682 450 q 447 594 551 594 q 327 559 386 594 q 243 463 268 524 z "},"ÿ":{"ha":663,"x_min":8,"x_max":654,"o":"m 8 694 l 149 694 l 329 168 l 332 168 l 517 694 l 654 694 l 264 -312 l 153 -269 l 263 21 l 8 694 m 258 831 l 129 831 l 129 972 l 258 972 l 258 831 m 540 831 l 411 831 l 411 972 l 540 972 l 540 831 z "},"Ā":{"ha":907,"x_min":21,"x_max":886,"o":"m 886 0 l 732 0 l 656 207 l 242 207 l 167 0 l 21 0 l 397 972 l 514 972 l 886 0 m 449 769 l 286 326 l 613 326 l 450 769 l 449 769 m 682 1075 l 224 1075 l 224 1174 l 682 1174 l 682 1075 z "},"ā":{"ha":758,"x_min":75,"x_max":650,"o":"m 650 0 l 529 0 l 529 74 q 321 -17 449 -17 q 146 36 217 -17 q 75 194 75 89 q 122 332 75 278 q 235 406 169 386 q 385 425 301 425 q 524 410 450 425 l 524 435 q 360 601 524 601 q 139 540 250 601 l 101 646 q 375 711 238 711 q 585 637 521 711 q 650 422 650 563 l 650 0 m 524 172 l 524 315 q 399 329 460 329 q 199 204 199 329 q 237 117 199 144 q 336 89 275 89 q 524 172 425 89 m 583 844 l 172 844 l 172 942 l 583 942 l 583 844 z "},"Ă":{"ha":907,"x_min":21,"x_max":886,"o":"m 886 0 l 732 0 l 656 207 l 242 207 l 167 0 l 21 0 l 397 972 l 514 972 l 886 0 m 449 769 l 286 326 l 613 326 l 450 769 l 449 769 m 565 1242 l 654 1242 l 654 1233 q 597 1101 654 1151 q 456 1050 540 1050 q 311 1100 365 1050 q 257 1233 257 1150 l 257 1242 l 350 1242 l 350 1233 q 379 1164 350 1189 q 456 1139 408 1139 q 533 1164 501 1139 q 565 1233 565 1189 l 565 1242 z "},"ă":{"ha":758,"x_min":75,"x_max":650,"o":"m 650 0 l 529 0 l 529 74 q 321 -17 449 -17 q 146 36 217 -17 q 75 194 75 89 q 122 332 75 278 q 235 406 169 386 q 385 425 301 425 q 524 410 450 425 l 524 435 q 360 601 524 601 q 139 540 250 601 l 101 646 q 375 711 238 711 q 585 637 521 711 q 650 422 650 563 l 650 0 m 524 172 l 524 315 q 399 329 460 329 q 199 204 199 329 q 237 117 199 144 q 336 89 275 89 q 524 172 425 89 m 503 1007 l 592 1007 l 592 988 q 534 847 592 904 q 393 789 476 789 q 252 847 310 789 q 194 988 194 904 l 194 1007 l 286 1007 l 286 988 q 317 910 286 942 q 393 878 347 878 q 470 910 438 878 q 503 988 503 942 l 503 1007 z "},"Ą":{"ha":907,"x_min":21,"x_max":886,"o":"m 449 769 l 286 326 l 613 326 l 450 769 l 449 769 m 886 0 q 762 -62 801 -21 q 722 -153 722 -104 q 781 -214 722 -214 q 842 -194 811 -214 l 886 -265 q 763 -308 839 -308 q 654 -272 700 -308 q 608 -171 608 -235 q 732 0 608 -62 l 656 207 l 242 207 l 167 0 l 21 0 l 397 972 l 514 972 l 886 0 z "},"ą":{"ha":758,"x_min":75,"x_max":672,"o":"m 650 422 l 650 0 q 544 -63 579 -21 q 508 -153 508 -106 q 567 -214 508 -214 q 628 -194 597 -214 l 672 -265 q 549 -308 625 -308 q 440 -272 486 -308 q 394 -171 394 -235 q 529 8 394 -51 l 529 74 q 321 -17 449 -17 q 146 36 217 -17 q 75 194 75 89 q 122 332 75 278 q 235 406 169 386 q 385 425 301 425 q 524 410 450 425 l 524 435 q 360 601 524 601 q 139 540 250 601 l 101 646 q 375 711 238 711 q 585 637 521 711 q 650 422 650 563 m 524 172 l 524 315 q 399 329 460 329 q 199 204 199 329 q 237 117 199 144 q 336 89 275 89 q 524 172 425 89 z "},"Ć":{"ha":936,"x_min":83,"x_max":892,"o":"m 892 72 q 606 -17 761 -17 q 233 122 383 -17 q 83 486 83 261 q 235 844 83 700 q 606 989 388 989 q 867 914 746 989 l 804 811 q 606 869 710 869 q 333 761 440 869 q 225 486 225 653 q 331 207 225 311 q 606 103 436 103 q 821 171 719 103 l 892 72 m 797 1203 l 554 1028 l 496 1103 l 725 1294 l 797 1203 z "},"ć":{"ha":660,"x_min":58,"x_max":626,"o":"m 564 149 l 626 51 q 414 -17 543 -17 q 160 85 263 -17 q 58 347 58 186 q 164 606 58 500 q 421 711 269 711 q 617 651 528 711 l 557 547 q 415 594 494 594 q 254 522 321 594 q 188 347 188 450 q 255 169 188 238 q 417 100 322 100 q 564 149 499 100 m 608 1008 l 422 786 l 346 844 l 517 1079 l 608 1008 z "},"Ĉ":{"ha":936,"x_min":83,"x_max":892,"o":"m 892 72 q 606 -17 761 -17 q 233 122 383 -17 q 83 486 83 261 q 235 844 83 700 q 606 989 388 989 q 867 914 746 989 l 804 811 q 606 869 710 869 q 333 761 440 869 q 225 486 225 653 q 331 207 225 311 q 606 103 436 103 q 821 171 719 103 l 892 72 m 524 1281 l 656 1281 l 804 1094 l 729 1036 l 588 1197 l 447 1036 l 371 1094 l 524 1281 z "},"ĉ":{"ha":660,"x_min":58,"x_max":626,"o":"m 564 149 l 626 51 q 414 -17 543 -17 q 160 85 263 -17 q 58 347 58 186 q 164 606 58 500 q 421 711 269 711 q 617 651 528 711 l 557 547 q 415 594 494 594 q 254 522 321 594 q 188 347 188 450 q 255 169 188 238 q 417 100 322 100 q 564 149 499 100 m 607 836 l 533 786 l 404 965 l 275 786 l 199 836 l 343 1054 l 465 1054 l 607 836 z "},"Ċ":{"ha":936,"x_min":83,"x_max":892,"o":"m 892 72 q 606 -17 761 -17 q 233 122 383 -17 q 83 486 83 261 q 235 844 83 700 q 606 989 388 989 q 867 914 746 989 l 804 811 q 606 869 710 869 q 333 761 440 869 q 225 486 225 653 q 331 207 225 311 q 606 103 436 103 q 821 171 719 103 l 892 72 m 654 1061 l 513 1061 l 513 1215 l 654 1215 l 654 1061 z "},"ċ":{"ha":660,"x_min":58,"x_max":626,"o":"m 564 149 l 626 51 q 414 -17 543 -17 q 160 85 263 -17 q 58 347 58 186 q 164 606 58 500 q 421 711 269 711 q 617 651 528 711 l 557 547 q 415 594 494 594 q 254 522 321 594 q 188 347 188 450 q 255 169 188 238 q 417 100 322 100 q 564 149 499 100 m 454 831 l 328 831 l 328 972 l 454 972 l 454 831 z "},"Č":{"ha":936,"x_min":83,"x_max":892,"o":"m 892 72 q 606 -17 761 -17 q 233 122 383 -17 q 83 486 83 261 q 235 844 83 700 q 606 989 388 989 q 867 914 746 989 l 804 811 q 606 869 710 869 q 333 761 440 869 q 225 486 225 653 q 331 207 225 311 q 606 103 436 103 q 821 171 719 103 l 892 72 m 653 1044 l 521 1044 l 372 1231 l 449 1289 l 590 1128 l 731 1289 l 806 1231 l 653 1044 z "},"č":{"ha":660,"x_min":58,"x_max":626,"o":"m 564 149 l 626 51 q 414 -17 543 -17 q 160 85 263 -17 q 58 347 58 186 q 164 606 58 500 q 421 711 269 711 q 617 651 528 711 l 557 547 q 415 594 494 594 q 254 522 321 594 q 188 347 188 450 q 255 169 188 238 q 417 100 322 100 q 564 149 499 100 m 200 1008 l 275 1058 l 404 879 l 533 1058 l 608 1008 l 464 790 l 342 790 l 200 1008 z "},"Ď":{"ha":1000,"x_min":132,"x_max":917,"o":"m 132 0 l 132 972 l 394 972 q 544 956 471 972 q 685 903 617 940 q 804 813 753 867 q 886 675 856 758 q 917 490 917 592 q 871 263 917 361 q 747 110 825 165 q 576 27 668 54 q 381 0 485 0 l 132 0 m 775 478 q 669 756 775 660 q 369 853 563 853 l 265 853 l 265 119 l 311 119 q 655 202 535 119 q 775 478 775 285 m 517 1044 l 385 1044 l 236 1231 l 313 1289 l 454 1128 l 594 1289 l 669 1231 l 517 1044 z "},"ď":{"ha":869,"x_min":58,"x_max":974,"o":"m 406 -17 q 158 89 257 -17 q 58 347 58 194 q 156 601 58 492 q 408 711 254 711 q 626 618 536 711 l 626 1042 l 753 1042 l 753 0 l 626 0 l 626 93 q 531 12 590 40 q 406 -17 471 -17 m 422 100 q 541 135 482 100 q 626 231 600 171 l 626 489 q 536 567 592 539 q 425 594 481 594 q 249 519 311 594 q 188 344 188 444 q 253 172 188 244 q 422 100 318 100 m 900 764 l 794 764 l 850 1042 l 974 1042 l 900 764 z "},"Đ":{"ha":1000,"x_min":35,"x_max":917,"o":"m 132 0 l 132 446 l 35 446 l 35 556 l 132 556 l 132 972 l 394 972 q 544 956 471 972 q 685 903 617 940 q 804 813 753 867 q 886 675 856 758 q 917 490 917 592 q 871 263 917 361 q 747 110 825 165 q 576 27 668 54 q 381 0 485 0 l 132 0 m 775 478 q 669 756 775 660 q 369 853 563 853 l 265 853 l 265 556 l 432 556 l 432 446 l 265 446 l 265 119 l 311 119 q 655 202 535 119 q 775 478 775 285 z "},"đ":{"ha":869,"x_min":58,"x_max":850,"o":"m 406 -17 q 158 89 257 -17 q 58 347 58 194 q 156 601 58 492 q 408 711 254 711 q 626 618 536 711 l 626 817 l 399 817 l 399 917 l 626 917 l 626 1042 l 753 1042 l 753 917 l 850 917 l 850 817 l 753 817 l 753 0 l 626 0 l 626 93 q 531 12 590 40 q 406 -17 471 -17 m 422 100 q 541 135 482 100 q 626 231 600 171 l 626 489 q 536 567 592 539 q 425 594 481 594 q 249 519 311 594 q 188 344 188 444 q 253 172 188 244 q 422 100 318 100 z "},"Ē":{"ha":806,"x_min":132,"x_max":715,"o":"m 715 0 l 132 0 l 132 972 l 715 972 l 715 853 l 265 853 l 265 561 l 715 561 l 715 442 l 265 442 l 265 119 l 715 119 l 715 0 m 664 1075 l 206 1075 l 206 1174 l 664 1174 l 664 1075 z "},"ē":{"ha":778,"x_min":58,"x_max":719,"o":"m 714 315 l 185 315 q 252 156 192 221 q 408 92 313 92 q 615 204 556 92 l 707 146 q 403 -17 606 -17 q 150 86 242 -17 q 58 347 58 189 q 158 606 58 501 q 403 711 257 711 q 630 619 540 711 q 719 388 719 528 q 714 315 719 351 m 404 603 q 269 551 324 603 q 194 417 214 499 l 589 417 q 533 548 585 493 q 404 603 481 603 m 608 844 l 197 844 l 197 942 l 608 942 l 608 844 z "},"Ĕ":{"ha":806,"x_min":132,"x_max":715,"o":"m 715 0 l 132 0 l 132 972 l 715 972 l 715 853 l 265 853 l 265 561 l 715 561 l 715 442 l 265 442 l 265 119 l 715 119 l 715 0 m 565 1242 l 654 1242 l 654 1233 q 597 1101 654 1151 q 456 1050 540 1050 q 311 1100 365 1050 q 257 1233 257 1150 l 257 1242 l 350 1242 l 350 1233 q 379 1164 350 1189 q 456 1139 408 1139 q 533 1164 501 1139 q 565 1233 565 1189 l 565 1242 z "},"ĕ":{"ha":778,"x_min":58,"x_max":719,"o":"m 714 315 l 185 315 q 252 156 192 221 q 408 92 313 92 q 615 204 556 92 l 707 146 q 403 -17 606 -17 q 150 86 242 -17 q 58 347 58 189 q 158 606 58 501 q 403 711 257 711 q 630 619 540 711 q 719 388 719 528 q 714 315 719 351 m 404 603 q 269 551 324 603 q 194 417 214 499 l 589 417 q 533 548 585 493 q 404 603 481 603 m 513 1007 l 601 1007 l 601 988 q 544 847 601 904 q 403 789 486 789 q 262 847 319 789 q 204 988 204 904 l 204 1007 l 296 1007 l 296 988 q 326 910 296 942 q 403 878 357 878 q 480 910 447 878 q 513 988 513 942 l 513 1007 z "},"Ė":{"ha":806,"x_min":132,"x_max":715,"o":"m 715 0 l 132 0 l 132 972 l 715 972 l 715 853 l 265 853 l 265 561 l 715 561 l 715 442 l 265 442 l 265 119 l 715 119 l 715 0 m 508 1061 l 367 1061 l 367 1215 l 508 1215 l 508 1061 z "},"ė":{"ha":778,"x_min":58,"x_max":719,"o":"m 714 315 l 185 315 q 252 156 192 221 q 408 92 313 92 q 615 204 556 92 l 707 146 q 403 -17 606 -17 q 150 86 242 -17 q 58 347 58 189 q 158 606 58 501 q 403 711 257 711 q 630 619 540 711 q 719 388 719 528 q 714 315 719 351 m 404 603 q 269 551 324 603 q 194 417 214 499 l 589 417 q 533 548 585 493 q 404 603 481 603 m 458 831 l 332 831 l 332 972 l 458 972 l 458 831 z "},"Ę":{"ha":806,"x_min":132,"x_max":715,"o":"m 715 119 l 715 0 q 590 -59 632 -11 q 549 -153 549 -107 q 607 -214 549 -214 q 668 -194 638 -214 l 713 -265 q 589 -308 665 -308 q 481 -272 526 -308 q 435 -171 435 -235 q 551 0 435 -60 l 132 0 l 132 972 l 715 972 l 715 853 l 265 853 l 265 561 l 715 561 l 715 442 l 265 442 l 265 119 l 715 119 z "},"ę":{"ha":778,"x_min":58,"x_max":719,"o":"m 404 603 q 269 551 324 603 q 194 417 214 499 l 589 417 q 533 548 585 493 q 404 603 481 603 m 714 315 l 185 315 q 252 156 192 221 q 408 92 313 92 q 615 204 556 92 l 707 146 q 528 0 639 35 q 419 -65 454 -24 q 385 -153 385 -107 q 443 -214 385 -214 q 504 -194 474 -214 l 549 -265 q 425 -308 501 -308 q 317 -272 363 -308 q 271 -171 271 -235 q 368 -12 271 -75 q 142 101 225 1 q 58 347 58 201 q 158 606 58 501 q 403 711 257 711 q 630 619 540 711 q 719 388 719 528 q 714 315 719 351 z "},"Ě":{"ha":806,"x_min":132,"x_max":715,"o":"m 715 0 l 132 0 l 132 972 l 715 972 l 715 853 l 265 853 l 265 561 l 715 561 l 715 442 l 265 442 l 265 119 l 715 119 l 715 0 m 494 1044 l 363 1044 l 214 1231 l 290 1289 l 432 1128 l 572 1289 l 647 1231 l 494 1044 z "},"ě":{"ha":778,"x_min":58,"x_max":719,"o":"m 714 315 l 185 315 q 252 156 192 221 q 408 92 313 92 q 615 204 556 92 l 707 146 q 403 -17 606 -17 q 150 86 242 -17 q 58 347 58 189 q 158 606 58 501 q 403 711 257 711 q 630 619 540 711 q 719 388 719 528 q 714 315 719 351 m 404 603 q 269 551 324 603 q 194 417 214 499 l 589 417 q 533 548 585 493 q 404 603 481 603 m 199 1008 l 274 1058 l 403 879 l 532 1058 l 607 1008 l 463 790 l 340 790 l 199 1008 z "},"Ĝ":{"ha":1115,"x_min":83,"x_max":1004,"o":"m 871 419 l 624 419 l 624 539 l 1004 539 l 1004 169 q 830 32 935 81 q 606 -17 725 -17 q 231 123 379 -17 q 83 486 83 263 q 235 844 83 700 q 606 989 388 989 q 813 943 715 989 q 982 817 911 897 l 888 739 q 760 834 835 799 q 606 869 686 869 q 333 761 440 869 q 225 486 225 653 q 331 207 225 311 q 606 103 436 103 q 871 204 765 103 l 871 419 m 538 1281 l 669 1281 l 818 1094 l 743 1036 l 601 1197 l 461 1036 l 385 1094 l 538 1281 z "},"ĝ":{"ha":861,"x_min":58,"x_max":753,"o":"m 753 694 l 753 39 q 717 -143 753 -72 q 403 -308 631 -308 q 96 -217 221 -308 l 144 -108 q 265 -168 194 -144 q 400 -192 336 -192 q 563 -141 499 -192 q 626 14 626 -90 l 626 110 q 530 28 590 57 q 404 0 469 0 q 158 103 257 0 q 58 356 58 206 q 156 605 58 499 q 408 711 254 711 q 626 618 536 711 l 626 694 l 753 694 m 626 246 l 626 489 q 536 567 592 539 q 425 594 481 594 q 249 522 311 594 q 188 353 188 450 q 253 186 188 256 q 421 117 318 117 q 540 151 481 117 q 626 246 600 186 m 610 836 l 536 786 l 407 965 l 278 786 l 201 836 l 346 1054 l 468 1054 l 610 836 z "},"Ğ":{"ha":1115,"x_min":83,"x_max":1004,"o":"m 871 419 l 624 419 l 624 539 l 1004 539 l 1004 169 q 830 32 935 81 q 606 -17 725 -17 q 231 123 379 -17 q 83 486 83 263 q 235 844 83 700 q 606 989 388 989 q 813 943 715 989 q 982 817 911 897 l 888 739 q 760 834 835 799 q 606 869 686 869 q 333 761 440 869 q 225 486 225 653 q 331 207 225 311 q 606 103 436 103 q 871 204 765 103 l 871 419 m 714 1242 l 803 1242 l 803 1233 q 746 1101 803 1151 q 604 1050 689 1050 q 460 1100 514 1050 q 406 1233 406 1150 l 406 1242 l 499 1242 l 499 1233 q 528 1164 499 1189 q 604 1139 557 1139 q 682 1164 650 1139 q 714 1233 714 1189 l 714 1242 z "},"ğ":{"ha":861,"x_min":58,"x_max":753,"o":"m 753 694 l 753 39 q 717 -143 753 -72 q 403 -308 631 -308 q 96 -217 221 -308 l 144 -108 q 265 -168 194 -144 q 400 -192 336 -192 q 563 -141 499 -192 q 626 14 626 -90 l 626 110 q 530 28 590 57 q 404 0 469 0 q 158 103 257 0 q 58 356 58 206 q 156 605 58 499 q 408 711 254 711 q 626 618 536 711 l 626 694 l 753 694 m 626 246 l 626 489 q 536 567 592 539 q 425 594 481 594 q 249 522 311 594 q 188 353 188 450 q 253 186 188 256 q 421 117 318 117 q 540 151 481 117 q 626 246 600 186 m 531 1007 l 619 1007 l 619 988 q 562 847 619 904 q 421 789 504 789 q 280 847 338 789 q 222 988 222 904 l 222 1007 l 314 1007 l 314 988 q 344 910 314 942 q 421 878 375 878 q 498 910 465 878 q 531 988 531 942 l 531 1007 z "},"Ġ":{"ha":1115,"x_min":83,"x_max":1004,"o":"m 871 419 l 624 419 l 624 539 l 1004 539 l 1004 169 q 830 32 935 81 q 606 -17 725 -17 q 231 123 379 -17 q 83 486 83 263 q 235 844 83 700 q 606 989 388 989 q 813 943 715 989 q 982 817 911 897 l 888 739 q 760 834 835 799 q 606 869 686 869 q 333 761 440 869 q 225 486 225 653 q 331 207 225 311 q 606 103 436 103 q 871 204 765 103 l 871 419 m 656 1061 l 514 1061 l 514 1215 l 656 1215 l 656 1061 z "},"ġ":{"ha":861,"x_min":58,"x_max":753,"o":"m 753 694 l 753 39 q 717 -143 753 -72 q 403 -308 631 -308 q 96 -217 221 -308 l 144 -108 q 265 -168 194 -144 q 400 -192 336 -192 q 563 -141 499 -192 q 626 14 626 -90 l 626 110 q 530 28 590 57 q 404 0 469 0 q 158 103 257 0 q 58 356 58 206 q 156 605 58 499 q 408 711 254 711 q 626 618 536 711 l 626 694 l 753 694 m 626 246 l 626 489 q 536 567 592 539 q 425 594 481 594 q 249 522 311 594 q 188 353 188 450 q 253 186 188 256 q 421 117 318 117 q 540 151 481 117 q 626 246 600 186 m 469 831 l 343 831 l 343 972 l 469 972 l 469 831 z "},"Ģ":{"ha":1115,"x_min":83,"x_max":1004,"o":"m 871 419 l 624 419 l 624 539 l 1004 539 l 1004 169 q 830 32 935 81 q 606 -17 725 -17 q 231 123 379 -17 q 83 486 83 263 q 235 844 83 700 q 606 989 388 989 q 813 943 715 989 q 982 817 911 897 l 888 739 q 760 834 835 799 q 606 869 686 869 q 333 761 440 869 q 225 486 225 653 q 331 207 225 311 q 606 103 436 103 q 871 204 765 103 l 871 419 m 565 -321 l 461 -321 l 511 -78 l 629 -78 l 565 -321 z "},"ģ":{"ha":861,"x_min":58,"x_max":753,"o":"m 424 1036 l 533 1036 l 482 788 l 358 788 l 424 1036 m 753 694 l 753 39 q 717 -143 753 -72 q 403 -308 631 -308 q 96 -217 221 -308 l 144 -108 q 265 -168 194 -144 q 400 -192 336 -192 q 563 -141 499 -192 q 626 14 626 -90 l 626 110 q 530 28 590 57 q 404 0 469 0 q 158 103 257 0 q 58 356 58 206 q 156 605 58 499 q 408 711 254 711 q 626 618 536 711 l 626 694 l 753 694 m 626 246 l 626 489 q 536 567 592 539 q 425 594 481 594 q 249 522 311 594 q 188 353 188 450 q 253 186 188 256 q 421 117 318 117 q 540 151 481 117 q 626 246 600 186 z "},"Ĥ":{"ha":1044,"x_min":132,"x_max":913,"o":"m 913 0 l 779 0 l 779 442 l 265 442 l 265 0 l 132 0 l 132 972 l 265 972 l 265 561 l 779 561 l 779 972 l 913 972 l 913 0 m 458 1281 l 590 1281 l 739 1094 l 664 1036 l 522 1197 l 382 1036 l 306 1094 l 458 1281 z "},"ĥ":{"ha":842,"x_min":-39,"x_max":733,"o":"m 243 1042 l 243 581 q 469 711 325 711 q 671 624 606 711 q 733 361 733 539 l 733 0 l 607 0 l 607 347 q 571 539 607 485 q 450 594 533 594 q 337 558 392 594 q 243 461 282 521 l 243 0 l 117 0 l 117 1042 l 243 1042 m 114 1281 l 246 1281 l 394 1094 l 319 1036 l 178 1197 l 38 1036 l -39 1094 l 114 1281 z "},"Ħ":{"ha":1044,"x_min":7,"x_max":1038,"o":"m 913 0 l 779 0 l 779 442 l 265 442 l 265 0 l 132 0 l 132 717 l 7 717 l 7 821 l 132 821 l 132 972 l 265 972 l 265 821 l 779 821 l 779 972 l 913 972 l 913 821 l 1038 821 l 1038 717 l 913 717 l 913 0 m 265 561 l 779 561 l 779 717 l 265 717 l 265 561 z "},"ħ":{"ha":842,"x_min":19,"x_max":733,"o":"m 243 1042 l 243 917 l 471 917 l 471 817 l 243 817 l 243 581 q 469 711 325 711 q 671 624 606 711 q 733 361 733 539 l 733 0 l 607 0 l 607 347 q 571 539 607 485 q 450 594 533 594 q 337 558 392 594 q 243 461 282 521 l 243 0 l 117 0 l 117 817 l 19 817 l 19 917 l 117 917 l 117 1042 l 243 1042 z "},"Ĩ":{"ha":397,"x_min":-40,"x_max":439,"o":"m 265 0 l 132 0 l 132 972 l 265 972 l 265 0 m 346 1203 l 436 1213 q 439 1175 439 1196 q 401 1079 439 1115 q 303 1043 363 1043 q 223 1065 261 1043 q 153 1110 185 1088 q 97 1132 122 1132 q 51 1090 54 1132 q 53 1076 51 1081 l -37 1067 q -40 1104 -40 1083 q -2 1200 -40 1164 q 96 1236 36 1236 q 211 1192 147 1236 q 301 1147 275 1147 q 347 1189 344 1147 q 346 1203 347 1199 z "},"ĩ":{"ha":360,"x_min":-60,"x_max":419,"o":"m 243 0 l 117 0 l 117 694 l 243 694 l 243 0 m 417 972 q 419 940 419 956 q 381 844 419 881 q 283 808 343 808 q 166 853 228 808 q 78 897 104 897 q 32 856 35 897 q 33 842 32 846 l -57 832 q -60 864 -60 849 q -22 960 -60 924 q 76 996 17 996 q 192 951 129 996 q 282 907 256 907 q 328 949 325 907 q 326 963 328 958 l 417 972 z "},"Ī":{"ha":397,"x_min":-31,"x_max":428,"o":"m 265 0 l 132 0 l 132 972 l 265 972 l 265 0 m 428 1075 l -31 1075 l -31 1174 l 428 1174 l 428 1075 z "},"ī":{"ha":360,"x_min":-25,"x_max":386,"o":"m 243 0 l 117 0 l 117 694 l 243 694 l 243 0 m 386 844 l -25 844 l -25 942 l 386 942 l 386 844 z "},"Ĭ":{"ha":397,"x_min":0,"x_max":397,"o":"m 265 0 l 132 0 l 132 972 l 265 972 l 265 0 m 308 1242 l 397 1242 l 397 1233 q 340 1101 397 1151 q 199 1050 283 1050 q 54 1100 108 1050 q 0 1233 0 1150 l 0 1242 l 93 1242 l 93 1233 q 122 1164 93 1189 q 199 1139 151 1139 q 276 1164 244 1139 q 308 1233 308 1189 l 308 1242 z "},"ĭ":{"ha":360,"x_min":-18,"x_max":379,"o":"m 243 0 l 117 0 l 117 694 l 243 694 l 243 0 m 290 1007 l 379 1007 l 379 988 q 322 847 379 904 q 181 789 264 789 q 40 847 97 789 q -18 988 -18 904 l -18 1007 l 74 1007 l 74 988 q 104 910 74 942 q 181 878 135 878 q 258 910 225 878 q 290 988 290 942 l 290 1007 z "},"Į":{"ha":397,"x_min":15,"x_max":293,"o":"m 265 972 l 265 0 q 160 -64 192 -21 q 129 -153 129 -107 q 188 -214 129 -214 q 249 -194 218 -214 l 293 -265 q 169 -308 246 -308 q 61 -272 107 -308 q 15 -171 15 -235 q 46 -70 15 -117 q 132 3 76 -24 l 132 972 l 265 972 z "},"į":{"ha":360,"x_min":0,"x_max":278,"o":"m 243 831 l 117 831 l 117 972 l 243 972 l 243 831 m 243 694 l 243 0 q 114 -153 114 -39 q 172 -214 114 -214 q 233 -194 203 -214 l 278 -265 q 154 -308 231 -308 q 46 -272 92 -308 q 0 -171 0 -235 q 117 3 0 -53 l 117 694 l 243 694 z "},"İ":{"ha":397,"x_min":128,"x_max":269,"o":"m 269 1061 l 128 1061 l 128 1215 l 269 1215 l 269 1061 m 265 0 l 132 0 l 132 972 l 265 972 l 265 0 z "},"ı":{"ha":360,"x_min":117,"x_max":243,"o":"m 243 0 l 117 0 l 117 694 l 243 694 l 243 0 z "},"Ĳ":{"ha":892,"x_min":132,"x_max":767,"o":"m 265 0 l 132 0 l 132 972 l 265 972 l 265 0 m 767 972 l 767 246 q 722 61 767 126 q 536 -17 668 -17 q 396 14 469 -17 l 432 122 q 517 103 474 103 q 610 136 586 103 q 633 264 633 167 l 633 972 l 767 972 z "},"ĳ":{"ha":731,"x_min":117,"x_max":614,"o":"m 243 0 l 117 0 l 117 694 l 243 694 l 243 0 m 243 831 l 117 831 l 117 972 l 243 972 l 243 831 m 614 831 l 488 831 l 488 972 l 614 972 l 614 831 m 614 694 l 614 -61 q 594 -193 614 -143 q 410 -308 550 -308 q 276 -278 332 -308 l 313 -175 q 390 -194 349 -194 q 469 -156 451 -194 q 488 -36 488 -117 l 488 694 l 614 694 z "},"Ĵ":{"ha":467,"x_min":-22,"x_max":499,"o":"m 349 972 l 349 246 q 304 61 349 126 q 118 -17 250 -17 q -22 14 51 -17 l 14 122 q 99 103 56 103 q 192 136 168 103 q 215 264 215 167 l 215 972 l 349 972 m 218 1281 l 350 1281 l 499 1094 l 424 1036 l 282 1197 l 142 1036 l 65 1094 l 218 1281 z "},"ĵ":{"ha":371,"x_min":-83,"x_max":394,"o":"m 254 694 l 254 -61 q 235 -193 254 -143 q 50 -308 190 -308 q -83 -278 -28 -308 l -47 -175 q 31 -194 -11 -194 q 110 -156 92 -194 q 128 -36 128 -117 l 128 694 l 254 694 m 394 836 l 321 786 l 192 965 l 63 786 l -14 836 l 131 1054 l 253 1054 l 394 836 z "},"Ķ":{"ha":863,"x_min":132,"x_max":856,"o":"m 836 972 l 513 589 l 856 0 l 700 0 l 422 481 l 265 293 l 265 0 l 132 0 l 132 972 l 265 972 l 265 476 l 674 972 l 836 972 m 454 -321 l 350 -321 l 400 -78 l 518 -78 l 454 -321 z "},"ķ":{"ha":714,"x_min":117,"x_max":706,"o":"m 706 0 l 551 0 l 353 311 l 243 183 l 243 0 l 117 0 l 117 1042 l 243 1042 l 243 347 l 246 346 l 526 694 l 682 694 l 439 411 l 706 0 m 372 -321 l 268 -321 l 318 -78 l 436 -78 l 372 -321 z "},"ĸ":{"ha":714,"x_min":117,"x_max":706,"o":"m 117 694 l 243 694 l 243 347 l 246 346 l 526 694 l 682 694 l 439 411 l 706 0 l 551 0 l 353 311 l 243 183 l 243 0 l 117 0 l 117 694 z "},"Ĺ":{"ha":694,"x_min":115,"x_max":688,"o":"m 688 0 l 132 0 l 132 972 l 265 972 l 265 119 l 688 119 l 688 0 m 417 1203 l 174 1028 l 115 1103 l 344 1294 l 417 1203 z "},"ĺ":{"ha":360,"x_min":93,"x_max":394,"o":"m 243 1042 l 243 0 l 117 0 l 117 1042 l 243 1042 m 394 1264 l 151 1089 l 93 1164 l 322 1356 l 394 1264 z "},"Ļ":{"ha":694,"x_min":132,"x_max":688,"o":"m 688 0 l 132 0 l 132 972 l 265 972 l 265 119 l 688 119 l 688 0 m 424 -321 l 319 -321 l 369 -78 l 488 -78 l 424 -321 z "},"ļ":{"ha":360,"x_min":68,"x_max":243,"o":"m 243 1042 l 243 0 l 117 0 l 117 1042 l 243 1042 m 172 -321 l 68 -321 l 118 -78 l 236 -78 l 172 -321 z "},"Ľ":{"ha":694,"x_min":132,"x_max":688,"o":"m 688 0 l 132 0 l 132 972 l 265 972 l 265 119 l 688 119 l 688 0 m 461 694 l 356 694 l 411 972 l 535 972 l 461 694 z "},"ľ":{"ha":360,"x_min":117,"x_max":464,"o":"m 243 1042 l 243 0 l 117 0 l 117 1042 l 243 1042 m 390 764 l 285 764 l 340 1042 l 464 1042 l 390 764 z "},"Ŀ":{"ha":694,"x_min":132,"x_max":688,"o":"m 688 0 l 132 0 l 132 972 l 265 972 l 265 119 l 688 119 l 688 0 m 621 436 l 479 436 l 479 590 l 621 590 l 621 436 z "},"ŀ":{"ha":443,"x_min":117,"x_max":433,"o":"m 243 1042 l 243 0 l 117 0 l 117 1042 l 243 1042 m 433 436 l 292 436 l 292 590 l 433 590 l 433 436 z "},"Ł":{"ha":694,"x_min":7,"x_max":688,"o":"m 688 0 l 132 0 l 132 390 l 7 310 l 7 433 l 132 514 l 132 972 l 265 972 l 265 574 l 472 708 l 472 585 l 265 450 l 265 119 l 688 119 l 688 0 z "},"ł":{"ha":360,"x_min":25,"x_max":340,"o":"m 243 1042 l 243 621 l 340 685 l 340 563 l 243 499 l 243 0 l 117 0 l 117 446 l 25 386 l 25 506 l 117 565 l 117 1042 l 243 1042 z "},"Ń":{"ha":1049,"x_min":132,"x_max":917,"o":"m 917 0 l 799 0 l 265 725 l 265 0 l 132 0 l 132 972 l 249 972 l 783 247 l 783 972 l 917 972 l 917 0 m 751 1203 l 508 1028 l 450 1103 l 679 1294 l 751 1203 z "},"ń":{"ha":842,"x_min":117,"x_max":733,"o":"m 117 694 l 243 694 l 243 581 q 469 711 325 711 q 671 624 606 711 q 733 361 733 539 l 733 0 l 607 0 l 607 347 q 571 539 607 485 q 450 594 533 594 q 337 558 392 594 q 243 461 282 521 l 243 0 l 117 0 l 117 694 m 628 1008 l 442 786 l 365 844 l 536 1079 l 628 1008 z "},"Ņ":{"ha":1049,"x_min":132,"x_max":917,"o":"m 917 0 l 799 0 l 265 725 l 265 0 l 132 0 l 132 972 l 249 972 l 783 247 l 783 972 l 917 972 l 917 0 m 538 -321 l 433 -321 l 483 -78 l 601 -78 l 538 -321 z "},"ņ":{"ha":842,"x_min":117,"x_max":733,"o":"m 117 694 l 243 694 l 243 581 q 469 711 325 711 q 671 624 606 711 q 733 361 733 539 l 733 0 l 607 0 l 607 347 q 571 539 607 485 q 450 594 533 594 q 337 558 392 594 q 243 461 282 521 l 243 0 l 117 0 l 117 694 m 421 -321 l 317 -321 l 367 -78 l 485 -78 l 421 -321 z "},"Ň":{"ha":1049,"x_min":132,"x_max":917,"o":"m 917 0 l 799 0 l 265 725 l 265 0 l 132 0 l 132 972 l 249 972 l 783 247 l 783 972 l 917 972 l 917 0 m 599 1044 l 467 1044 l 318 1231 l 394 1289 l 536 1128 l 676 1289 l 751 1231 l 599 1044 z "},"ň":{"ha":842,"x_min":117,"x_max":733,"o":"m 117 694 l 243 694 l 243 581 q 469 711 325 711 q 671 624 606 711 q 733 361 733 539 l 733 0 l 607 0 l 607 347 q 571 539 607 485 q 450 594 533 594 q 337 558 392 594 q 243 461 282 521 l 243 0 l 117 0 l 117 694 m 246 1008 l 321 1058 l 450 879 l 579 1058 l 654 1008 l 510 790 l 388 790 l 246 1008 z "},"ŉ":{"ha":878,"x_min":-22,"x_max":769,"o":"m 99 694 l -22 694 l 49 1042 l 190 1042 l 99 694 m 153 694 l 279 694 l 279 581 q 506 711 361 711 q 707 624 642 711 q 769 361 769 539 l 769 0 l 643 0 l 643 347 q 607 539 643 485 q 486 594 569 594 q 373 558 428 594 q 279 461 318 521 l 279 0 l 153 0 l 153 694 z "},"Ŋ":{"ha":1049,"x_min":132,"x_max":917,"o":"m 917 972 l 917 -46 q 872 -231 917 -165 q 686 -308 818 -308 q 546 -278 619 -308 l 582 -169 q 667 -189 624 -189 q 760 -156 736 -189 q 783 -28 783 -125 l 783 21 l 265 725 l 265 0 l 132 0 l 132 972 l 249 972 l 783 247 l 783 972 l 917 972 z "},"ŋ":{"ha":842,"x_min":117,"x_max":733,"o":"m 733 361 l 733 -61 q 714 -193 733 -143 q 529 -308 669 -308 q 396 -278 451 -308 l 432 -175 q 510 -194 468 -194 q 589 -156 571 -194 q 607 -36 607 -117 l 607 347 q 571 539 607 485 q 450 594 533 594 q 337 558 392 594 q 243 461 282 521 l 243 0 l 117 0 l 117 694 l 243 694 l 243 581 q 469 711 325 711 q 671 624 606 711 q 733 361 733 539 z "},"Ō":{"ha":1167,"x_min":83,"x_max":1083,"o":"m 840 213 q 891 268 840 213 q 942 486 942 324 q 840 759 942 649 q 583 869 738 869 q 327 759 429 869 q 225 486 225 649 q 327 213 225 324 q 583 103 429 103 q 840 213 738 103 m 939 842 q 1011 769 939 842 q 1083 486 1083 696 q 939 130 1083 276 q 583 -17 794 -17 q 228 130 372 -17 q 83 486 83 276 q 228 842 83 696 q 583 989 372 989 q 939 842 794 989 m 813 1075 l 354 1075 l 354 1174 l 813 1174 l 813 1075 z "},"ō":{"ha":825,"x_min":58,"x_max":767,"o":"m 160 606 q 210 658 160 606 q 413 711 261 711 q 665 606 564 711 q 767 347 767 500 q 665 89 767 194 q 413 -17 564 -17 q 160 89 261 -17 q 58 347 58 194 q 160 606 58 500 m 574 172 q 606 208 574 172 q 638 347 638 244 q 574 522 638 450 q 413 594 510 594 q 251 522 315 594 q 188 347 188 450 q 251 172 188 244 q 413 100 315 100 q 574 172 510 100 m 618 844 l 207 844 l 207 942 l 618 942 l 618 844 z "},"Ŏ":{"ha":1167,"x_min":83,"x_max":1083,"o":"m 840 213 q 891 268 840 213 q 942 486 942 324 q 840 759 942 649 q 583 869 738 869 q 327 759 429 869 q 225 486 225 649 q 327 213 225 324 q 583 103 429 103 q 840 213 738 103 m 939 842 q 1011 769 939 842 q 1083 486 1083 696 q 939 130 1083 276 q 583 -17 794 -17 q 228 130 372 -17 q 83 486 83 276 q 228 842 83 696 q 583 989 372 989 q 939 842 794 989 m 693 1242 l 782 1242 l 782 1233 q 725 1101 782 1151 q 583 1050 668 1050 q 439 1100 493 1050 q 385 1233 385 1150 l 385 1242 l 478 1242 l 478 1233 q 507 1164 478 1189 q 583 1139 536 1139 q 661 1164 629 1139 q 693 1233 693 1189 l 693 1242 z "},"ŏ":{"ha":825,"x_min":58,"x_max":767,"o":"m 160 606 q 210 658 160 606 q 413 711 261 711 q 665 606 564 711 q 767 347 767 500 q 665 89 767 194 q 413 -17 564 -17 q 160 89 261 -17 q 58 347 58 194 q 160 606 58 500 m 574 172 q 606 208 574 172 q 638 347 638 244 q 574 522 638 450 q 413 594 510 594 q 251 522 315 594 q 188 347 188 450 q 251 172 188 244 q 413 100 315 100 q 574 172 510 100 m 536 1007 l 625 1007 l 625 988 q 567 847 625 904 q 426 789 510 789 q 285 847 343 789 q 228 988 228 904 l 228 1007 l 319 1007 l 319 988 q 350 910 319 942 q 426 878 381 878 q 503 910 471 878 q 536 988 536 942 l 536 1007 z "},"Ő":{"ha":1167,"x_min":83,"x_max":1083,"o":"m 840 213 q 891 268 840 213 q 942 486 942 324 q 840 759 942 649 q 583 869 738 869 q 327 759 429 869 q 225 486 225 649 q 327 213 225 324 q 583 103 429 103 q 840 213 738 103 m 939 842 q 1011 769 939 842 q 1083 486 1083 696 q 939 130 1083 276 q 583 -17 794 -17 q 228 130 372 -17 q 83 486 83 276 q 228 842 83 696 q 583 989 372 989 q 939 842 794 989 m 650 1203 l 407 1028 l 349 1103 l 578 1294 l 650 1203 m 942 1196 l 708 1028 l 650 1103 l 869 1288 l 942 1196 z "},"ő":{"ha":825,"x_min":58,"x_max":767,"o":"m 160 606 q 210 658 160 606 q 413 711 261 711 q 665 606 564 711 q 767 347 767 500 q 665 89 767 194 q 413 -17 564 -17 q 160 89 261 -17 q 58 347 58 194 q 160 606 58 500 m 574 172 q 606 208 574 172 q 638 347 638 244 q 574 522 638 450 q 413 594 510 594 q 251 522 315 594 q 188 347 188 450 q 251 172 188 244 q 413 100 315 100 q 574 172 510 100 m 726 1008 l 539 785 l 461 844 l 635 1079 l 726 1008 m 514 1029 l 319 799 l 243 854 l 421 1101 l 514 1029 z "},"Œ":{"ha":1476,"x_min":83,"x_max":1386,"o":"m 1386 0 l 803 0 l 803 46 q 583 -17 700 -17 q 228 130 372 -17 q 83 486 83 276 q 228 842 83 696 q 583 989 372 989 q 803 926 700 989 l 803 972 l 1386 972 l 1386 853 l 936 853 l 936 561 l 1386 561 l 1386 442 l 936 442 l 936 119 l 1386 119 l 1386 0 m 583 103 q 803 178 708 103 l 803 794 q 583 869 708 869 q 327 759 429 869 q 225 486 225 649 q 327 213 225 324 q 583 103 429 103 z "},"œ":{"ha":1351,"x_min":58,"x_max":1293,"o":"m 1288 315 l 758 315 q 826 156 765 221 q 982 92 886 92 q 1189 204 1129 92 l 1281 146 q 976 -17 1179 -17 q 694 133 786 -17 q 413 -17 593 -17 q 160 89 261 -17 q 58 347 58 194 q 160 606 58 500 q 413 713 261 713 q 577 671 503 713 q 699 557 651 629 q 817 671 744 629 q 976 713 889 713 q 1203 621 1114 713 q 1293 389 1293 529 q 1288 315 1293 351 m 638 349 q 574 523 638 450 q 414 596 510 596 q 252 523 317 596 q 188 349 188 450 q 252 173 188 246 q 414 100 317 100 q 574 173 510 100 q 638 349 638 246 m 978 604 q 842 552 897 604 q 768 418 788 500 l 1163 418 q 1106 549 1158 494 q 978 604 1054 604 z "},"Ŕ":{"ha":851,"x_min":132,"x_max":824,"o":"m 824 0 l 657 0 l 365 411 l 265 411 l 265 0 l 132 0 l 132 972 l 421 972 q 574 946 501 972 q 699 853 646 919 q 753 693 753 788 q 684 509 753 578 q 515 419 615 440 l 824 0 m 611 689 q 557 808 611 763 q 414 853 503 853 l 265 853 l 265 531 l 386 531 q 550 570 489 531 q 611 689 611 610 m 608 1203 l 365 1028 l 307 1103 l 536 1294 l 608 1203 z "},"ŕ":{"ha":496,"x_min":117,"x_max":497,"o":"m 243 694 l 243 579 q 422 711 317 711 q 497 703 458 711 l 474 568 q 408 582 444 582 q 243 465 310 582 l 243 0 l 117 0 l 117 694 l 243 694 m 478 1008 l 292 786 l 215 844 l 386 1079 l 478 1008 z "},"Ŗ":{"ha":851,"x_min":132,"x_max":824,"o":"m 824 0 l 657 0 l 365 411 l 265 411 l 265 0 l 132 0 l 132 972 l 421 972 q 574 946 501 972 q 699 853 646 919 q 753 693 753 788 q 684 509 753 578 q 515 419 615 440 l 824 0 m 611 689 q 557 808 611 763 q 414 853 503 853 l 265 853 l 265 531 l 386 531 q 550 570 489 531 q 611 689 611 610 m 446 -321 l 342 -321 l 392 -78 l 510 -78 l 446 -321 z "},"ŗ":{"ha":496,"x_min":68,"x_max":497,"o":"m 243 694 l 243 579 q 422 711 317 711 q 497 703 458 711 l 474 568 q 408 582 444 582 q 243 465 310 582 l 243 0 l 117 0 l 117 694 l 243 694 m 172 -321 l 68 -321 l 118 -78 l 236 -78 l 172 -321 z "},"Ř":{"ha":851,"x_min":132,"x_max":824,"o":"m 824 0 l 657 0 l 365 411 l 265 411 l 265 0 l 132 0 l 132 972 l 421 972 q 574 946 501 972 q 699 853 646 919 q 753 693 753 788 q 684 509 753 578 q 515 419 615 440 l 824 0 m 611 689 q 557 808 611 763 q 414 853 503 853 l 265 853 l 265 531 l 386 531 q 550 570 489 531 q 611 689 611 610 m 467 1044 l 335 1044 l 186 1231 l 263 1289 l 404 1128 l 544 1289 l 619 1231 l 467 1044 z "},"ř":{"ha":496,"x_min":97,"x_max":506,"o":"m 243 694 l 243 579 q 422 711 317 711 q 497 703 458 711 l 474 568 q 408 582 444 582 q 243 465 310 582 l 243 0 l 117 0 l 117 694 l 243 694 m 97 1008 l 172 1058 l 301 879 l 431 1058 l 506 1008 l 361 790 l 239 790 l 97 1008 z "},"Ś":{"ha":846,"x_min":63,"x_max":756,"o":"m 636 792 q 544 847 600 825 q 432 869 488 869 q 306 834 353 869 q 258 735 258 799 q 271 689 258 710 q 297 655 283 668 q 344 626 311 642 q 397 603 378 611 q 461 581 417 596 q 567 538 526 557 q 658 485 608 519 q 731 401 707 450 q 756 286 756 351 q 724 147 756 208 q 640 52 692 86 q 531 1 589 18 q 414 -17 472 -17 q 63 129 210 -17 l 157 218 q 282 128 224 153 q 415 103 340 103 q 556 145 499 103 q 614 271 614 188 q 598 338 614 310 q 546 389 582 367 q 481 423 510 411 q 397 454 451 435 q 297 494 339 475 q 213 545 256 514 q 147 621 169 576 q 124 721 124 665 q 207 920 124 851 q 417 989 290 989 q 718 889 586 989 l 636 792 m 647 1203 l 404 1028 l 346 1103 l 575 1294 l 647 1203 z "},"ś":{"ha":626,"x_min":60,"x_max":550,"o":"m 531 635 l 456 554 q 318 606 396 606 q 242 581 271 606 q 214 514 214 556 q 236 468 214 489 q 281 437 258 447 q 347 408 303 426 q 418 377 389 392 q 481 338 447 363 q 533 279 515 314 q 550 201 550 244 q 478 38 550 92 q 299 -17 406 -17 q 60 92 143 -17 l 149 163 q 300 89 218 89 q 390 117 354 89 q 425 196 425 144 q 403 242 425 221 q 360 274 382 264 q 292 303 338 285 q 219 333 243 322 q 160 369 196 344 q 109 426 125 393 q 93 504 93 460 q 158 658 93 604 q 317 711 224 711 q 531 635 446 711 m 533 1008 l 347 786 l 271 844 l 442 1079 l 533 1008 z "},"Ŝ":{"ha":846,"x_min":63,"x_max":756,"o":"m 636 792 q 544 847 600 825 q 432 869 488 869 q 306 834 353 869 q 258 735 258 799 q 271 689 258 710 q 297 655 283 668 q 344 626 311 642 q 397 603 378 611 q 461 581 417 596 q 567 538 526 557 q 658 485 608 519 q 731 401 707 450 q 756 286 756 351 q 724 147 756 208 q 640 52 692 86 q 531 1 589 18 q 414 -17 472 -17 q 63 129 210 -17 l 157 218 q 282 128 224 153 q 415 103 340 103 q 556 145 499 103 q 614 271 614 188 q 598 338 614 310 q 546 389 582 367 q 481 423 510 411 q 397 454 451 435 q 297 494 339 475 q 213 545 256 514 q 147 621 169 576 q 124 721 124 665 q 207 920 124 851 q 417 989 290 989 q 718 889 586 989 l 636 792 m 368 1281 l 500 1281 l 649 1094 l 574 1036 l 432 1197 l 292 1036 l 215 1094 l 368 1281 z "},"ŝ":{"ha":626,"x_min":60,"x_max":550,"o":"m 531 635 l 456 554 q 318 606 396 606 q 242 581 271 606 q 214 514 214 556 q 236 468 214 489 q 281 437 258 447 q 347 408 303 426 q 418 377 389 392 q 481 338 447 363 q 533 279 515 314 q 550 201 550 244 q 478 38 550 92 q 299 -17 406 -17 q 60 92 143 -17 l 149 163 q 300 89 218 89 q 390 117 354 89 q 425 196 425 144 q 403 242 425 221 q 360 274 382 264 q 292 303 338 285 q 219 333 243 322 q 160 369 196 344 q 109 426 125 393 q 93 504 93 460 q 158 658 93 604 q 317 711 224 711 q 531 635 446 711 m 529 836 l 456 786 l 326 965 l 197 786 l 121 836 l 265 1054 l 388 1054 l 529 836 z "},"Ş":{"ha":846,"x_min":63,"x_max":756,"o":"m 636 792 q 544 847 600 825 q 432 869 488 869 q 306 834 353 869 q 258 735 258 799 q 271 689 258 710 q 297 655 283 668 q 344 626 311 642 q 397 603 378 611 q 461 581 417 596 q 567 538 526 557 q 658 485 608 519 q 731 401 707 450 q 756 286 756 351 q 726 151 756 211 q 647 57 696 92 q 542 4 597 22 q 429 -17 488 -14 l 397 -90 l 400 -92 q 467 -69 425 -69 q 554 -107 521 -69 q 588 -199 588 -144 q 544 -298 588 -256 q 436 -340 500 -340 q 293 -258 339 -340 l 372 -219 q 436 -264 389 -264 q 479 -246 463 -264 q 496 -203 496 -228 q 480 -157 496 -176 q 436 -137 464 -137 q 379 -171 397 -137 l 293 -125 l 346 -12 q 63 129 186 6 l 157 218 q 282 128 224 153 q 415 103 340 103 q 556 145 499 103 q 614 271 614 188 q 598 338 614 310 q 546 389 582 367 q 481 423 510 411 q 397 454 451 435 q 297 494 339 475 q 213 545 256 514 q 147 621 169 576 q 124 721 124 665 q 207 920 124 851 q 417 989 290 989 q 718 889 586 989 l 636 792 z "},"ş":{"ha":626,"x_min":60,"x_max":550,"o":"m 531 635 l 456 554 q 318 606 396 606 q 242 581 271 606 q 214 514 214 556 q 236 468 214 489 q 281 437 258 447 q 347 408 303 426 q 418 377 389 392 q 481 338 447 363 q 533 279 515 314 q 550 201 550 244 q 485 44 550 97 q 321 -15 421 -10 l 293 -90 l 294 -92 q 361 -69 325 -69 q 446 -106 410 -69 q 482 -199 482 -143 q 438 -298 482 -256 q 331 -340 394 -340 q 188 -258 233 -340 l 267 -219 q 331 -264 283 -264 q 374 -246 357 -264 q 390 -203 390 -228 q 373 -156 390 -175 q 328 -137 356 -137 q 274 -171 289 -137 l 189 -126 l 236 -11 q 60 92 122 10 l 149 163 q 300 89 218 89 q 390 117 354 89 q 425 196 425 144 q 403 242 425 221 q 360 274 382 264 q 292 303 338 285 q 219 333 243 322 q 160 369 196 344 q 109 426 125 393 q 93 504 93 460 q 158 658 93 604 q 317 711 224 711 q 531 635 446 711 z "},"Š":{"ha":846,"x_min":63,"x_max":756,"o":"m 636 792 q 544 847 600 825 q 432 869 488 869 q 306 834 353 869 q 258 735 258 799 q 271 689 258 710 q 297 655 283 668 q 344 626 311 642 q 397 603 378 611 q 461 581 417 596 q 567 538 526 557 q 658 485 608 519 q 731 401 707 450 q 756 286 756 351 q 724 147 756 208 q 640 52 692 86 q 531 1 589 18 q 414 -17 472 -17 q 63 129 210 -17 l 157 218 q 282 128 224 153 q 415 103 340 103 q 556 145 499 103 q 614 271 614 188 q 598 338 614 310 q 546 389 582 367 q 481 423 510 411 q 397 454 451 435 q 297 494 339 475 q 213 545 256 514 q 147 621 169 576 q 124 721 124 665 q 207 920 124 851 q 417 989 290 989 q 718 889 586 989 l 636 792 m 496 1044 l 364 1044 l 215 1231 l 292 1289 l 433 1128 l 574 1289 l 649 1231 l 496 1044 z "},"š":{"ha":626,"x_min":60,"x_max":550,"o":"m 531 635 l 456 554 q 318 606 396 606 q 242 581 271 606 q 214 514 214 556 q 236 468 214 489 q 281 437 258 447 q 347 408 303 426 q 418 377 389 392 q 481 338 447 363 q 533 279 515 314 q 550 201 550 244 q 478 38 550 92 q 299 -17 406 -17 q 60 92 143 -17 l 149 163 q 300 89 218 89 q 390 117 354 89 q 425 196 425 144 q 403 242 425 221 q 360 274 382 264 q 292 303 338 285 q 219 333 243 322 q 160 369 196 344 q 109 426 125 393 q 93 504 93 460 q 158 658 93 604 q 317 711 224 711 q 531 635 446 711 m 124 1008 l 199 1058 l 328 879 l 457 1058 l 532 1008 l 388 790 l 265 790 l 124 1008 z "},"Ţ":{"ha":678,"x_min":28,"x_max":650,"o":"m 650 853 l 406 853 l 406 0 l 379 0 l 340 -90 l 343 -92 q 410 -69 368 -69 q 497 -107 464 -69 q 531 -199 531 -144 q 487 -298 531 -256 q 379 -340 443 -340 q 236 -258 282 -340 l 315 -219 q 379 -264 332 -264 q 422 -246 406 -264 q 439 -203 439 -228 q 423 -157 439 -176 q 379 -137 407 -137 q 322 -171 340 -137 l 236 -125 l 294 0 l 272 0 l 272 853 l 28 853 l 28 972 l 650 972 l 650 853 z "},"ţ":{"ha":481,"x_min":31,"x_max":461,"o":"m 444 583 l 250 583 l 250 269 q 251 215 250 236 q 276 128 254 157 q 349 99 299 99 q 426 118 388 99 l 461 17 q 332 -14 403 -14 q 294 -11 307 -14 l 265 -90 l 267 -92 q 333 -69 297 -69 q 418 -106 382 -69 q 454 -199 454 -143 q 410 -298 454 -256 q 303 -340 367 -340 q 160 -258 206 -340 l 239 -219 q 303 -264 256 -264 q 346 -246 329 -264 q 363 -203 363 -228 q 345 -156 363 -175 q 300 -137 328 -137 q 246 -171 261 -137 l 161 -126 l 219 13 q 146 94 169 39 q 124 239 124 146 l 124 583 l 31 583 l 31 694 l 124 694 l 124 861 l 250 861 l 250 694 l 444 694 l 444 583 z "},"Ť":{"ha":678,"x_min":28,"x_max":650,"o":"m 650 853 l 406 853 l 406 0 l 272 0 l 272 853 l 28 853 l 28 972 l 650 972 l 650 853 m 403 1044 l 271 1044 l 122 1231 l 199 1289 l 340 1128 l 481 1289 l 556 1231 l 403 1044 z "},"ť":{"ha":481,"x_min":31,"x_max":508,"o":"m 444 583 l 250 583 l 250 269 q 251 215 250 236 q 276 128 254 157 q 349 99 299 99 q 426 118 388 99 l 461 17 q 332 -14 403 -14 q 146 94 194 -14 q 124 239 124 146 l 124 583 l 31 583 l 31 694 l 124 694 l 124 861 l 250 861 l 250 694 l 444 694 l 444 583 m 435 764 l 329 764 l 385 1042 l 508 1042 l 435 764 z "},"Ŧ":{"ha":678,"x_min":28,"x_max":650,"o":"m 650 853 l 406 853 l 406 556 l 558 556 l 558 446 l 406 446 l 406 0 l 272 0 l 272 446 l 119 446 l 119 556 l 272 556 l 272 853 l 28 853 l 28 972 l 650 972 l 650 853 z "},"ŧ":{"ha":481,"x_min":31,"x_max":461,"o":"m 444 317 l 250 317 l 250 269 q 251 215 250 236 q 276 128 254 157 q 349 99 299 99 q 426 118 388 99 l 461 17 q 332 -14 403 -14 q 146 94 194 -14 q 124 239 124 146 l 124 317 l 31 317 l 31 417 l 124 417 l 124 583 l 31 583 l 31 694 l 124 694 l 124 861 l 250 861 l 250 694 l 444 694 l 444 583 l 250 583 l 250 417 l 444 417 l 444 317 z "},"Ũ":{"ha":1003,"x_min":125,"x_max":878,"o":"m 878 972 l 878 457 q 786 103 878 222 q 499 -17 694 -17 q 125 457 125 -17 l 125 972 l 258 972 l 258 422 q 322 183 258 264 q 501 103 386 103 q 681 183 617 103 q 744 422 744 264 l 744 972 l 878 972 m 647 1203 l 738 1213 q 740 1175 740 1196 q 702 1079 740 1115 q 604 1043 664 1043 q 524 1065 563 1043 q 455 1110 486 1088 q 399 1132 424 1132 q 353 1090 356 1132 q 354 1076 353 1081 l 264 1067 q 261 1104 261 1083 q 299 1200 261 1164 q 397 1236 338 1236 q 513 1192 449 1236 q 603 1147 576 1147 q 649 1189 646 1147 q 647 1203 649 1199 z "},"ũ":{"ha":842,"x_min":108,"x_max":725,"o":"m 599 0 l 599 114 q 372 -17 517 -17 q 171 71 236 -17 q 108 333 108 156 l 108 694 l 235 694 l 235 347 q 271 156 235 210 q 392 100 308 100 q 505 137 450 100 q 599 233 560 174 l 599 694 l 725 694 l 725 0 l 599 0 m 669 972 q 672 940 672 956 q 634 844 672 881 q 536 808 596 808 q 455 831 493 808 q 386 875 417 853 q 331 897 356 897 q 285 856 288 897 q 286 842 285 846 l 196 832 q 193 864 193 849 q 231 960 193 924 q 329 996 269 996 q 445 951 382 996 q 535 907 508 907 q 581 949 578 907 q 579 963 581 958 l 669 972 z "},"Ū":{"ha":1003,"x_min":125,"x_max":878,"o":"m 878 972 l 878 457 q 786 103 878 222 q 499 -17 694 -17 q 125 457 125 -17 l 125 972 l 258 972 l 258 422 q 322 183 258 264 q 501 103 386 103 q 681 183 617 103 q 744 422 744 264 l 744 972 l 878 972 m 731 1075 l 272 1075 l 272 1174 l 731 1174 l 731 1075 z "},"ū":{"ha":842,"x_min":108,"x_max":725,"o":"m 599 0 l 599 114 q 372 -17 517 -17 q 171 71 236 -17 q 108 333 108 156 l 108 694 l 235 694 l 235 347 q 271 156 235 210 q 392 100 308 100 q 505 137 450 100 q 599 233 560 174 l 599 694 l 725 694 l 725 0 l 599 0 m 622 844 l 211 844 l 211 942 l 622 942 l 622 844 z "},"Ŭ":{"ha":1003,"x_min":125,"x_max":878,"o":"m 878 972 l 878 457 q 786 103 878 222 q 499 -17 694 -17 q 125 457 125 -17 l 125 972 l 258 972 l 258 422 q 322 183 258 264 q 501 103 386 103 q 681 183 617 103 q 744 422 744 264 l 744 972 l 878 972 m 613 1242 l 701 1242 l 701 1233 q 644 1101 701 1151 q 503 1050 588 1050 q 358 1100 413 1050 q 304 1233 304 1150 l 304 1242 l 397 1242 l 397 1233 q 426 1164 397 1189 q 503 1139 456 1139 q 581 1164 549 1139 q 613 1233 613 1189 l 613 1242 z "},"ŭ":{"ha":842,"x_min":108,"x_max":725,"o":"m 599 0 l 599 114 q 372 -17 517 -17 q 171 71 236 -17 q 108 333 108 156 l 108 694 l 235 694 l 235 347 q 271 156 235 210 q 392 100 308 100 q 505 137 450 100 q 599 233 560 174 l 599 694 l 725 694 l 725 0 l 599 0 m 533 1007 l 622 1007 l 622 988 q 565 847 622 904 q 424 789 507 789 q 283 847 340 789 q 225 988 225 904 l 225 1007 l 317 1007 l 317 988 q 347 910 317 942 q 424 878 378 878 q 501 910 468 878 q 533 988 533 942 l 533 1007 z "},"Ů":{"ha":1003,"x_min":125,"x_max":878,"o":"m 878 972 l 878 457 q 786 103 878 222 q 499 -17 694 -17 q 125 457 125 -17 l 125 972 l 258 972 l 258 422 q 322 183 258 264 q 501 103 386 103 q 681 183 617 103 q 744 422 744 264 l 744 972 l 878 972 m 410 1047 q 391 1066 410 1047 q 372 1138 372 1085 q 410 1228 372 1190 q 501 1267 449 1267 q 592 1228 554 1267 q 631 1138 631 1190 q 592 1047 631 1085 q 501 1008 554 1008 q 410 1047 449 1008 m 458 1181 q 449 1172 458 1181 q 440 1138 440 1163 q 458 1094 440 1113 q 501 1076 476 1076 q 544 1094 526 1076 q 563 1138 563 1113 q 544 1181 563 1163 q 501 1199 526 1199 q 458 1181 476 1199 z "},"ů":{"ha":842,"x_min":108,"x_max":725,"o":"m 599 0 l 599 114 q 372 -17 517 -17 q 171 71 236 -17 q 108 333 108 156 l 108 694 l 235 694 l 235 347 q 271 156 235 210 q 392 100 308 100 q 505 137 450 100 q 599 233 560 174 l 599 694 l 725 694 l 725 0 l 599 0 m 331 816 q 312 835 331 816 q 293 907 293 854 q 331 998 293 960 q 422 1036 369 1036 q 513 998 475 1036 q 551 907 551 960 q 513 816 551 854 q 422 778 475 778 q 331 816 369 778 m 379 950 q 370 941 379 950 q 361 907 361 932 q 379 864 361 882 q 422 846 397 846 q 465 864 447 846 q 483 907 483 882 q 465 950 483 932 q 422 968 447 968 q 379 950 397 968 z "},"Ű":{"ha":1003,"x_min":125,"x_max":878,"o":"m 878 972 l 878 457 q 786 103 878 222 q 499 -17 694 -17 q 125 457 125 -17 l 125 972 l 258 972 l 258 422 q 322 183 258 264 q 501 103 386 103 q 681 183 617 103 q 744 422 744 264 l 744 972 l 878 972 m 568 1203 l 325 1028 l 267 1103 l 496 1294 l 568 1203 m 860 1196 l 626 1028 l 568 1103 l 788 1288 l 860 1196 z "},"ű":{"ha":842,"x_min":108,"x_max":725,"o":"m 599 0 l 599 114 q 372 -17 517 -17 q 171 71 236 -17 q 108 333 108 156 l 108 694 l 235 694 l 235 347 q 271 156 235 210 q 392 100 308 100 q 505 137 450 100 q 599 233 560 174 l 599 694 l 725 694 l 725 0 l 599 0 m 711 1008 l 524 785 l 446 844 l 619 1079 l 711 1008 m 499 1029 l 304 799 l 228 854 l 406 1101 l 499 1029 z "},"Ų":{"ha":1003,"x_min":125,"x_max":878,"o":"m 878 972 l 878 457 q 629 0 878 69 q 530 -58 575 -15 q 485 -153 485 -100 q 543 -214 485 -214 q 604 -194 574 -214 l 649 -265 q 525 -308 601 -308 q 417 -272 463 -308 q 371 -171 371 -235 q 461 -15 371 -71 q 125 457 125 7 l 125 972 l 258 972 l 258 422 q 322 183 258 264 q 501 103 386 103 q 681 183 617 103 q 744 422 744 264 l 744 972 l 878 972 z "},"ų":{"ha":842,"x_min":108,"x_max":746,"o":"m 468 -171 q 599 1 468 -69 l 599 114 q 372 -17 517 -17 q 171 71 236 -17 q 108 333 108 156 l 108 694 l 235 694 l 235 347 q 271 156 235 210 q 392 100 308 100 q 505 137 450 100 q 599 233 560 174 l 599 694 l 725 694 l 725 0 q 617 -64 653 -22 q 582 -153 582 -106 q 640 -214 582 -214 q 701 -194 671 -214 l 746 -265 q 622 -308 699 -308 q 514 -272 560 -308 q 468 -171 468 -235 z "},"Ŵ":{"ha":1231,"x_min":7,"x_max":1224,"o":"m 681 972 l 875 239 l 878 239 l 1082 972 l 1224 972 l 946 0 l 813 0 l 618 740 l 615 740 l 404 0 l 274 0 l 7 972 l 154 972 l 349 239 l 351 239 l 556 972 l 681 972 m 553 1281 l 685 1281 l 833 1094 l 758 1036 l 617 1197 l 476 1036 l 400 1094 l 553 1281 z "},"ŵ":{"ha":1018,"x_min":22,"x_max":996,"o":"m 582 694 l 722 160 l 726 160 l 868 694 l 996 694 l 796 0 l 660 0 l 511 540 l 508 540 l 356 0 l 214 0 l 22 694 l 158 694 l 289 160 l 292 160 l 446 694 l 582 694 m 717 836 l 643 786 l 514 965 l 385 786 l 308 836 l 453 1054 l 575 1054 l 717 836 z "},"Ŷ":{"ha":771,"x_min":7,"x_max":764,"o":"m 450 0 l 317 0 l 317 422 l 7 972 l 172 972 l 389 564 l 393 564 l 608 972 l 764 972 l 450 415 l 450 0 m 322 1281 l 454 1281 l 603 1094 l 528 1036 l 386 1197 l 246 1036 l 169 1094 l 322 1281 z "},"ŷ":{"ha":663,"x_min":8,"x_max":654,"o":"m 8 694 l 149 694 l 329 168 l 332 168 l 517 694 l 654 694 l 264 -312 l 153 -269 l 263 21 l 8 694 m 547 836 l 474 786 l 344 965 l 215 786 l 139 836 l 283 1054 l 406 1054 l 547 836 z "},"Ÿ":{"ha":771,"x_min":7,"x_max":764,"o":"m 450 0 l 317 0 l 317 422 l 7 972 l 172 972 l 389 564 l 393 564 l 608 972 l 764 972 l 450 415 l 450 0 m 307 1061 l 168 1061 l 168 1215 l 307 1215 l 307 1061 m 626 1061 l 488 1061 l 488 1215 l 626 1215 l 626 1061 z "},"Ź":{"ha":760,"x_min":56,"x_max":732,"o":"m 697 900 l 240 119 l 732 119 l 732 0 l 56 0 l 56 71 l 515 853 l 67 853 l 67 972 l 697 972 l 697 900 m 576 1203 l 333 1028 l 275 1103 l 504 1294 l 576 1203 z "},"ź":{"ha":631,"x_min":67,"x_max":581,"o":"m 82 57 l 389 583 l 67 583 l 67 694 l 557 694 l 557 639 l 250 111 l 581 111 l 581 0 l 82 0 l 82 57 m 506 1008 l 319 786 l 243 844 l 414 1079 l 506 1008 z "},"Ż":{"ha":760,"x_min":56,"x_max":732,"o":"m 697 900 l 240 119 l 732 119 l 732 0 l 56 0 l 56 71 l 515 853 l 67 853 l 67 972 l 697 972 l 697 900 m 444 1061 l 303 1061 l 303 1215 l 444 1215 l 444 1061 z "},"ż":{"ha":631,"x_min":67,"x_max":581,"o":"m 82 57 l 389 583 l 67 583 l 67 694 l 557 694 l 557 639 l 250 111 l 581 111 l 581 0 l 82 0 l 82 57 m 371 831 l 244 831 l 244 972 l 371 972 l 371 831 z "},"Ž":{"ha":760,"x_min":56,"x_max":732,"o":"m 697 900 l 240 119 l 732 119 l 732 0 l 56 0 l 56 71 l 515 853 l 67 853 l 67 972 l 697 972 l 697 900 m 446 1044 l 314 1044 l 165 1231 l 242 1289 l 383 1128 l 524 1289 l 599 1231 l 446 1044 z "},"ž":{"ha":631,"x_min":67,"x_max":581,"o":"m 82 57 l 389 583 l 67 583 l 67 694 l 557 694 l 557 639 l 250 111 l 581 111 l 581 0 l 82 0 l 82 57 m 126 1008 l 201 1058 l 331 879 l 460 1058 l 535 1008 l 390 790 l 268 790 l 126 1008 z "},"ſ":{"ha":428,"x_min":111,"x_max":478,"o":"m 478 1028 l 442 922 q 356 942 400 942 q 263 907 286 942 q 239 782 239 872 l 239 0 l 111 0 l 111 794 q 165 992 111 925 q 340 1058 219 1058 q 478 1028 404 1058 z "},"ƒ":{"ha":764,"x_min":-8,"x_max":671,"o":"m 546 439 l 364 439 l 307 -65 q 240 -235 294 -175 q 104 -294 186 -294 q -8 -278 54 -294 l 19 -168 q 89 -178 56 -178 q 156 -146 138 -178 q 182 -39 174 -114 l 236 439 l 125 439 l 125 556 l 249 556 l 267 710 q 338 879 279 819 q 493 939 397 939 q 671 894 578 939 l 621 789 q 506 822 574 822 q 424 789 447 822 q 392 683 400 756 l 376 556 l 546 556 l 546 439 z "},"Ǻ":{"ha":907,"x_min":21,"x_max":886,"o":"m 886 0 l 732 0 l 656 207 l 242 207 l 167 0 l 21 0 l 397 972 l 514 972 l 886 0 m 449 769 l 286 326 l 613 326 l 450 769 l 449 769 m 642 1406 l 381 1260 l 333 1338 l 583 1501 l 642 1406 m 366 1034 q 347 1053 366 1034 q 328 1125 328 1072 q 366 1216 328 1178 q 457 1254 404 1254 q 548 1216 510 1254 q 586 1125 586 1178 q 548 1034 586 1072 q 457 996 510 996 q 366 1034 404 996 m 414 1168 q 405 1159 414 1168 q 396 1125 396 1150 q 414 1082 396 1100 q 457 1064 432 1064 q 500 1082 482 1064 q 518 1125 518 1100 q 500 1168 518 1150 q 457 1186 482 1186 q 414 1168 432 1186 z "},"ǻ":{"ha":758,"x_min":75,"x_max":650,"o":"m 574 1192 l 325 1044 l 281 1114 l 524 1272 l 574 1192 m 650 0 l 529 0 l 529 74 q 321 -17 449 -17 q 146 36 217 -17 q 75 194 75 89 q 122 332 75 278 q 235 406 169 386 q 385 425 301 425 q 524 410 450 425 l 524 435 q 360 601 524 601 q 139 540 250 601 l 101 646 q 375 711 238 711 q 585 637 521 711 q 650 422 650 563 l 650 0 m 524 172 l 524 315 q 399 329 460 329 q 199 204 199 329 q 237 117 199 144 q 336 89 275 89 q 524 172 425 89 m 277 797 q 258 816 277 797 q 239 888 239 835 q 277 978 239 940 q 368 1017 315 1017 q 459 978 421 1017 q 497 888 497 940 q 459 797 497 835 q 368 758 421 758 q 277 797 315 758 m 325 931 q 316 922 325 931 q 307 888 307 913 q 325 844 307 863 q 368 826 343 826 q 411 844 393 826 q 429 888 429 863 q 411 931 429 913 q 368 949 393 949 q 325 931 343 949 z "},"Ǽ":{"ha":1369,"x_min":-14,"x_max":1279,"o":"m 1279 0 l 696 0 l 696 207 l 299 207 l 153 0 l -14 0 l 697 972 l 1279 972 l 1279 853 l 829 853 l 829 561 l 1279 561 l 1279 442 l 829 442 l 829 119 l 1279 119 l 1279 0 m 382 326 l 696 326 l 696 772 l 382 326 m 1013 1203 l 769 1028 l 711 1103 l 940 1294 l 1013 1203 z "},"ǽ":{"ha":1238,"x_min":75,"x_max":1179,"o":"m 1049 417 q 992 548 1044 493 q 864 603 940 603 q 728 551 783 603 q 654 417 674 499 l 1049 417 m 544 194 q 518 317 522 256 q 399 329 456 329 q 199 204 199 329 q 237 117 199 144 q 336 89 275 89 q 544 194 449 89 m 1075 204 l 1167 146 q 863 -17 1065 -17 q 594 103 689 -17 q 321 -17 493 -17 q 146 36 217 -17 q 75 194 75 89 q 122 332 75 278 q 235 406 169 386 q 385 425 301 425 q 524 410 450 425 l 524 435 q 360 601 524 601 q 139 540 250 601 l 101 646 q 375 711 238 711 q 613 594 553 711 q 863 711 711 711 q 1090 619 1000 711 q 1179 388 1179 528 q 1174 315 1179 351 l 644 315 q 712 156 651 221 q 868 92 772 92 q 1075 204 1015 92 m 814 1008 l 628 786 l 551 844 l 722 1079 l 814 1008 z "},"Ǿ":{"ha":1167,"x_min":83,"x_max":1083,"o":"m 944 933 l 904 874 q 1035 703 988 804 q 1083 486 1083 601 q 939 130 1083 276 q 583 -17 794 -17 q 343 43 451 -17 l 297 -25 l 204 33 l 253 106 q 128 274 172 175 q 83 486 83 372 q 228 842 83 696 q 583 989 372 989 q 813 933 704 989 l 851 992 l 944 933 m 942 486 q 832 767 942 654 l 413 146 q 583 103 490 103 q 840 213 738 103 q 942 486 942 324 m 225 486 q 326 214 225 322 l 743 832 q 583 869 668 869 q 327 759 429 869 q 225 486 225 649 m 797 1203 l 554 1028 l 496 1103 l 725 1294 l 797 1203 z "},"ǿ":{"ha":825,"x_min":58,"x_max":767,"o":"m 683 675 l 647 622 q 767 347 767 514 q 665 89 767 194 q 413 -17 564 -17 q 243 25 322 -17 l 207 -29 l 132 19 l 171 78 q 58 347 58 183 q 160 606 58 500 q 413 711 261 711 q 574 672 500 711 l 608 724 l 683 675 m 638 347 q 576 518 638 449 l 311 125 q 413 100 354 100 q 574 172 510 100 q 638 347 638 244 m 188 347 q 242 182 188 251 l 506 572 q 413 594 461 594 q 251 522 315 594 q 188 347 188 450 m 608 1008 l 422 786 l 346 844 l 517 1079 l 608 1008 z "},"Ș":{"ha":846,"x_min":63,"x_max":756,"o":"m 636 792 q 544 847 600 825 q 432 869 488 869 q 306 834 353 869 q 258 735 258 799 q 271 689 258 710 q 297 655 283 668 q 344 626 311 642 q 397 603 378 611 q 461 581 417 596 q 567 538 526 557 q 658 485 608 519 q 731 401 707 450 q 756 286 756 351 q 724 147 756 208 q 640 52 692 86 q 531 1 589 18 q 414 -17 472 -17 q 63 129 210 -17 l 157 218 q 282 128 224 153 q 415 103 340 103 q 556 145 499 103 q 614 271 614 188 q 598 338 614 310 q 546 389 582 367 q 481 423 510 411 q 397 454 451 435 q 297 494 339 475 q 213 545 256 514 q 147 621 169 576 q 124 721 124 665 q 207 920 124 851 q 417 989 290 989 q 718 889 586 989 l 636 792 m 364 -321 l 260 -321 l 310 -78 l 428 -78 l 364 -321 z "},"ș":{"ha":626,"x_min":60,"x_max":550,"o":"m 531 635 l 456 554 q 318 606 396 606 q 242 581 271 606 q 214 514 214 556 q 236 468 214 489 q 281 437 258 447 q 347 408 303 426 q 418 377 389 392 q 481 338 447 363 q 533 279 515 314 q 550 201 550 244 q 478 38 550 92 q 299 -17 406 -17 q 60 92 143 -17 l 149 163 q 300 89 218 89 q 390 117 354 89 q 425 196 425 144 q 403 242 425 221 q 360 274 382 264 q 292 303 338 285 q 219 333 243 322 q 160 369 196 344 q 109 426 125 393 q 93 504 93 460 q 158 658 93 604 q 317 711 224 711 q 531 635 446 711 m 274 -321 l 169 -321 l 219 -78 l 338 -78 l 274 -321 z "},"Ț":{"ha":678,"x_min":28,"x_max":650,"o":"m 650 853 l 406 853 l 406 0 l 272 0 l 272 853 l 28 853 l 28 972 l 650 972 l 650 853 m 328 -321 l 224 -321 l 274 -78 l 392 -78 l 328 -321 z "},"ț":{"ha":481,"x_min":31,"x_max":461,"o":"m 444 583 l 250 583 l 250 269 q 251 215 250 236 q 276 128 254 157 q 349 99 299 99 q 426 118 388 99 l 461 17 q 332 -14 403 -14 q 146 94 194 -14 q 124 239 124 146 l 124 583 l 31 583 l 31 694 l 124 694 l 124 861 l 250 861 l 250 694 l 444 694 l 444 583 m 247 -321 l 143 -321 l 193 -78 l 311 -78 l 247 -321 z "},"ȷ":{"ha":371,"x_min":-83,"x_max":254,"o":"m 254 694 l 254 -61 q 235 -193 254 -143 q 50 -308 190 -308 q -83 -278 -28 -308 l -47 -175 q 31 -194 -11 -194 q 110 -156 92 -194 q 128 -36 128 -117 l 128 694 l 254 694 z "},"ʼ":{"ha":500,"x_min":160,"x_max":351,"o":"m 214 989 l 351 989 l 271 694 l 160 694 l 214 989 z "},"ˆ":{"ha":500,"x_min":44,"x_max":453,"o":"m 453 836 l 379 786 l 250 965 l 121 786 l 44 836 l 189 1054 l 311 1054 l 453 836 z "},"ˇ":{"ha":500,"x_min":44,"x_max":453,"o":"m 44 1008 l 119 1058 l 249 879 l 378 1058 l 453 1008 l 308 790 l 186 790 l 44 1008 z "},"ˉ":{"ha":500,"x_min":44,"x_max":456,"o":"m 456 844 l 44 844 l 44 942 l 456 942 l 456 844 z "},"˘":{"ha":500,"x_min":51,"x_max":449,"o":"m 360 1007 l 449 1007 l 449 988 q 391 847 449 904 q 250 789 333 789 q 109 847 167 789 q 51 988 51 904 l 51 1007 l 143 1007 l 143 988 q 174 910 143 942 q 250 878 204 878 q 327 910 294 878 q 360 988 360 942 l 360 1007 z "},"˙":{"ha":500,"x_min":188,"x_max":314,"o":"m 314 831 l 188 831 l 188 972 l 314 972 l 314 831 z "},"˚":{"ha":500,"x_min":121,"x_max":379,"o":"m 159 844 q 140 863 159 844 q 121 935 121 882 q 159 1026 121 988 q 250 1064 197 1064 q 341 1026 303 1064 q 379 935 379 988 q 341 844 379 882 q 250 806 303 806 q 159 844 197 806 m 207 978 q 198 969 207 978 q 189 935 189 960 q 207 892 189 910 q 250 874 225 874 q 293 892 275 874 q 311 935 311 910 q 293 978 311 960 q 250 996 275 996 q 207 978 225 996 z "},"˛":{"ha":500,"x_min":68,"x_max":346,"o":"m 224 17 l 319 7 l 325 0 q 218 -64 254 -22 q 182 -153 182 -106 q 240 -214 182 -214 q 301 -194 271 -214 l 346 -265 q 222 -308 299 -308 q 114 -272 160 -308 q 68 -171 68 -235 q 224 17 68 -43 z "},"˜":{"ha":500,"x_min":11,"x_max":490,"o":"m 488 972 q 490 940 490 956 q 452 844 490 881 q 354 808 414 808 q 238 853 300 808 q 149 897 175 897 q 103 856 106 897 q 104 842 103 846 l 14 832 q 11 864 11 849 q 49 960 11 924 q 147 996 88 996 q 263 951 200 996 q 353 907 326 907 q 399 949 396 907 q 397 963 399 958 l 488 972 z "},"˝":{"ha":500,"x_min":56,"x_max":539,"o":"m 539 1008 l 351 785 l 274 844 l 447 1079 l 539 1008 m 326 1029 l 132 799 l 56 854 l 233 1101 l 326 1029 z "},"Δ":{"ha":764,"x_min":13,"x_max":750,"o":"m 750 0 l 13 0 l 319 792 l 447 792 l 750 0 m 565 113 l 379 624 l 376 624 l 189 113 l 565 113 z "},"Ω":{"ha":1103,"x_min":28,"x_max":1075,"o":"m 28 119 l 283 119 q 123 299 176 194 q 69 515 69 403 q 102 692 69 607 q 194 843 135 776 q 346 949 253 910 q 551 989 439 989 q 757 949 664 989 q 909 843 850 910 q 1001 692 968 776 q 1033 515 1033 607 q 980 299 1033 403 q 819 119 926 194 l 1075 119 l 1075 0 l 633 0 l 633 131 q 823 280 756 172 q 890 513 890 388 q 804 766 890 663 q 551 869 718 869 q 299 766 385 869 q 213 513 213 663 q 280 280 213 388 q 469 131 347 172 l 469 0 l 28 0 l 28 119 z "},"μ":{"ha":764,"x_min":74,"x_max":690,"o":"m 564 0 l 564 114 q 338 -17 482 -17 q 200 14 257 -17 l 200 -347 l 74 -347 l 74 694 l 200 694 l 200 347 q 201 277 200 304 q 212 213 203 250 q 236 153 221 175 q 283 116 251 132 q 357 100 314 100 q 470 137 415 100 q 564 233 525 174 l 564 694 l 690 694 l 690 0 l 564 0 z "},"π":{"ha":764,"x_min":42,"x_max":746,"o":"m 746 583 l 615 583 l 615 244 q 617 197 615 211 q 635 122 619 147 q 683 89 650 96 l 631 -22 q 492 178 504 10 q 489 232 489 211 l 489 583 l 251 583 l 251 85 q 244 0 251 46 l 115 0 q 125 97 125 36 l 125 583 l 42 583 l 42 694 l 746 694 l 746 583 z "},"Ẁ":{"ha":1231,"x_min":7,"x_max":1224,"o":"m 681 972 l 875 239 l 878 239 l 1082 972 l 1224 972 l 946 0 l 813 0 l 618 740 l 615 740 l 404 0 l 274 0 l 7 972 l 154 972 l 349 239 l 351 239 l 556 972 l 681 972 m 653 1028 l 410 1203 l 482 1294 l 711 1103 l 653 1028 z "},"ẁ":{"ha":1018,"x_min":22,"x_max":996,"o":"m 582 694 l 722 160 l 726 160 l 868 694 l 996 694 l 796 0 l 660 0 l 511 540 l 508 540 l 356 0 l 214 0 l 22 694 l 158 694 l 289 160 l 292 160 l 446 694 l 582 694 m 506 786 l 319 1008 l 411 1079 l 582 844 l 506 786 z "},"Ẃ":{"ha":1231,"x_min":7,"x_max":1224,"o":"m 681 972 l 875 239 l 878 239 l 1082 972 l 1224 972 l 946 0 l 813 0 l 618 740 l 615 740 l 404 0 l 274 0 l 7 972 l 154 972 l 349 239 l 351 239 l 556 972 l 681 972 m 832 1203 l 589 1028 l 531 1103 l 760 1294 l 832 1203 z "},"ẃ":{"ha":1018,"x_min":22,"x_max":996,"o":"m 582 694 l 722 160 l 726 160 l 868 694 l 996 694 l 796 0 l 660 0 l 511 540 l 508 540 l 356 0 l 214 0 l 22 694 l 158 694 l 289 160 l 292 160 l 446 694 l 582 694 m 704 1008 l 518 786 l 442 844 l 613 1079 l 704 1008 z "},"Ẅ":{"ha":1231,"x_min":7,"x_max":1224,"o":"m 681 972 l 875 239 l 878 239 l 1082 972 l 1224 972 l 946 0 l 813 0 l 618 740 l 615 740 l 404 0 l 274 0 l 7 972 l 154 972 l 349 239 l 351 239 l 556 972 l 681 972 m 501 1061 l 360 1061 l 360 1215 l 501 1215 l 501 1061 m 876 1061 l 735 1061 l 735 1215 l 876 1215 l 876 1061 z "},"ẅ":{"ha":1018,"x_min":22,"x_max":996,"o":"m 582 694 l 722 160 l 726 160 l 868 694 l 996 694 l 796 0 l 660 0 l 511 540 l 508 540 l 356 0 l 214 0 l 22 694 l 158 694 l 289 160 l 292 160 l 446 694 l 582 694 m 438 831 l 308 831 l 308 972 l 438 972 l 438 831 m 719 831 l 590 831 l 590 972 l 719 972 l 719 831 z "},"Ỳ":{"ha":771,"x_min":7,"x_max":764,"o":"m 450 0 l 317 0 l 317 422 l 7 972 l 172 972 l 389 564 l 393 564 l 608 972 l 764 972 l 450 415 l 450 0 m 458 1028 l 215 1203 l 288 1294 l 517 1103 l 458 1028 z "},"ỳ":{"ha":663,"x_min":8,"x_max":654,"o":"m 8 694 l 149 694 l 329 168 l 332 168 l 517 694 l 654 694 l 264 -312 l 153 -269 l 263 21 l 8 694 m 363 786 l 176 1008 l 268 1079 l 439 844 l 363 786 z "}," ":{"ha":174,"x_min":0,"x_max":0,"o":""},"–":{"ha":833,"x_min":69,"x_max":764,"o":"m 764 371 l 69 371 l 69 486 l 764 486 l 764 371 z "},"—":{"ha":1250,"x_min":69,"x_max":1181,"o":"m 1181 371 l 69 371 l 69 486 l 1181 486 l 1181 371 z "},"‘":{"ha":379,"x_min":83,"x_max":296,"o":"m 296 972 l 225 625 l 83 625 l 175 972 l 296 972 z "},"’":{"ha":379,"x_min":83,"x_max":296,"o":"m 296 972 l 204 625 l 83 625 l 154 972 l 296 972 z "},"‚":{"ha":379,"x_min":83,"x_max":296,"o":"m 296 161 l 204 -186 l 83 -186 l 154 161 l 296 161 z "},"“":{"ha":726,"x_min":111,"x_max":615,"o":"m 615 972 l 544 625 l 403 625 l 494 972 l 615 972 m 324 972 l 253 625 l 111 625 l 203 972 l 324 972 z "},"”":{"ha":726,"x_min":111,"x_max":615,"o":"m 324 972 l 232 625 l 111 625 l 182 972 l 324 972 m 615 972 l 524 625 l 403 625 l 474 972 l 615 972 z "},"„":{"ha":726,"x_min":111,"x_max":615,"o":"m 324 161 l 232 -186 l 111 -186 l 182 161 l 324 161 m 615 161 l 524 -186 l 403 -186 l 474 161 l 615 161 z "},"†":{"ha":572,"x_min":97,"x_max":475,"o":"m 97 735 l 147 735 l 244 731 l 239 906 l 239 972 l 333 972 l 333 906 l 328 731 l 425 735 l 475 735 l 475 643 l 425 643 l 328 647 l 333 415 l 333 192 l 239 192 l 239 415 l 244 647 l 147 643 l 97 643 l 97 735 z "},"‡":{"ha":572,"x_min":97,"x_max":475,"o":"m 97 586 l 147 586 l 243 582 l 242 614 l 242 685 l 243 746 l 147 743 l 97 743 l 97 835 l 147 835 l 243 831 l 239 922 l 239 972 l 333 972 l 333 922 l 329 831 l 425 835 l 475 835 l 475 743 l 425 743 l 329 746 l 331 685 l 331 614 l 329 582 l 425 586 l 475 586 l 475 494 l 425 494 l 329 497 l 333 390 l 333 192 l 239 192 l 239 390 l 243 497 l 147 494 l 97 494 l 97 586 z "},"•":{"ha":442,"x_min":49,"x_max":393,"o":"m 99 279 q 74 304 99 279 q 49 401 49 329 q 99 524 49 474 q 221 574 149 574 q 343 524 293 574 q 393 401 393 474 q 343 279 393 329 q 221 229 293 229 q 99 279 149 229 z "},"…":{"ha":1042,"x_min":100,"x_max":940,"o":"m 246 0 l 100 0 l 100 161 l 246 161 l 246 0 m 940 0 l 794 0 l 794 161 l 940 161 l 940 0 m 593 0 l 447 0 l 447 161 l 593 161 l 593 0 z "},"‰":{"ha":1717,"x_min":81,"x_max":1636,"o":"m 1258 370 q 1290 402 1258 370 q 1415 435 1322 435 q 1572 370 1508 435 q 1636 213 1636 306 q 1572 56 1636 121 q 1415 -8 1508 -8 q 1258 56 1322 -8 q 1193 213 1193 121 q 1258 370 1193 306 m 1417 336 q 1331 301 1365 336 q 1297 214 1297 267 q 1331 126 1297 161 q 1417 90 1365 90 q 1499 126 1465 90 q 1532 214 1532 161 q 1499 301 1532 265 q 1417 336 1465 336 m 145 916 q 177 948 145 916 q 303 981 210 981 q 460 916 396 981 q 524 758 524 851 q 460 602 524 667 q 303 538 396 538 q 145 602 210 538 q 81 758 81 667 q 145 916 81 851 m 304 882 q 219 847 253 882 q 185 760 185 813 q 219 672 185 707 q 304 636 253 636 q 386 672 353 636 q 419 760 419 707 q 386 847 419 811 q 304 882 353 882 m 722 370 q 754 402 722 370 q 879 435 786 435 q 1036 370 972 435 q 1100 213 1100 306 q 1036 56 1100 121 q 879 -8 972 -8 q 722 56 786 -8 q 657 213 657 121 q 722 370 657 306 m 881 336 q 795 301 829 336 q 761 214 761 267 q 795 126 761 161 q 881 90 829 90 q 963 126 929 90 q 996 214 996 161 q 963 301 996 265 q 881 336 929 336 m 900 989 l 976 933 l 286 -17 l 210 39 l 900 989 z "},"‹":{"ha":429,"x_min":83,"x_max":346,"o":"m 83 461 l 285 669 l 346 547 l 169 378 l 346 210 l 285 88 l 83 296 l 83 461 z "},"›":{"ha":429,"x_min":83,"x_max":346,"o":"m 144 668 l 346 460 l 346 294 l 144 86 l 83 208 l 260 376 l 83 546 l 144 668 z "},"⁄":{"ha":183,"x_min":-292,"x_max":475,"o":"m 399 989 l 475 933 l -215 -17 l -292 39 l 399 989 z "},"⁰":{"ha":469,"x_min":32,"x_max":438,"o":"m 135 789 q 235 590 135 590 q 335 789 335 590 q 235 989 335 989 q 135 789 135 989 m 85 1000 q 112 1038 85 1000 q 235 1076 139 1076 q 384 1000 331 1076 q 438 789 438 924 q 384 578 438 654 q 235 503 331 503 q 85 578 139 503 q 32 789 32 654 q 85 1000 32 924 z "},"⁴":{"ha":464,"x_min":28,"x_max":449,"o":"m 28 746 q 267 1069 67 796 l 368 1069 l 368 738 l 449 738 l 449 653 l 368 653 l 368 510 l 269 510 l 269 653 l 28 653 l 28 746 m 269 738 l 269 935 q 133 738 183 800 l 269 738 z "},"⁵":{"ha":438,"x_min":28,"x_max":401,"o":"m 374 983 l 174 983 q 164 850 172 931 q 236 864 196 864 q 353 815 306 864 q 401 694 401 765 q 347 558 401 613 q 210 503 292 503 q 103 531 153 503 q 28 607 53 558 l 111 650 q 204 590 138 590 q 273 619 247 590 q 299 689 299 649 q 272 753 299 728 q 206 779 246 779 q 128 744 157 779 l 60 789 q 78 1069 72 906 l 374 1069 l 374 983 z "},"⁶":{"ha":461,"x_min":32,"x_max":429,"o":"m 318 1100 l 354 1018 q 151 828 190 947 q 258 868 196 868 q 381 817 332 868 q 429 690 429 765 q 376 557 429 611 q 243 503 324 503 q 90 569 147 503 q 32 728 32 635 q 113 953 32 856 q 318 1100 193 1050 m 236 783 q 135 726 169 783 q 159 627 135 667 q 236 588 183 588 q 302 617 278 588 q 326 688 326 646 q 301 757 326 731 q 236 783 276 783 z "},"⁷":{"ha":388,"x_min":8,"x_max":372,"o":"m 372 1069 l 372 1003 q 144 493 242 729 l 54 533 q 258 982 92 624 l 8 982 l 8 1069 l 372 1069 z "},"⁸":{"ha":479,"x_min":46,"x_max":433,"o":"m 418 924 q 349 804 418 847 q 433 667 433 756 q 379 550 433 597 q 240 503 325 503 q 101 550 156 503 q 46 667 46 597 q 131 804 46 756 q 63 924 63 847 q 113 1033 63 989 q 240 1076 163 1076 q 368 1033 318 1076 q 418 924 418 989 m 304 733 q 291 745 304 733 q 240 757 278 757 q 176 733 203 757 q 149 672 149 708 q 176 613 149 638 q 240 589 203 589 q 304 613 278 589 q 331 672 331 638 q 304 733 331 708 m 295 969 q 284 980 295 969 q 240 990 272 990 q 185 969 208 990 q 163 918 163 949 q 185 865 163 888 q 240 843 208 843 q 295 865 272 843 q 318 918 318 888 q 295 969 318 949 z "},"⁹":{"ha":461,"x_min":32,"x_max":429,"o":"m 143 479 l 107 561 q 310 751 271 632 q 203 711 265 711 q 81 763 129 711 q 32 889 32 814 q 85 1022 32 968 q 218 1076 138 1076 q 372 1010 314 1076 q 429 851 429 944 q 349 626 429 724 q 143 479 268 529 m 225 796 q 326 853 292 796 q 302 952 326 913 q 225 992 278 992 q 159 963 183 992 q 135 892 135 933 q 160 822 135 849 q 225 796 185 796 z "},"⁺":{"ha":464,"x_min":24,"x_max":440,"o":"m 189 560 l 189 726 l 24 726 l 24 811 l 189 811 l 189 978 l 274 978 l 274 811 l 440 811 l 440 726 l 274 726 l 274 560 l 189 560 z "},"⁻":{"ha":474,"x_min":43,"x_max":431,"o":"m 43 811 l 431 811 l 431 726 l 43 726 l 43 811 z "},"⁼":{"ha":474,"x_min":43,"x_max":431,"o":"m 43 886 l 431 886 l 431 803 l 43 803 l 43 886 m 43 736 l 431 736 l 431 651 l 43 651 l 43 736 z "},"⁽":{"ha":301,"x_min":40,"x_max":308,"o":"m 307 433 l 272 364 q 40 765 40 506 q 272 1164 40 1021 l 308 1094 q 138 765 138 985 q 307 433 138 542 z "},"⁾":{"ha":301,"x_min":-7,"x_max":261,"o":"m 28 364 l -7 433 q 164 765 164 542 q -7 1094 164 982 l 29 1164 q 261 765 261 1021 q 28 364 261 506 z "},"€":{"ha":903,"x_min":14,"x_max":874,"o":"m 14 519 l 14 622 l 139 622 q 302 853 183 768 q 588 939 421 939 q 849 868 733 939 l 789 765 q 588 819 704 819 q 394 768 475 819 q 276 622 314 717 l 654 622 l 654 519 l 250 519 q 247 461 247 481 q 250 406 247 424 l 654 406 l 654 303 l 275 303 q 392 156 313 208 q 588 103 472 103 q 804 167 711 103 l 874 69 q 588 -17 747 -17 q 301 69 419 -17 q 138 303 182 154 l 14 303 l 14 406 l 118 406 q 115 461 115 442 q 118 519 115 481 l 14 519 z "},"№":{"ha":1568,"x_min":132,"x_max":1526,"o":"m 917 0 l 799 0 l 265 725 l 265 0 l 132 0 l 132 972 l 249 972 l 783 247 l 783 972 l 917 972 l 917 0 m 1110 917 q 1144 953 1110 917 q 1283 989 1179 989 q 1457 917 1388 989 q 1526 742 1526 846 q 1457 566 1526 638 q 1283 494 1388 494 q 1110 566 1179 494 q 1040 742 1040 638 q 1110 917 1040 846 m 1384 630 q 1404 652 1384 630 q 1424 742 1424 675 q 1384 853 1424 808 q 1283 899 1344 899 q 1183 853 1222 899 q 1143 742 1143 808 q 1183 630 1143 675 q 1283 585 1222 585 q 1384 630 1344 585 z "},"™":{"ha":1360,"x_min":111,"x_max":1249,"o":"m 486 881 l 350 881 l 350 408 l 247 408 l 247 881 l 111 881 l 111 972 l 486 972 l 486 881 m 1146 856 l 964 408 l 867 408 l 688 854 l 688 408 l 585 408 l 585 972 l 747 972 l 915 539 l 1086 972 l 1249 972 l 1249 408 l 1146 408 l 1146 856 z "},"Ω":{"ha":1103,"x_min":28,"x_max":1075,"o":"m 28 119 l 283 119 q 123 299 176 194 q 69 515 69 403 q 102 692 69 607 q 194 843 135 776 q 346 949 253 910 q 551 989 439 989 q 757 949 664 989 q 909 843 850 910 q 1001 692 968 776 q 1033 515 1033 607 q 980 299 1033 403 q 819 119 926 194 l 1075 119 l 1075 0 l 633 0 l 633 131 q 823 280 756 172 q 890 513 890 388 q 804 766 890 663 q 551 869 718 869 q 299 766 385 869 q 213 513 213 663 q 280 280 213 388 q 469 131 347 172 l 469 0 l 28 0 l 28 119 z "},"⅓":{"ha":1069,"x_min":111,"x_max":958,"o":"m 801 989 l 878 933 l 188 -17 l 111 39 l 801 989 m 311 469 l 215 469 l 215 863 q 142 831 179 846 l 142 917 q 186 940 144 918 q 249 972 228 961 l 311 972 l 311 469 m 718 211 l 718 294 q 781 300 760 294 q 838 365 838 315 q 818 408 838 392 q 767 425 799 425 q 700 372 713 425 l 618 408 q 676 481 635 454 q 768 507 717 507 q 886 469 838 507 q 935 372 935 432 q 917 311 935 340 q 872 267 900 282 q 935 219 911 253 q 958 143 958 186 q 907 32 958 74 q 781 -10 856 -10 q 681 15 726 -10 q 611 89 635 40 l 692 126 q 781 71 717 71 q 837 90 814 71 q 860 142 860 108 q 833 196 860 176 q 763 215 806 215 q 718 211 735 215 z "},"⅔":{"ha":1192,"x_min":111,"x_max":1081,"o":"m 924 989 l 1000 933 l 310 -17 l 233 39 l 924 989 m 122 547 q 296 751 222 650 q 335 844 335 804 q 317 885 335 869 q 271 900 299 900 q 225 881 243 900 q 207 828 207 861 l 111 844 q 163 944 115 906 q 275 982 211 982 q 387 944 339 982 q 435 844 435 906 q 381 707 435 785 q 251 554 336 643 l 456 554 l 456 474 l 122 474 l 122 547 m 840 211 l 840 294 q 903 300 882 294 q 960 365 960 315 q 940 408 960 392 q 889 425 921 425 q 822 372 835 425 l 740 408 q 798 481 757 454 q 890 507 839 507 q 1008 469 960 507 q 1057 372 1057 432 q 1040 311 1057 340 q 994 267 1022 282 q 1057 219 1033 253 q 1081 143 1081 186 q 1029 32 1081 74 q 903 -10 978 -10 q 803 15 849 -10 q 733 89 757 40 l 814 126 q 903 71 839 71 q 959 90 936 71 q 982 142 982 108 q 955 196 982 176 q 885 215 928 215 q 840 211 857 215 z "},"⅛":{"ha":1089,"x_min":111,"x_max":978,"o":"m 801 989 l 878 933 l 188 -17 l 111 39 l 801 989 m 311 469 l 215 469 l 215 863 q 142 831 179 846 l 142 917 q 186 940 144 918 q 249 972 228 961 l 311 972 l 311 469 m 903 261 q 978 138 978 221 q 928 33 978 75 q 801 -10 878 -10 q 674 33 724 -10 q 625 138 625 75 q 700 261 625 218 q 638 368 638 300 q 683 467 638 426 q 801 507 729 507 q 919 467 874 507 q 965 368 965 426 q 903 261 965 300 m 753 409 q 743 400 753 409 q 733 363 733 390 q 753 316 733 335 q 801 297 772 297 q 849 317 829 297 q 869 363 869 336 q 849 409 869 390 q 801 428 829 428 q 753 409 772 428 m 744 197 q 733 186 744 197 q 722 143 722 175 q 744 90 722 111 q 801 69 767 69 q 858 90 836 69 q 881 143 881 111 q 858 197 881 175 q 801 218 836 218 q 744 197 767 218 z "},"⅜":{"ha":1182,"x_min":111,"x_max":1071,"o":"m 894 989 l 971 933 l 281 -17 l 204 39 l 894 989 m 218 686 l 218 769 q 281 775 260 769 q 338 840 338 790 q 318 883 338 867 q 267 900 299 900 q 200 847 213 900 l 118 883 q 176 956 135 929 q 268 982 217 982 q 386 944 338 982 q 435 847 435 907 q 417 786 435 815 q 372 742 400 757 q 435 694 411 728 q 458 618 458 661 q 407 507 458 549 q 281 465 356 465 q 181 490 226 465 q 111 564 135 515 l 192 601 q 281 546 217 546 q 337 565 314 546 q 360 617 360 583 q 333 671 360 651 q 263 690 306 690 q 218 686 235 690 m 996 261 q 1071 138 1071 221 q 1021 33 1071 75 q 894 -10 971 -10 q 767 33 817 -10 q 718 138 718 75 q 793 261 718 218 q 731 368 731 300 q 776 467 731 426 q 894 507 822 507 q 1013 467 967 507 q 1058 368 1058 426 q 996 261 1058 300 m 846 409 q 836 400 846 409 q 826 363 826 390 q 846 316 826 335 q 894 297 865 297 q 942 317 922 297 q 963 363 963 336 q 942 409 963 390 q 894 428 922 428 q 846 409 865 428 m 838 197 q 826 186 838 197 q 815 143 815 175 q 838 90 815 111 q 894 69 860 69 q 951 90 929 69 q 974 143 974 111 q 951 197 974 175 q 894 218 929 218 q 838 197 860 218 z "},"⅝":{"ha":1164,"x_min":111,"x_max":1053,"o":"m 876 989 l 953 933 l 263 -17 l 186 39 l 876 989 m 431 892 l 250 892 q 242 776 250 886 q 306 789 267 789 q 411 744 368 789 q 454 636 454 699 q 404 514 454 563 q 279 465 354 465 q 111 560 161 465 l 192 600 q 275 546 215 546 q 334 570 313 546 q 356 631 356 594 q 333 688 356 665 q 275 710 310 710 q 206 678 232 710 l 143 721 q 160 972 154 836 l 431 972 l 431 892 m 978 261 q 1053 138 1053 221 q 1003 33 1053 75 q 876 -10 953 -10 q 749 33 799 -10 q 700 138 700 75 q 775 261 700 218 q 713 368 713 300 q 758 467 713 426 q 876 507 804 507 q 994 467 949 507 q 1040 368 1040 426 q 978 261 1040 300 m 828 409 q 818 400 828 409 q 808 363 808 390 q 828 316 808 335 q 876 297 847 297 q 924 317 904 297 q 944 363 944 336 q 924 409 944 390 q 876 428 904 428 q 828 409 847 428 m 819 197 q 808 186 819 197 q 797 143 797 175 q 819 90 797 111 q 876 69 842 69 q 933 90 911 69 q 956 143 956 111 q 933 197 956 175 q 876 218 911 218 q 819 197 842 218 z "},"⅞":{"ha":1089,"x_min":111,"x_max":978,"o":"m 801 989 l 878 933 l 188 -17 l 111 39 l 801 989 m 461 911 q 254 451 347 676 l 167 492 q 356 890 235 649 l 126 890 l 126 972 l 461 972 l 461 911 m 903 261 q 978 138 978 221 q 928 33 978 75 q 801 -10 878 -10 q 674 33 724 -10 q 625 138 625 75 q 700 261 625 218 q 638 368 638 300 q 683 467 638 426 q 801 507 729 507 q 919 467 874 507 q 965 368 965 426 q 903 261 965 300 m 753 409 q 743 400 753 409 q 733 363 733 390 q 753 316 733 335 q 801 297 772 297 q 849 317 829 297 q 869 363 869 336 q 849 409 869 390 q 801 428 829 428 q 753 409 772 428 m 744 197 q 733 186 744 197 q 722 143 722 175 q 744 90 722 111 q 801 69 767 69 q 858 90 836 69 q 881 143 881 111 q 858 197 881 175 q 801 218 836 218 q 744 197 767 218 z "},"→":{"ha":1315,"x_min":97,"x_max":1218,"o":"m 811 -39 l 740 33 l 1028 317 l 97 317 l 97 417 l 1028 417 l 740 700 l 811 771 l 1218 367 l 811 -39 z "},"↔":{"ha":1551,"x_min":97,"x_max":1454,"o":"m 575 700 l 286 417 l 1264 417 l 976 700 l 1047 771 l 1454 367 l 1047 -39 l 976 33 l 1264 317 l 286 317 l 575 33 l 504 -39 l 97 367 l 504 771 l 575 700 z "},"⇒":{"ha":1315,"x_min":97,"x_max":1218,"o":"m 1079 367 l 1028 417 l 97 417 l 97 517 l 926 517 l 740 700 l 811 771 l 1218 367 l 811 -39 l 740 33 l 926 217 l 97 217 l 97 317 l 1028 317 l 1079 367 z "},"⇔":{"ha":1706,"x_min":97,"x_max":1608,"o":"m 575 700 l 388 517 l 1317 517 l 1131 700 l 1201 771 l 1608 367 l 1201 -39 l 1131 33 l 1317 217 l 389 217 l 575 33 l 504 -39 l 97 367 l 504 771 l 575 700 m 1469 367 l 1418 417 l 286 417 l 236 367 l 286 317 l 1418 317 l 1469 367 z "},"⇽":{"ha":1317,"x_min":97,"x_max":1219,"o":"m 488 753 l 488 417 l 1219 417 l 1219 317 l 488 317 l 488 -21 l 97 367 l 488 753 m 233 367 l 389 213 l 389 518 l 233 367 z "},"⇾":{"ha":1315,"x_min":97,"x_max":1218,"o":"m 829 -21 l 829 317 l 97 317 l 97 417 l 829 417 l 829 753 l 1218 367 l 829 -21 m 926 213 l 1082 367 l 926 518 l 926 213 z "},"⇿":{"ha":1706,"x_min":97,"x_max":1608,"o":"m 488 753 l 488 417 l 1219 417 l 1219 753 l 1608 367 l 1219 -21 l 1219 317 l 488 317 l 488 -21 l 97 367 l 488 753 m 233 367 l 389 213 l 389 518 l 233 367 m 1317 213 l 1472 367 l 1317 518 l 1317 213 z "},"∀":{"ha":907,"x_min":21,"x_max":886,"o":"m 21 972 l 175 972 l 251 765 l 665 765 l 740 972 l 886 972 l 510 0 l 393 0 l 21 972 m 458 203 l 621 646 l 294 646 l 457 203 l 458 203 z "},"∂":{"ha":764,"x_min":26,"x_max":744,"o":"m 44 971 l 89 1079 q 579 769 414 944 q 744 340 744 593 q 646 85 744 188 q 379 -17 547 -17 q 126 92 225 -17 q 26 349 26 201 q 124 594 26 493 q 371 694 222 694 q 503 672 436 694 q 44 971 376 832 m 576 547 q 432 579 508 579 q 231 522 307 579 q 156 351 156 465 q 222 174 156 249 q 389 100 288 100 q 553 169 490 100 q 615 333 615 238 q 576 547 615 450 z "},"∃":{"ha":806,"x_min":90,"x_max":674,"o":"m 90 972 l 674 972 l 674 0 l 90 0 l 90 119 l 540 119 l 540 411 l 90 411 l 90 531 l 540 531 l 540 853 l 90 853 l 90 972 z "},"∄":{"ha":806,"x_min":90,"x_max":674,"o":"m 90 972 l 426 972 l 460 1086 l 565 1058 l 540 972 l 674 972 l 674 0 l 261 0 l 229 -114 l 124 -86 l 149 0 l 90 0 l 90 119 l 182 119 l 265 411 l 90 411 l 90 531 l 300 531 l 392 853 l 90 853 l 90 972 m 540 411 l 379 411 l 296 119 l 540 119 l 540 411 m 540 853 l 506 853 l 414 531 l 540 531 l 540 853 z "},"∆":{"ha":879,"x_min":7,"x_max":872,"o":"m 872 0 l 7 0 l 383 972 l 500 972 l 872 0 m 674 119 l 436 769 l 435 769 l 196 119 l 674 119 z "},"∈":{"ha":764,"x_min":69,"x_max":675,"o":"m 675 0 l 510 0 q 176 94 283 0 q 69 347 69 188 q 176 601 69 507 q 510 694 283 694 l 675 694 l 675 583 l 478 583 q 286 533 354 583 q 201 403 218 483 l 675 403 l 675 292 l 201 292 q 286 160 218 210 q 478 111 354 111 l 675 111 l 675 0 z "},"∉":{"ha":764,"x_min":69,"x_max":675,"o":"m 510 878 l 615 850 l 571 694 l 675 694 l 675 583 l 539 583 l 488 403 l 675 403 l 675 292 l 456 292 l 406 115 q 478 111 439 111 l 675 111 l 675 0 l 510 0 q 375 10 432 0 l 319 -183 l 214 -156 l 269 39 q 69 347 69 119 q 164 590 69 497 q 457 693 258 682 l 510 878 m 374 403 l 424 581 q 271 522 326 569 q 201 403 215 474 l 374 403 m 342 292 l 201 292 q 301 151 219 197 l 342 292 z "},"∏":{"ha":764,"x_min":10,"x_max":754,"o":"m 754 672 l 629 672 l 629 0 l 496 0 l 496 672 l 268 672 l 268 0 l 135 0 l 135 672 l 10 672 l 10 792 l 754 792 l 754 672 z "},"∑":{"ha":764,"x_min":28,"x_max":739,"o":"m 550 507 l 247 119 l 739 119 l 739 0 l 28 0 l 28 71 l 382 503 l 43 900 l 43 972 l 704 972 l 704 853 l 256 853 l 550 507 z "},"−":{"ha":764,"x_min":75,"x_max":688,"o":"m 75 486 l 688 486 l 688 378 l 75 378 l 75 486 z "},"∕":{"ha":504,"x_min":0,"x_max":504,"o":"m 504 1021 l 99 -74 l 0 -36 l 406 1058 l 504 1021 z "},"∙":{"ha":764,"x_min":308,"x_max":454,"o":"m 454 351 l 308 351 l 308 513 l 454 513 l 454 351 z "},"√":{"ha":764,"x_min":0,"x_max":764,"o":"m 764 1042 l 428 0 l 296 0 l 119 582 l 0 582 l 0 694 l 228 694 l 365 165 l 368 165 l 628 1042 l 764 1042 z "},"∞":{"ha":1081,"x_min":56,"x_max":1025,"o":"m 1025 342 q 958 181 1025 247 q 793 114 890 114 q 673 149 729 114 q 540 264 617 183 q 406 149 463 183 q 288 114 350 114 q 123 181 190 114 q 56 344 56 249 q 123 506 56 439 q 288 572 190 572 q 406 538 350 572 q 540 422 463 503 q 673 538 617 503 q 793 572 729 572 q 958 505 890 572 q 1025 342 1025 438 m 793 221 q 872 257 840 221 q 904 343 904 293 q 872 428 904 392 q 793 465 840 465 q 613 343 728 465 q 793 221 725 221 m 288 465 q 208 429 240 465 q 176 343 176 393 q 208 258 176 294 q 288 221 240 221 q 468 343 353 221 q 288 465 356 465 z "},"∩":{"ha":764,"x_min":69,"x_max":694,"o":"m 69 0 l 69 271 q 148 606 69 501 q 382 711 226 711 q 616 606 538 711 q 694 271 694 501 l 694 0 l 583 0 l 583 318 q 382 600 583 600 q 181 318 181 600 l 181 0 l 69 0 z "},"∪":{"ha":764,"x_min":69,"x_max":694,"o":"m 694 694 l 694 424 q 616 88 694 193 q 382 -17 538 -17 q 148 88 226 -17 q 69 424 69 193 l 69 694 l 181 694 l 181 376 q 382 94 181 94 q 583 376 583 94 l 583 694 l 694 694 z "},"∫":{"ha":764,"x_min":78,"x_max":685,"o":"m 685 1028 l 649 922 q 563 942 607 942 q 476 917 501 942 q 449 785 453 892 l 413 -51 q 353 -250 407 -190 q 201 -307 301 -307 q 78 -276 151 -307 l 114 -171 q 186 -190 156 -190 q 258 -165 233 -190 q 286 -33 282 -140 l 322 803 q 382 1001 328 942 q 547 1058 433 1058 q 685 1028 611 1058 z "},"∴":{"ha":764,"x_min":92,"x_max":674,"o":"m 238 0 l 92 0 l 92 161 l 238 161 l 238 0 m 674 0 l 528 0 l 528 161 l 674 161 l 674 0 m 456 394 l 310 394 l 310 556 l 456 556 l 456 394 z "},"≈":{"ha":764,"x_min":75,"x_max":688,"o":"m 608 615 l 688 563 q 504 454 635 454 q 375 486 453 454 q 257 518 297 518 q 154 467 185 518 l 75 519 q 258 628 128 628 q 388 596 310 628 q 506 564 465 564 q 608 615 578 564 m 608 397 l 688 344 q 504 236 635 236 q 375 268 453 236 q 257 300 297 300 q 154 249 185 300 l 75 301 q 258 410 128 410 q 388 378 310 410 q 506 346 465 346 q 608 397 578 346 z "},"≠":{"ha":764,"x_min":75,"x_max":688,"o":"m 75 378 l 274 378 l 346 486 l 75 486 l 75 594 l 419 594 l 565 811 l 651 750 l 546 594 l 688 594 l 688 486 l 472 486 l 400 378 l 688 378 l 688 269 l 326 269 l 181 53 l 96 114 l 200 269 l 75 269 l 75 378 z "},"≤":{"ha":764,"x_min":33,"x_max":729,"o":"m 33 475 l 33 583 l 729 861 l 729 753 l 168 529 l 729 306 l 729 197 l 33 475 m 33 108 l 729 108 l 729 0 l 33 0 l 33 108 z "},"≥":{"ha":764,"x_min":33,"x_max":729,"o":"m 729 583 l 729 475 l 33 197 l 33 306 l 594 529 l 33 753 l 33 861 l 729 583 m 33 108 l 729 108 l 729 0 l 33 0 l 33 108 z "},"⊂":{"ha":764,"x_min":69,"x_max":675,"o":"m 675 0 l 510 0 q 176 94 283 0 q 69 347 69 188 q 176 601 69 507 q 510 694 283 694 l 675 694 l 675 583 l 478 583 q 265 517 333 583 q 196 347 196 450 q 265 178 196 244 q 478 111 333 111 l 675 111 l 675 0 z "},"⊃":{"ha":764,"x_min":89,"x_max":694,"o":"m 254 0 l 89 0 l 89 111 l 286 111 q 499 178 431 111 q 568 347 568 244 q 499 517 568 450 q 286 583 431 583 l 89 583 l 89 694 l 254 694 q 588 601 481 694 q 694 347 694 507 q 588 94 694 188 q 254 0 481 0 z "},"⊄":{"ha":764,"x_min":69,"x_max":675,"o":"m 510 878 l 615 850 l 571 694 l 675 694 l 675 583 l 539 583 l 406 115 q 478 111 439 111 l 675 111 l 675 0 l 510 0 q 375 10 432 0 l 319 -183 l 214 -156 l 269 39 q 69 347 69 119 q 164 590 69 497 q 457 693 258 682 l 510 878 m 301 151 l 424 581 q 252 503 308 568 q 196 347 196 439 q 301 151 196 213 z "},"⊅":{"ha":764,"x_min":89,"x_max":694,"o":"m 444 878 l 550 850 l 493 656 q 694 347 694 575 q 600 104 694 196 q 307 1 506 13 l 254 -183 l 149 -156 l 193 0 l 89 0 l 89 111 l 225 111 l 358 578 q 286 583 329 583 l 89 583 l 89 694 l 254 694 q 389 683 325 694 l 444 878 m 461 543 l 339 114 q 512 190 456 125 q 568 347 568 254 q 461 543 568 482 z "},"⊆":{"ha":764,"x_min":69,"x_max":675,"o":"m 675 222 l 510 222 q 176 316 283 222 q 69 569 69 410 q 176 823 69 729 q 510 917 283 917 l 675 917 l 675 806 l 478 806 q 265 739 333 806 q 196 569 196 672 q 265 400 196 467 q 478 333 333 333 l 675 333 l 675 222 m 86 0 l 86 111 l 675 111 l 675 0 l 86 0 z "},"⊇":{"ha":764,"x_min":89,"x_max":694,"o":"m 254 222 l 89 222 l 89 333 l 286 333 q 499 400 431 333 q 568 569 568 467 q 499 739 568 672 q 286 806 431 806 l 89 806 l 89 917 l 254 917 q 588 823 481 917 q 694 569 694 729 q 588 316 694 410 q 254 222 481 222 m 89 0 l 89 111 l 678 111 l 678 0 l 89 0 z "},"⋄":{"ha":764,"x_min":115,"x_max":647,"o":"m 529 347 l 382 583 l 235 347 l 382 111 l 529 347 m 382 771 l 647 347 l 382 -76 l 115 347 l 382 771 z "},"△":{"ha":553,"x_min":83,"x_max":511,"o":"m 511 397 l 83 154 l 83 638 l 511 397 z "},"◊":{"ha":764,"x_min":51,"x_max":714,"o":"m 51 486 l 324 972 l 442 972 l 714 486 l 442 0 l 324 0 l 51 486 m 596 486 l 382 867 l 169 486 l 382 106 l 596 486 z "},"○":{"ha":508,"x_min":49,"x_max":460,"o":"m 109 256 q 79 286 109 256 q 49 401 49 317 q 109 547 49 486 q 254 607 169 607 q 399 547 339 607 q 460 401 460 486 q 399 256 460 317 q 254 196 339 196 q 109 256 169 196 z "},"◻":{"ha":764,"x_min":132,"x_max":632,"o":"m 632 47 l 132 47 l 132 547 l 632 547 l 632 47 m 232 447 l 232 147 l 532 147 l 532 447 l 232 447 z "},"":{"ha":231,"x_min":18,"x_max":171,"o":"m 171 -136 l 113 -356 l 18 -356 l 63 -136 l 171 -136 z "},"":{"ha":231,"x_min":18,"x_max":171,"o":"m 171 621 l 113 401 l 18 401 l 63 621 l 171 621 z "},"":{"ha":383,"x_min":83,"x_max":300,"o":"m 300 -53 l 83 -53 l 83 33 l 300 33 l 300 -53 z "},"":{"ha":383,"x_min":83,"x_max":300,"o":"m 300 704 l 83 704 l 83 790 l 300 790 l 300 704 z "},"":{"ha":222,"x_min":57,"x_max":165,"o":"m 165 -247 l 57 -247 l 57 -136 l 165 -136 l 165 -247 z "},"":{"ha":222,"x_min":57,"x_max":165,"o":"m 165 510 l 57 510 l 57 621 l 165 621 l 165 510 z "},"ﬀ":{"ha":936,"x_min":64,"x_max":976,"o":"m 508 1028 l 472 922 q 386 942 431 942 q 306 919 335 942 q 269 782 269 890 l 269 694 l 429 694 l 429 583 l 269 583 l 269 0 l 143 0 l 143 583 l 64 583 l 64 694 l 143 694 l 143 794 q 186 976 143 911 q 371 1058 242 1058 q 508 1028 435 1058 m 976 1028 l 940 922 q 854 942 899 942 q 774 919 803 942 q 738 782 738 890 l 738 694 l 925 694 l 925 583 l 738 583 l 738 0 l 611 0 l 611 583 l 532 583 l 532 694 l 611 694 l 611 794 q 654 976 611 911 q 839 1058 710 1058 q 976 1028 903 1058 z "},"ﬁ":{"ha":828,"x_min":64,"x_max":711,"o":"m 457 583 l 269 583 l 269 0 l 143 0 l 143 583 l 64 583 l 64 694 l 143 694 l 143 794 q 186 976 143 911 q 371 1058 242 1058 q 474 1040 419 1058 l 454 931 q 386 942 421 942 q 306 919 335 942 q 269 782 269 890 l 269 694 l 457 694 l 457 583 m 711 0 l 585 0 l 585 694 l 711 694 l 711 0 m 711 831 l 585 831 l 585 972 l 711 972 l 711 831 z "},"ﬂ":{"ha":828,"x_min":64,"x_max":711,"o":"m 457 583 l 269 583 l 269 0 l 143 0 l 143 583 l 64 583 l 64 694 l 143 694 l 143 794 q 186 976 143 911 q 371 1058 242 1058 q 474 1040 419 1058 l 454 931 q 386 942 421 942 q 306 919 335 942 q 269 782 269 890 l 269 694 l 457 694 l 457 583 m 711 1042 l 711 0 l 585 0 l 585 1042 l 711 1042 z "},"ﬃ":{"ha":1296,"x_min":64,"x_max":1179,"o":"m 508 1028 l 472 922 q 386 942 431 942 q 306 919 335 942 q 269 782 269 890 l 269 694 l 429 694 l 429 583 l 269 583 l 269 0 l 143 0 l 143 583 l 64 583 l 64 694 l 143 694 l 143 794 q 186 976 143 911 q 371 1058 242 1058 q 508 1028 435 1058 m 925 583 l 738 583 l 738 0 l 611 0 l 611 583 l 532 583 l 532 694 l 611 694 l 611 794 q 654 976 611 911 q 839 1058 710 1058 q 942 1040 888 1058 l 922 931 q 854 942 889 942 q 774 919 803 942 q 738 782 738 890 l 738 694 l 925 694 l 925 583 m 1179 0 l 1053 0 l 1053 694 l 1179 694 l 1179 0 m 1179 831 l 1053 831 l 1053 972 l 1179 972 l 1179 831 z "},"ﬄ":{"ha":1296,"x_min":64,"x_max":1179,"o":"m 508 1028 l 472 922 q 386 942 431 942 q 306 919 335 942 q 269 782 269 890 l 269 694 l 429 694 l 429 583 l 269 583 l 269 0 l 143 0 l 143 583 l 64 583 l 64 694 l 143 694 l 143 794 q 186 976 143 911 q 371 1058 242 1058 q 508 1028 435 1058 m 925 583 l 738 583 l 738 0 l 611 0 l 611 583 l 532 583 l 532 694 l 611 694 l 611 794 q 654 976 611 911 q 839 1058 710 1058 q 942 1040 888 1058 l 922 931 q 854 942 889 942 q 774 919 803 942 q 738 782 738 890 l 738 694 l 925 694 l 925 583 m 1179 1042 l 1179 0 l 1053 0 l 1053 1042 l 1179 1042 z "},"ﬆ":{"ha":1107,"x_min":60,"x_max":1088,"o":"m 531 635 l 456 554 q 318 606 396 606 q 242 581 271 606 q 214 514 214 556 q 236 468 214 489 q 281 437 258 447 q 347 408 303 426 q 418 377 389 392 q 481 338 447 363 q 533 279 515 314 q 550 201 550 244 q 478 38 550 92 q 299 -17 406 -17 q 60 92 143 -17 l 149 163 q 300 89 218 89 q 390 117 354 89 q 425 196 425 144 q 403 242 425 221 q 360 274 382 264 q 292 303 338 285 q 219 333 243 322 q 160 369 196 344 q 109 426 125 393 q 93 504 93 460 q 158 658 93 604 q 317 711 224 711 q 531 635 446 711 m 1071 583 l 876 583 l 876 269 q 878 215 876 236 q 903 128 881 157 q 975 99 925 99 q 1053 118 1014 99 l 1088 17 q 958 -14 1029 -14 q 772 94 821 -14 q 750 239 750 146 l 750 583 l 657 583 l 657 694 l 750 694 l 750 861 l 876 861 l 876 694 l 1071 694 l 1071 583 z "}}}
